M48
; DRILL file {KiCad 5.1.8-db9833491~88~ubuntu20.04.1} date Sat Jan  9 18:38:25 2021
; FORMAT={-:-/ absolute / metric / decimal}
; #@! TF.CreationDate,2021-01-09T18:38:25-05:00
; #@! TF.GenerationSoftware,Kicad,Pcbnew,5.1.8-db9833491~88~ubuntu20.04.1
FMAT,2
METRIC
T1C0.250
T2C0.500
T3C1.000
%
G90
G05
T1
X46.0Y-158.9
X50.4Y-168.2
X51.4Y-158.1
X55.0Y-158.4
X55.2Y-169.6
X57.0Y-168.3
X58.3Y-148.7
X58.5Y-162.1
X58.7Y-167.2
X60.6Y-168.8
X61.7Y-166.7
X62.2Y-169.8
X64.0Y-166.1
X68.9Y-158.7
X68.9Y-168.9
X69.0Y-150.5
X69.4Y-168.4
X69.6Y-169.6
X69.9Y-155.6
X71.3Y-162.7
X71.3Y-167.7
X72.2Y-157.1
X72.3Y-149.7
X74.2Y-155.1
X74.5Y-150.0
X75.1Y-172.3
X76.8Y-156.5
X78.6Y-165.1
X79.1Y-152.8
X79.497Y-164.2
X79.8Y-152.2
T2
X55.3Y-148.4
X44.7Y-148.5
X52.7Y-168.3
X76.7Y-163.0
X73.3Y-163.0
X58.2Y-160.3
X58.4Y-157.1
X49.5Y-148.0
X47.3Y-168.5
X52.4Y-148.4
T3
X44.7Y-161.76
X44.7Y-164.3
X47.24Y-161.76
X47.24Y-164.3
X49.78Y-161.76
X49.78Y-164.3
X52.32Y-161.76
X52.32Y-164.3
X54.86Y-161.76
X54.86Y-164.3
X44.81Y-151.8
X44.81Y-154.34
X47.35Y-151.8
X47.35Y-154.34
X49.89Y-151.8
X49.89Y-154.34
X52.43Y-151.8
X52.43Y-154.34
X54.97Y-151.8
X54.97Y-154.34
X61.7Y-155.2
X61.7Y-157.74
X61.7Y-160.28
X61.7Y-162.82
T0
M30
