M48
; DRILL file {KiCad 5.1.8-db9833491~88~ubuntu20.04.1} date Sun Jan 24 20:33:45 2021
; FORMAT={-:-/ absolute / metric / decimal}
; #@! TF.CreationDate,2021-01-24T20:33:45-05:00
; #@! TF.GenerationSoftware,Kicad,Pcbnew,5.1.8-db9833491~88~ubuntu20.04.1
FMAT,2
METRIC
T1C0.250
T2C0.500
T3C0.650
T4C1.000
%
G90
G05
T1
X46.0Y-158.9
X50.4Y-168.2
X51.4Y-158.1
X55.0Y-158.4
X55.2Y-169.6
X57.0Y-168.3
X58.3Y-148.7
X58.5Y-162.1
X58.7Y-167.2
X61.7Y-166.7
X62.2Y-169.8
X68.9Y-158.7
X69.0Y-150.5
X71.0Y-152.4
X71.0Y-171.0
X71.3Y-162.7
X71.4Y-154.0
X71.8Y-169.8
X72.2Y-157.1
X72.3Y-149.7
X74.4Y-155.2
X74.5Y-150.0
X75.0Y-157.8
X75.1Y-172.3
X76.8Y-156.5
X78.2Y-160.4
X78.6Y-165.1
X79.497Y-164.2
T2
X76.7Y-163.0
X47.3Y-168.5
X52.4Y-148.4
X52.7Y-168.3
X73.3Y-163.0
X55.3Y-148.4
X44.7Y-148.5
X49.5Y-148.0
X58.4Y-157.1
X58.2Y-160.3
T3
X75.2Y-166.0
X75.2Y-167.27
X75.2Y-168.54
X75.2Y-169.81
X75.2Y-171.08
X76.47Y-166.0
X76.47Y-167.27
X76.47Y-168.54
X76.47Y-169.81
X76.47Y-171.08
T4
X61.7Y-155.2
X61.7Y-157.74
X61.7Y-160.28
X61.7Y-162.82
X44.7Y-161.76
X44.7Y-164.3
X47.24Y-161.76
X47.24Y-164.3
X49.78Y-161.76
X49.78Y-164.3
X52.32Y-161.76
X52.32Y-164.3
X54.86Y-161.76
X54.86Y-164.3
X44.81Y-151.8
X44.81Y-154.34
X47.35Y-151.8
X47.35Y-154.34
X49.89Y-151.8
X49.89Y-154.34
X52.43Y-151.8
X52.43Y-154.34
X54.97Y-151.8
X54.97Y-154.34
T0
M30
