G04 EAGLE Gerber RS-274X export*
G75*
%MOMM*%
%FSLAX34Y34*%
%LPD*%
%INSilkscreen Top*%
%IPPOS*%
%AMOC8*
5,1,8,0,0,1.08239X$1,22.5*%
G01*
%ADD10C,0.152400*%
%ADD11C,0.076200*%
%ADD12C,0.203200*%
%ADD13C,0.304800*%
%ADD14R,1.000000X0.200000*%
%ADD15C,0.101600*%
%ADD16C,0.127000*%
%ADD17C,0.203200*%

G36*
X627558Y497236D02*
X627558Y497236D01*
X627567Y497235D01*
X627699Y497256D01*
X627832Y497275D01*
X627839Y497278D01*
X627848Y497279D01*
X627969Y497336D01*
X628091Y497391D01*
X628097Y497396D01*
X628105Y497400D01*
X628206Y497488D01*
X628308Y497575D01*
X628313Y497582D01*
X628319Y497587D01*
X628391Y497700D01*
X628466Y497811D01*
X628468Y497819D01*
X628473Y497826D01*
X628511Y497955D01*
X628551Y498082D01*
X628552Y498091D01*
X628554Y498099D01*
X628555Y498233D01*
X628559Y498366D01*
X628556Y498375D01*
X628557Y498383D01*
X628541Y498434D01*
X628487Y498641D01*
X628467Y498674D01*
X628458Y498704D01*
X626458Y502704D01*
X626401Y502786D01*
X626352Y502873D01*
X626321Y502903D01*
X626297Y502938D01*
X626219Y503001D01*
X626148Y503071D01*
X626110Y503091D01*
X626077Y503118D01*
X625985Y503157D01*
X625897Y503204D01*
X625855Y503213D01*
X625815Y503230D01*
X625716Y503242D01*
X625619Y503263D01*
X625576Y503260D01*
X625533Y503265D01*
X625435Y503250D01*
X625335Y503242D01*
X625295Y503227D01*
X625252Y503221D01*
X625162Y503178D01*
X625069Y503144D01*
X625034Y503118D01*
X624995Y503100D01*
X624920Y503034D01*
X624840Y502975D01*
X624817Y502944D01*
X624781Y502913D01*
X624684Y502761D01*
X624642Y502704D01*
X622642Y498704D01*
X622639Y498696D01*
X622635Y498689D01*
X622594Y498561D01*
X622552Y498434D01*
X622551Y498426D01*
X622549Y498418D01*
X622545Y498283D01*
X622540Y498150D01*
X622542Y498142D01*
X622541Y498134D01*
X622575Y498004D01*
X622607Y497874D01*
X622611Y497867D01*
X622613Y497859D01*
X622681Y497744D01*
X622748Y497627D01*
X622754Y497622D01*
X622759Y497614D01*
X622856Y497522D01*
X622952Y497430D01*
X622960Y497426D01*
X622966Y497420D01*
X623085Y497359D01*
X623203Y497296D01*
X623211Y497294D01*
X623219Y497290D01*
X623271Y497282D01*
X623481Y497237D01*
X623519Y497240D01*
X623550Y497235D01*
X627550Y497235D01*
X627558Y497236D01*
G37*
G36*
X110021Y587545D02*
X110021Y587545D01*
X110093Y587545D01*
X110161Y587565D01*
X110232Y587575D01*
X110297Y587604D01*
X110366Y587624D01*
X110426Y587662D01*
X110491Y587691D01*
X110546Y587737D01*
X110606Y587775D01*
X110654Y587829D01*
X110708Y587875D01*
X110748Y587934D01*
X110795Y587988D01*
X110826Y588052D01*
X110866Y588111D01*
X110887Y588180D01*
X110918Y588244D01*
X110930Y588314D01*
X110951Y588382D01*
X110953Y588454D01*
X110965Y588525D01*
X110957Y588595D01*
X110959Y588666D01*
X110940Y588736D01*
X110932Y588807D01*
X110907Y588862D01*
X110887Y588941D01*
X110826Y589044D01*
X110795Y589113D01*
X108795Y592113D01*
X108718Y592200D01*
X108645Y592290D01*
X108623Y592305D01*
X108605Y592325D01*
X108508Y592387D01*
X108413Y592454D01*
X108387Y592462D01*
X108365Y592477D01*
X108254Y592509D01*
X108144Y592547D01*
X108117Y592548D01*
X108092Y592555D01*
X107976Y592555D01*
X107860Y592561D01*
X107834Y592555D01*
X107807Y592555D01*
X107696Y592523D01*
X107583Y592497D01*
X107560Y592484D01*
X107534Y592476D01*
X107436Y592414D01*
X107335Y592358D01*
X107319Y592340D01*
X107294Y592325D01*
X107109Y592117D01*
X107105Y592113D01*
X105105Y589113D01*
X105074Y589049D01*
X105035Y588989D01*
X105013Y588921D01*
X104982Y588857D01*
X104970Y588786D01*
X104949Y588718D01*
X104947Y588647D01*
X104935Y588577D01*
X104943Y588505D01*
X104941Y588434D01*
X104959Y588365D01*
X104968Y588294D01*
X104995Y588228D01*
X105013Y588159D01*
X105050Y588098D01*
X105077Y588032D01*
X105122Y587976D01*
X105159Y587914D01*
X105210Y587865D01*
X105255Y587810D01*
X105314Y587769D01*
X105366Y587720D01*
X105429Y587687D01*
X105487Y587646D01*
X105555Y587623D01*
X105619Y587590D01*
X105678Y587580D01*
X105756Y587553D01*
X105875Y587547D01*
X105950Y587535D01*
X109950Y587535D01*
X110021Y587545D01*
G37*
G36*
X430610Y636653D02*
X430610Y636653D01*
X430699Y636652D01*
X430710Y636657D01*
X430722Y636658D01*
X430802Y636695D01*
X430884Y636729D01*
X430893Y636738D01*
X430903Y636743D01*
X430940Y636784D01*
X431013Y636855D01*
X433513Y640355D01*
X433540Y640416D01*
X433575Y640473D01*
X433582Y640509D01*
X433595Y640538D01*
X433596Y640587D01*
X433607Y640650D01*
X433607Y641150D01*
X433606Y641155D01*
X433607Y641160D01*
X433586Y641253D01*
X433568Y641347D01*
X433565Y641351D01*
X433564Y641356D01*
X433508Y641434D01*
X433455Y641512D01*
X433451Y641515D01*
X433448Y641519D01*
X433366Y641570D01*
X433287Y641622D01*
X433282Y641622D01*
X433277Y641625D01*
X433100Y641657D01*
X428100Y641657D01*
X428095Y641656D01*
X428090Y641657D01*
X427997Y641636D01*
X427904Y641618D01*
X427899Y641615D01*
X427894Y641614D01*
X427816Y641558D01*
X427738Y641505D01*
X427735Y641501D01*
X427731Y641498D01*
X427680Y641416D01*
X427628Y641337D01*
X427628Y641332D01*
X427625Y641327D01*
X427593Y641150D01*
X427593Y640650D01*
X427606Y640585D01*
X427610Y640518D01*
X427626Y640484D01*
X427632Y640454D01*
X427660Y640413D01*
X427687Y640355D01*
X430187Y636855D01*
X430252Y636795D01*
X430314Y636731D01*
X430325Y636727D01*
X430334Y636718D01*
X430416Y636688D01*
X430498Y636653D01*
X430510Y636653D01*
X430522Y636649D01*
X430610Y636653D01*
G37*
G36*
X468505Y260352D02*
X468505Y260352D01*
X468507Y260351D01*
X468550Y260371D01*
X468594Y260389D01*
X468594Y260391D01*
X468596Y260392D01*
X468629Y260477D01*
X468629Y264287D01*
X468628Y264289D01*
X468629Y264291D01*
X468609Y264334D01*
X468591Y264378D01*
X468589Y264378D01*
X468588Y264380D01*
X468503Y264413D01*
X465963Y264413D01*
X465961Y264412D01*
X465959Y264413D01*
X465916Y264393D01*
X465872Y264375D01*
X465872Y264373D01*
X465870Y264372D01*
X465837Y264287D01*
X465837Y260477D01*
X465838Y260475D01*
X465837Y260473D01*
X465857Y260430D01*
X465875Y260386D01*
X465877Y260386D01*
X465878Y260384D01*
X465963Y260351D01*
X468503Y260351D01*
X468505Y260352D01*
G37*
G36*
X334139Y219712D02*
X334139Y219712D01*
X334141Y219711D01*
X334184Y219731D01*
X334228Y219749D01*
X334228Y219751D01*
X334230Y219752D01*
X334263Y219837D01*
X334263Y223647D01*
X334262Y223649D01*
X334263Y223651D01*
X334243Y223694D01*
X334225Y223738D01*
X334223Y223738D01*
X334222Y223740D01*
X334137Y223773D01*
X331597Y223773D01*
X331595Y223772D01*
X331593Y223773D01*
X331550Y223753D01*
X331506Y223735D01*
X331506Y223733D01*
X331504Y223732D01*
X331471Y223647D01*
X331471Y219837D01*
X331472Y219835D01*
X331471Y219833D01*
X331491Y219790D01*
X331509Y219746D01*
X331511Y219746D01*
X331512Y219744D01*
X331597Y219711D01*
X334137Y219711D01*
X334139Y219712D01*
G37*
G36*
X468505Y179072D02*
X468505Y179072D01*
X468507Y179071D01*
X468550Y179091D01*
X468594Y179109D01*
X468594Y179111D01*
X468596Y179112D01*
X468629Y179197D01*
X468629Y183007D01*
X468628Y183009D01*
X468629Y183011D01*
X468609Y183054D01*
X468591Y183098D01*
X468589Y183098D01*
X468588Y183100D01*
X468503Y183133D01*
X465963Y183133D01*
X465961Y183132D01*
X465959Y183133D01*
X465916Y183113D01*
X465872Y183095D01*
X465872Y183093D01*
X465870Y183092D01*
X465837Y183007D01*
X465837Y179197D01*
X465838Y179195D01*
X465837Y179193D01*
X465857Y179150D01*
X465875Y179106D01*
X465877Y179106D01*
X465878Y179104D01*
X465963Y179071D01*
X468503Y179071D01*
X468505Y179072D01*
G37*
G36*
X334139Y138432D02*
X334139Y138432D01*
X334141Y138431D01*
X334184Y138451D01*
X334228Y138469D01*
X334228Y138471D01*
X334230Y138472D01*
X334263Y138557D01*
X334263Y142367D01*
X334262Y142369D01*
X334263Y142371D01*
X334243Y142414D01*
X334225Y142458D01*
X334223Y142458D01*
X334222Y142460D01*
X334137Y142493D01*
X331597Y142493D01*
X331595Y142492D01*
X331593Y142493D01*
X331550Y142473D01*
X331506Y142455D01*
X331506Y142453D01*
X331504Y142452D01*
X331471Y142367D01*
X331471Y138557D01*
X331472Y138555D01*
X331471Y138553D01*
X331491Y138510D01*
X331509Y138466D01*
X331511Y138466D01*
X331512Y138464D01*
X331597Y138431D01*
X334137Y138431D01*
X334139Y138432D01*
G37*
D10*
X825331Y442468D02*
X825331Y429824D01*
X825330Y429824D02*
X825328Y429706D01*
X825322Y429588D01*
X825313Y429470D01*
X825299Y429353D01*
X825282Y429236D01*
X825261Y429119D01*
X825236Y429004D01*
X825207Y428889D01*
X825174Y428775D01*
X825138Y428663D01*
X825098Y428552D01*
X825055Y428442D01*
X825008Y428333D01*
X824958Y428226D01*
X824903Y428121D01*
X824846Y428018D01*
X824785Y427917D01*
X824721Y427817D01*
X824654Y427720D01*
X824584Y427625D01*
X824510Y427533D01*
X824434Y427442D01*
X824354Y427355D01*
X824272Y427270D01*
X824187Y427188D01*
X824100Y427108D01*
X824009Y427032D01*
X823917Y426958D01*
X823822Y426888D01*
X823725Y426821D01*
X823625Y426757D01*
X823524Y426696D01*
X823421Y426639D01*
X823316Y426584D01*
X823209Y426534D01*
X823100Y426487D01*
X822990Y426444D01*
X822879Y426404D01*
X822767Y426368D01*
X822653Y426335D01*
X822538Y426306D01*
X822423Y426281D01*
X822306Y426260D01*
X822189Y426243D01*
X822072Y426229D01*
X821954Y426220D01*
X821836Y426214D01*
X821718Y426212D01*
X819912Y426212D01*
X832398Y438856D02*
X836913Y442468D01*
X836913Y426212D01*
X832398Y426212D02*
X841429Y426212D01*
X825331Y118618D02*
X825331Y105974D01*
X825330Y105974D02*
X825328Y105856D01*
X825322Y105738D01*
X825313Y105620D01*
X825299Y105503D01*
X825282Y105386D01*
X825261Y105269D01*
X825236Y105154D01*
X825207Y105039D01*
X825174Y104925D01*
X825138Y104813D01*
X825098Y104702D01*
X825055Y104592D01*
X825008Y104483D01*
X824958Y104376D01*
X824903Y104271D01*
X824846Y104168D01*
X824785Y104067D01*
X824721Y103967D01*
X824654Y103870D01*
X824584Y103775D01*
X824510Y103683D01*
X824434Y103592D01*
X824354Y103505D01*
X824272Y103420D01*
X824187Y103338D01*
X824100Y103258D01*
X824009Y103182D01*
X823917Y103108D01*
X823822Y103038D01*
X823725Y102971D01*
X823625Y102907D01*
X823524Y102846D01*
X823421Y102789D01*
X823316Y102734D01*
X823209Y102684D01*
X823100Y102637D01*
X822990Y102594D01*
X822879Y102554D01*
X822767Y102518D01*
X822653Y102485D01*
X822538Y102456D01*
X822423Y102431D01*
X822306Y102410D01*
X822189Y102393D01*
X822072Y102379D01*
X821954Y102370D01*
X821836Y102364D01*
X821718Y102362D01*
X819912Y102362D01*
X837365Y118618D02*
X837490Y118616D01*
X837615Y118610D01*
X837740Y118601D01*
X837864Y118587D01*
X837988Y118570D01*
X838112Y118549D01*
X838234Y118524D01*
X838356Y118495D01*
X838477Y118463D01*
X838597Y118427D01*
X838716Y118387D01*
X838833Y118344D01*
X838949Y118297D01*
X839064Y118246D01*
X839176Y118192D01*
X839288Y118134D01*
X839397Y118074D01*
X839504Y118009D01*
X839610Y117942D01*
X839713Y117871D01*
X839814Y117797D01*
X839913Y117720D01*
X840009Y117640D01*
X840103Y117557D01*
X840194Y117472D01*
X840283Y117383D01*
X840368Y117292D01*
X840451Y117198D01*
X840531Y117102D01*
X840608Y117003D01*
X840682Y116902D01*
X840753Y116799D01*
X840820Y116693D01*
X840885Y116586D01*
X840945Y116477D01*
X841003Y116365D01*
X841057Y116253D01*
X841108Y116138D01*
X841155Y116022D01*
X841198Y115905D01*
X841238Y115786D01*
X841274Y115666D01*
X841306Y115545D01*
X841335Y115423D01*
X841360Y115301D01*
X841381Y115177D01*
X841398Y115053D01*
X841412Y114929D01*
X841421Y114804D01*
X841427Y114679D01*
X841429Y114554D01*
X837365Y118618D02*
X837222Y118616D01*
X837080Y118610D01*
X836937Y118600D01*
X836795Y118587D01*
X836654Y118569D01*
X836512Y118548D01*
X836372Y118523D01*
X836232Y118494D01*
X836093Y118461D01*
X835955Y118424D01*
X835818Y118384D01*
X835683Y118340D01*
X835548Y118292D01*
X835415Y118240D01*
X835283Y118185D01*
X835153Y118126D01*
X835025Y118064D01*
X834898Y117998D01*
X834773Y117929D01*
X834650Y117857D01*
X834530Y117781D01*
X834411Y117702D01*
X834294Y117619D01*
X834180Y117534D01*
X834068Y117445D01*
X833959Y117354D01*
X833852Y117259D01*
X833747Y117162D01*
X833646Y117061D01*
X833547Y116958D01*
X833451Y116853D01*
X833358Y116744D01*
X833268Y116633D01*
X833181Y116520D01*
X833097Y116405D01*
X833017Y116287D01*
X832939Y116167D01*
X832865Y116045D01*
X832795Y115921D01*
X832727Y115795D01*
X832664Y115667D01*
X832603Y115538D01*
X832546Y115407D01*
X832493Y115275D01*
X832444Y115141D01*
X832398Y115006D01*
X840074Y111393D02*
X840168Y111485D01*
X840258Y111579D01*
X840346Y111676D01*
X840431Y111776D01*
X840513Y111878D01*
X840592Y111983D01*
X840667Y112090D01*
X840739Y112199D01*
X840808Y112310D01*
X840874Y112424D01*
X840936Y112539D01*
X840995Y112656D01*
X841050Y112775D01*
X841101Y112895D01*
X841149Y113017D01*
X841194Y113140D01*
X841234Y113264D01*
X841271Y113390D01*
X841304Y113517D01*
X841333Y113644D01*
X841359Y113773D01*
X841380Y113902D01*
X841398Y114032D01*
X841411Y114162D01*
X841421Y114292D01*
X841427Y114423D01*
X841429Y114554D01*
X840074Y111393D02*
X832398Y102362D01*
X841429Y102362D01*
X298281Y429824D02*
X298281Y442468D01*
X298280Y429824D02*
X298278Y429706D01*
X298272Y429588D01*
X298263Y429470D01*
X298249Y429353D01*
X298232Y429236D01*
X298211Y429119D01*
X298186Y429004D01*
X298157Y428889D01*
X298124Y428775D01*
X298088Y428663D01*
X298048Y428552D01*
X298005Y428442D01*
X297958Y428333D01*
X297908Y428226D01*
X297853Y428121D01*
X297796Y428018D01*
X297735Y427917D01*
X297671Y427817D01*
X297604Y427720D01*
X297534Y427625D01*
X297460Y427533D01*
X297384Y427442D01*
X297304Y427355D01*
X297222Y427270D01*
X297137Y427188D01*
X297050Y427108D01*
X296959Y427032D01*
X296867Y426958D01*
X296772Y426888D01*
X296675Y426821D01*
X296575Y426757D01*
X296474Y426696D01*
X296371Y426639D01*
X296266Y426584D01*
X296159Y426534D01*
X296050Y426487D01*
X295940Y426444D01*
X295829Y426404D01*
X295717Y426368D01*
X295603Y426335D01*
X295488Y426306D01*
X295373Y426281D01*
X295256Y426260D01*
X295139Y426243D01*
X295022Y426229D01*
X294904Y426220D01*
X294786Y426214D01*
X294668Y426212D01*
X292862Y426212D01*
X305348Y426212D02*
X309863Y426212D01*
X309996Y426214D01*
X310128Y426220D01*
X310260Y426230D01*
X310392Y426243D01*
X310524Y426261D01*
X310654Y426282D01*
X310785Y426307D01*
X310914Y426336D01*
X311042Y426369D01*
X311170Y426405D01*
X311296Y426445D01*
X311421Y426489D01*
X311545Y426537D01*
X311667Y426588D01*
X311788Y426643D01*
X311907Y426701D01*
X312025Y426763D01*
X312140Y426828D01*
X312254Y426897D01*
X312365Y426968D01*
X312474Y427044D01*
X312581Y427122D01*
X312686Y427203D01*
X312788Y427288D01*
X312888Y427375D01*
X312985Y427465D01*
X313080Y427558D01*
X313171Y427654D01*
X313260Y427752D01*
X313346Y427853D01*
X313429Y427957D01*
X313509Y428063D01*
X313585Y428171D01*
X313659Y428281D01*
X313729Y428394D01*
X313796Y428508D01*
X313859Y428625D01*
X313919Y428743D01*
X313976Y428863D01*
X314029Y428985D01*
X314078Y429108D01*
X314124Y429232D01*
X314166Y429358D01*
X314204Y429485D01*
X314239Y429613D01*
X314270Y429742D01*
X314297Y429871D01*
X314320Y430002D01*
X314340Y430133D01*
X314355Y430265D01*
X314367Y430397D01*
X314375Y430529D01*
X314379Y430662D01*
X314379Y430794D01*
X314375Y430927D01*
X314367Y431059D01*
X314355Y431191D01*
X314340Y431323D01*
X314320Y431454D01*
X314297Y431585D01*
X314270Y431714D01*
X314239Y431843D01*
X314204Y431971D01*
X314166Y432098D01*
X314124Y432224D01*
X314078Y432348D01*
X314029Y432471D01*
X313976Y432593D01*
X313919Y432713D01*
X313859Y432831D01*
X313796Y432948D01*
X313729Y433062D01*
X313659Y433175D01*
X313585Y433285D01*
X313509Y433393D01*
X313429Y433499D01*
X313346Y433603D01*
X313260Y433704D01*
X313171Y433802D01*
X313080Y433898D01*
X312985Y433991D01*
X312888Y434081D01*
X312788Y434168D01*
X312686Y434253D01*
X312581Y434334D01*
X312474Y434412D01*
X312365Y434488D01*
X312254Y434559D01*
X312140Y434628D01*
X312025Y434693D01*
X311907Y434755D01*
X311788Y434813D01*
X311667Y434868D01*
X311545Y434919D01*
X311421Y434967D01*
X311296Y435011D01*
X311170Y435051D01*
X311042Y435087D01*
X310914Y435120D01*
X310785Y435149D01*
X310654Y435174D01*
X310524Y435195D01*
X310392Y435213D01*
X310260Y435226D01*
X310128Y435236D01*
X309996Y435242D01*
X309863Y435244D01*
X310766Y442468D02*
X305348Y442468D01*
X310766Y442468D02*
X310885Y442466D01*
X311005Y442460D01*
X311124Y442450D01*
X311242Y442436D01*
X311361Y442419D01*
X311478Y442397D01*
X311595Y442372D01*
X311710Y442342D01*
X311825Y442309D01*
X311939Y442272D01*
X312051Y442232D01*
X312162Y442187D01*
X312271Y442139D01*
X312379Y442088D01*
X312485Y442033D01*
X312589Y441974D01*
X312691Y441912D01*
X312791Y441847D01*
X312889Y441778D01*
X312985Y441706D01*
X313078Y441631D01*
X313168Y441554D01*
X313256Y441473D01*
X313341Y441389D01*
X313423Y441302D01*
X313503Y441213D01*
X313579Y441121D01*
X313653Y441027D01*
X313723Y440930D01*
X313790Y440832D01*
X313854Y440731D01*
X313914Y440627D01*
X313971Y440522D01*
X314024Y440415D01*
X314074Y440307D01*
X314120Y440197D01*
X314162Y440085D01*
X314201Y439972D01*
X314236Y439858D01*
X314267Y439743D01*
X314295Y439626D01*
X314318Y439509D01*
X314338Y439392D01*
X314354Y439273D01*
X314366Y439154D01*
X314374Y439035D01*
X314378Y438916D01*
X314378Y438796D01*
X314374Y438677D01*
X314366Y438558D01*
X314354Y438439D01*
X314338Y438320D01*
X314318Y438203D01*
X314295Y438086D01*
X314267Y437969D01*
X314236Y437854D01*
X314201Y437740D01*
X314162Y437627D01*
X314120Y437515D01*
X314074Y437405D01*
X314024Y437297D01*
X313971Y437190D01*
X313914Y437085D01*
X313854Y436981D01*
X313790Y436880D01*
X313723Y436782D01*
X313653Y436685D01*
X313579Y436591D01*
X313503Y436499D01*
X313423Y436410D01*
X313341Y436323D01*
X313256Y436239D01*
X313168Y436158D01*
X313078Y436081D01*
X312985Y436006D01*
X312889Y435934D01*
X312791Y435865D01*
X312691Y435800D01*
X312589Y435738D01*
X312485Y435679D01*
X312379Y435624D01*
X312271Y435573D01*
X312162Y435525D01*
X312051Y435480D01*
X311939Y435440D01*
X311825Y435403D01*
X311710Y435370D01*
X311595Y435340D01*
X311478Y435315D01*
X311361Y435293D01*
X311242Y435276D01*
X311124Y435262D01*
X311005Y435252D01*
X310885Y435246D01*
X310766Y435244D01*
X310766Y435243D02*
X307154Y435243D01*
X25231Y112268D02*
X25231Y99624D01*
X25230Y99624D02*
X25228Y99506D01*
X25222Y99388D01*
X25213Y99270D01*
X25199Y99153D01*
X25182Y99036D01*
X25161Y98919D01*
X25136Y98804D01*
X25107Y98689D01*
X25074Y98575D01*
X25038Y98463D01*
X24998Y98352D01*
X24955Y98242D01*
X24908Y98133D01*
X24858Y98026D01*
X24803Y97921D01*
X24746Y97818D01*
X24685Y97717D01*
X24621Y97617D01*
X24554Y97520D01*
X24484Y97425D01*
X24410Y97333D01*
X24334Y97242D01*
X24254Y97155D01*
X24172Y97070D01*
X24087Y96988D01*
X24000Y96908D01*
X23909Y96832D01*
X23817Y96758D01*
X23722Y96688D01*
X23625Y96621D01*
X23525Y96557D01*
X23424Y96496D01*
X23321Y96439D01*
X23216Y96384D01*
X23109Y96334D01*
X23000Y96287D01*
X22890Y96244D01*
X22779Y96204D01*
X22667Y96168D01*
X22553Y96135D01*
X22438Y96106D01*
X22323Y96081D01*
X22206Y96060D01*
X22089Y96043D01*
X21972Y96029D01*
X21854Y96020D01*
X21736Y96014D01*
X21618Y96012D01*
X19812Y96012D01*
X32298Y99624D02*
X35910Y112268D01*
X32298Y99624D02*
X41329Y99624D01*
X38619Y96012D02*
X38619Y103237D01*
D11*
X724445Y489331D02*
X722808Y494242D01*
X726082Y494242D02*
X724445Y489331D01*
X728982Y495060D02*
X731028Y496697D01*
X731028Y489331D01*
X728982Y489331D02*
X733074Y489331D01*
X735944Y489331D02*
X735944Y489740D01*
X736354Y489740D01*
X736354Y489331D01*
X735944Y489331D01*
X739224Y493014D02*
X739226Y493167D01*
X739232Y493320D01*
X739241Y493472D01*
X739255Y493625D01*
X739272Y493777D01*
X739293Y493928D01*
X739318Y494079D01*
X739347Y494229D01*
X739379Y494379D01*
X739416Y494527D01*
X739456Y494675D01*
X739499Y494822D01*
X739547Y494967D01*
X739598Y495111D01*
X739652Y495254D01*
X739711Y495396D01*
X739772Y495535D01*
X739838Y495674D01*
X739864Y495744D01*
X739894Y495814D01*
X739927Y495881D01*
X739963Y495947D01*
X740002Y496011D01*
X740045Y496073D01*
X740091Y496132D01*
X740139Y496190D01*
X740190Y496244D01*
X740244Y496297D01*
X740301Y496346D01*
X740360Y496393D01*
X740421Y496436D01*
X740484Y496477D01*
X740549Y496514D01*
X740616Y496549D01*
X740685Y496579D01*
X740755Y496607D01*
X740826Y496630D01*
X740898Y496651D01*
X740971Y496667D01*
X741045Y496680D01*
X741120Y496690D01*
X741195Y496695D01*
X741270Y496697D01*
X741345Y496695D01*
X741420Y496690D01*
X741495Y496680D01*
X741569Y496667D01*
X741642Y496651D01*
X741714Y496630D01*
X741785Y496607D01*
X741855Y496579D01*
X741924Y496549D01*
X741991Y496514D01*
X742056Y496477D01*
X742119Y496436D01*
X742180Y496393D01*
X742239Y496346D01*
X742296Y496297D01*
X742350Y496244D01*
X742401Y496190D01*
X742450Y496132D01*
X742495Y496073D01*
X742538Y496011D01*
X742577Y495947D01*
X742614Y495881D01*
X742646Y495813D01*
X742676Y495744D01*
X742702Y495674D01*
X742767Y495536D01*
X742829Y495396D01*
X742887Y495254D01*
X742942Y495111D01*
X742993Y494967D01*
X743041Y494822D01*
X743084Y494675D01*
X743124Y494528D01*
X743161Y494379D01*
X743193Y494229D01*
X743222Y494079D01*
X743247Y493928D01*
X743268Y493777D01*
X743285Y493625D01*
X743299Y493472D01*
X743308Y493320D01*
X743314Y493167D01*
X743316Y493014D01*
X739223Y493014D02*
X739225Y492861D01*
X739231Y492708D01*
X739240Y492555D01*
X739254Y492403D01*
X739271Y492251D01*
X739292Y492100D01*
X739317Y491949D01*
X739346Y491798D01*
X739378Y491649D01*
X739415Y491500D01*
X739455Y491353D01*
X739498Y491206D01*
X739546Y491061D01*
X739597Y490916D01*
X739652Y490774D01*
X739710Y490632D01*
X739772Y490492D01*
X739837Y490354D01*
X739838Y490354D02*
X739864Y490283D01*
X739894Y490214D01*
X739927Y490147D01*
X739963Y490081D01*
X740002Y490017D01*
X740045Y489955D01*
X740091Y489896D01*
X740139Y489838D01*
X740190Y489784D01*
X740244Y489731D01*
X740301Y489682D01*
X740360Y489635D01*
X740421Y489592D01*
X740484Y489551D01*
X740549Y489514D01*
X740616Y489479D01*
X740685Y489449D01*
X740755Y489421D01*
X740826Y489398D01*
X740898Y489377D01*
X740971Y489361D01*
X741045Y489348D01*
X741120Y489338D01*
X741195Y489333D01*
X741270Y489331D01*
X742701Y490354D02*
X742766Y490492D01*
X742828Y490632D01*
X742886Y490774D01*
X742941Y490917D01*
X742992Y491061D01*
X743040Y491206D01*
X743083Y491353D01*
X743123Y491501D01*
X743160Y491649D01*
X743192Y491799D01*
X743221Y491949D01*
X743246Y492100D01*
X743267Y492251D01*
X743284Y492403D01*
X743298Y492556D01*
X743307Y492708D01*
X743313Y492861D01*
X743315Y493014D01*
X742702Y490354D02*
X742676Y490284D01*
X742646Y490214D01*
X742614Y490147D01*
X742577Y490081D01*
X742538Y490017D01*
X742495Y489955D01*
X742449Y489896D01*
X742401Y489838D01*
X742350Y489784D01*
X742296Y489731D01*
X742239Y489682D01*
X742180Y489635D01*
X742119Y489592D01*
X742056Y489551D01*
X741991Y489514D01*
X741924Y489479D01*
X741855Y489449D01*
X741785Y489421D01*
X741714Y489398D01*
X741642Y489377D01*
X741569Y489361D01*
X741495Y489348D01*
X741420Y489338D01*
X741345Y489333D01*
X741270Y489331D01*
X739633Y490968D02*
X742906Y495060D01*
X746186Y489740D02*
X746186Y489331D01*
X746186Y489740D02*
X746595Y489740D01*
X746595Y489331D01*
X746186Y489331D01*
X749465Y493014D02*
X749467Y493167D01*
X749473Y493320D01*
X749482Y493472D01*
X749496Y493625D01*
X749513Y493777D01*
X749534Y493928D01*
X749559Y494079D01*
X749588Y494229D01*
X749620Y494379D01*
X749657Y494527D01*
X749697Y494675D01*
X749740Y494822D01*
X749788Y494967D01*
X749839Y495111D01*
X749893Y495254D01*
X749952Y495396D01*
X750013Y495535D01*
X750079Y495674D01*
X750105Y495744D01*
X750135Y495814D01*
X750168Y495881D01*
X750204Y495947D01*
X750243Y496011D01*
X750286Y496073D01*
X750332Y496132D01*
X750380Y496190D01*
X750431Y496244D01*
X750485Y496297D01*
X750542Y496346D01*
X750601Y496393D01*
X750662Y496436D01*
X750725Y496477D01*
X750790Y496514D01*
X750857Y496549D01*
X750926Y496579D01*
X750996Y496607D01*
X751067Y496630D01*
X751139Y496651D01*
X751212Y496667D01*
X751286Y496680D01*
X751361Y496690D01*
X751436Y496695D01*
X751511Y496697D01*
X751586Y496695D01*
X751661Y496690D01*
X751736Y496680D01*
X751810Y496667D01*
X751883Y496651D01*
X751955Y496630D01*
X752026Y496607D01*
X752096Y496579D01*
X752165Y496549D01*
X752232Y496514D01*
X752297Y496477D01*
X752360Y496436D01*
X752421Y496393D01*
X752480Y496346D01*
X752537Y496297D01*
X752591Y496244D01*
X752642Y496190D01*
X752691Y496132D01*
X752736Y496073D01*
X752779Y496011D01*
X752818Y495947D01*
X752855Y495881D01*
X752887Y495813D01*
X752917Y495744D01*
X752943Y495674D01*
X753008Y495536D01*
X753070Y495396D01*
X753128Y495254D01*
X753183Y495111D01*
X753234Y494967D01*
X753282Y494822D01*
X753325Y494675D01*
X753365Y494528D01*
X753402Y494379D01*
X753434Y494229D01*
X753463Y494079D01*
X753488Y493928D01*
X753509Y493777D01*
X753526Y493625D01*
X753540Y493472D01*
X753549Y493320D01*
X753555Y493167D01*
X753557Y493014D01*
X749464Y493014D02*
X749466Y492861D01*
X749472Y492708D01*
X749481Y492555D01*
X749495Y492403D01*
X749512Y492251D01*
X749533Y492100D01*
X749558Y491949D01*
X749587Y491798D01*
X749619Y491649D01*
X749656Y491500D01*
X749696Y491353D01*
X749739Y491206D01*
X749787Y491061D01*
X749838Y490916D01*
X749893Y490774D01*
X749951Y490632D01*
X750013Y490492D01*
X750078Y490354D01*
X750079Y490354D02*
X750105Y490283D01*
X750135Y490214D01*
X750168Y490147D01*
X750204Y490081D01*
X750243Y490017D01*
X750286Y489955D01*
X750332Y489896D01*
X750380Y489838D01*
X750431Y489784D01*
X750485Y489731D01*
X750542Y489682D01*
X750601Y489635D01*
X750662Y489592D01*
X750725Y489551D01*
X750790Y489514D01*
X750857Y489479D01*
X750926Y489449D01*
X750996Y489421D01*
X751067Y489398D01*
X751139Y489377D01*
X751212Y489361D01*
X751286Y489348D01*
X751361Y489338D01*
X751436Y489333D01*
X751511Y489331D01*
X752943Y490354D02*
X753008Y490492D01*
X753070Y490632D01*
X753128Y490774D01*
X753183Y490917D01*
X753234Y491061D01*
X753282Y491206D01*
X753325Y491353D01*
X753365Y491501D01*
X753402Y491649D01*
X753434Y491799D01*
X753463Y491949D01*
X753488Y492100D01*
X753509Y492251D01*
X753526Y492403D01*
X753540Y492556D01*
X753549Y492708D01*
X753555Y492861D01*
X753557Y493014D01*
X752943Y490354D02*
X752917Y490284D01*
X752887Y490214D01*
X752855Y490147D01*
X752818Y490081D01*
X752779Y490017D01*
X752736Y489955D01*
X752690Y489896D01*
X752642Y489838D01*
X752591Y489784D01*
X752537Y489731D01*
X752480Y489682D01*
X752421Y489635D01*
X752360Y489592D01*
X752297Y489551D01*
X752232Y489514D01*
X752165Y489479D01*
X752096Y489449D01*
X752026Y489421D01*
X751955Y489398D01*
X751883Y489377D01*
X751810Y489361D01*
X751736Y489348D01*
X751661Y489338D01*
X751586Y489333D01*
X751511Y489331D01*
X749874Y490968D02*
X753148Y495060D01*
X756427Y489740D02*
X756427Y489331D01*
X756427Y489740D02*
X756836Y489740D01*
X756836Y489331D01*
X756427Y489331D01*
X759706Y493014D02*
X759708Y493167D01*
X759714Y493320D01*
X759723Y493472D01*
X759737Y493625D01*
X759754Y493777D01*
X759775Y493928D01*
X759800Y494079D01*
X759829Y494229D01*
X759861Y494379D01*
X759898Y494527D01*
X759938Y494675D01*
X759981Y494822D01*
X760029Y494967D01*
X760080Y495111D01*
X760134Y495254D01*
X760193Y495396D01*
X760254Y495535D01*
X760320Y495674D01*
X760346Y495744D01*
X760376Y495814D01*
X760409Y495881D01*
X760445Y495947D01*
X760484Y496011D01*
X760527Y496073D01*
X760573Y496132D01*
X760621Y496190D01*
X760672Y496244D01*
X760726Y496297D01*
X760783Y496346D01*
X760842Y496393D01*
X760903Y496436D01*
X760966Y496477D01*
X761031Y496514D01*
X761098Y496549D01*
X761167Y496579D01*
X761237Y496607D01*
X761308Y496630D01*
X761380Y496651D01*
X761453Y496667D01*
X761527Y496680D01*
X761602Y496690D01*
X761677Y496695D01*
X761752Y496697D01*
X761827Y496695D01*
X761902Y496690D01*
X761977Y496680D01*
X762051Y496667D01*
X762124Y496651D01*
X762196Y496630D01*
X762267Y496607D01*
X762337Y496579D01*
X762406Y496549D01*
X762473Y496514D01*
X762538Y496477D01*
X762601Y496436D01*
X762662Y496393D01*
X762721Y496346D01*
X762778Y496297D01*
X762832Y496244D01*
X762883Y496190D01*
X762932Y496132D01*
X762977Y496073D01*
X763020Y496011D01*
X763059Y495947D01*
X763096Y495881D01*
X763128Y495813D01*
X763158Y495744D01*
X763184Y495674D01*
X763249Y495536D01*
X763311Y495396D01*
X763369Y495254D01*
X763424Y495111D01*
X763475Y494967D01*
X763523Y494822D01*
X763566Y494675D01*
X763606Y494528D01*
X763643Y494379D01*
X763675Y494229D01*
X763704Y494079D01*
X763729Y493928D01*
X763750Y493777D01*
X763767Y493625D01*
X763781Y493472D01*
X763790Y493320D01*
X763796Y493167D01*
X763798Y493014D01*
X759705Y493014D02*
X759707Y492861D01*
X759713Y492708D01*
X759722Y492555D01*
X759736Y492403D01*
X759753Y492251D01*
X759774Y492100D01*
X759799Y491949D01*
X759828Y491798D01*
X759860Y491649D01*
X759897Y491500D01*
X759937Y491353D01*
X759980Y491206D01*
X760028Y491061D01*
X760079Y490916D01*
X760134Y490774D01*
X760192Y490632D01*
X760254Y490492D01*
X760319Y490354D01*
X760320Y490354D02*
X760346Y490283D01*
X760376Y490214D01*
X760409Y490147D01*
X760445Y490081D01*
X760484Y490017D01*
X760527Y489955D01*
X760573Y489896D01*
X760621Y489838D01*
X760672Y489784D01*
X760726Y489731D01*
X760783Y489682D01*
X760842Y489635D01*
X760903Y489592D01*
X760966Y489551D01*
X761031Y489514D01*
X761098Y489479D01*
X761167Y489449D01*
X761237Y489421D01*
X761308Y489398D01*
X761380Y489377D01*
X761453Y489361D01*
X761527Y489348D01*
X761602Y489338D01*
X761677Y489333D01*
X761752Y489331D01*
X763184Y490354D02*
X763249Y490492D01*
X763311Y490632D01*
X763369Y490774D01*
X763424Y490917D01*
X763475Y491061D01*
X763523Y491206D01*
X763566Y491353D01*
X763606Y491501D01*
X763643Y491649D01*
X763675Y491799D01*
X763704Y491949D01*
X763729Y492100D01*
X763750Y492251D01*
X763767Y492403D01*
X763781Y492556D01*
X763790Y492708D01*
X763796Y492861D01*
X763798Y493014D01*
X763184Y490354D02*
X763158Y490284D01*
X763128Y490214D01*
X763096Y490147D01*
X763059Y490081D01*
X763020Y490017D01*
X762977Y489955D01*
X762931Y489896D01*
X762883Y489838D01*
X762832Y489784D01*
X762778Y489731D01*
X762721Y489682D01*
X762662Y489635D01*
X762601Y489592D01*
X762538Y489551D01*
X762473Y489514D01*
X762406Y489479D01*
X762337Y489449D01*
X762267Y489421D01*
X762196Y489398D01*
X762124Y489377D01*
X762051Y489361D01*
X761977Y489348D01*
X761902Y489338D01*
X761827Y489333D01*
X761752Y489331D01*
X760115Y490968D02*
X763389Y495060D01*
D12*
X494030Y203200D02*
X483870Y203200D01*
D10*
X503147Y191922D02*
X504615Y191922D01*
X503147Y191922D02*
X503073Y191924D01*
X502998Y191930D01*
X502925Y191939D01*
X502851Y191952D01*
X502779Y191969D01*
X502708Y191989D01*
X502637Y192013D01*
X502568Y192041D01*
X502501Y192072D01*
X502435Y192106D01*
X502370Y192144D01*
X502308Y192185D01*
X502248Y192229D01*
X502191Y192276D01*
X502136Y192326D01*
X502083Y192379D01*
X502033Y192434D01*
X501986Y192491D01*
X501942Y192551D01*
X501901Y192613D01*
X501863Y192678D01*
X501829Y192744D01*
X501798Y192811D01*
X501770Y192880D01*
X501746Y192951D01*
X501726Y193022D01*
X501709Y193094D01*
X501696Y193168D01*
X501687Y193241D01*
X501681Y193316D01*
X501679Y193390D01*
X501679Y197059D01*
X501681Y197133D01*
X501687Y197208D01*
X501696Y197281D01*
X501709Y197355D01*
X501726Y197427D01*
X501746Y197498D01*
X501770Y197569D01*
X501798Y197638D01*
X501829Y197705D01*
X501863Y197771D01*
X501901Y197836D01*
X501942Y197898D01*
X501986Y197958D01*
X502033Y198015D01*
X502083Y198070D01*
X502136Y198123D01*
X502191Y198173D01*
X502248Y198220D01*
X502308Y198264D01*
X502370Y198305D01*
X502435Y198343D01*
X502500Y198377D01*
X502568Y198408D01*
X502637Y198436D01*
X502708Y198460D01*
X502779Y198480D01*
X502851Y198497D01*
X502925Y198510D01*
X502998Y198519D01*
X503073Y198525D01*
X503147Y198527D01*
X503147Y198526D02*
X504615Y198526D01*
X507811Y197059D02*
X509645Y198526D01*
X509645Y191922D01*
X507811Y191922D02*
X511480Y191922D01*
D12*
X50800Y464820D02*
X50800Y474980D01*
D10*
X51322Y448437D02*
X49855Y448437D01*
X49781Y448439D01*
X49706Y448445D01*
X49633Y448454D01*
X49559Y448467D01*
X49487Y448484D01*
X49416Y448504D01*
X49345Y448528D01*
X49276Y448556D01*
X49209Y448587D01*
X49143Y448621D01*
X49078Y448659D01*
X49016Y448700D01*
X48956Y448744D01*
X48899Y448791D01*
X48844Y448841D01*
X48791Y448894D01*
X48741Y448949D01*
X48694Y449006D01*
X48650Y449066D01*
X48609Y449128D01*
X48571Y449193D01*
X48537Y449259D01*
X48506Y449326D01*
X48478Y449395D01*
X48454Y449466D01*
X48434Y449537D01*
X48417Y449609D01*
X48404Y449683D01*
X48395Y449756D01*
X48389Y449831D01*
X48387Y449905D01*
X48387Y453573D01*
X48389Y453647D01*
X48395Y453722D01*
X48404Y453795D01*
X48417Y453869D01*
X48434Y453941D01*
X48454Y454012D01*
X48478Y454083D01*
X48506Y454152D01*
X48537Y454219D01*
X48571Y454285D01*
X48609Y454350D01*
X48650Y454412D01*
X48694Y454472D01*
X48741Y454529D01*
X48791Y454584D01*
X48844Y454637D01*
X48899Y454687D01*
X48956Y454734D01*
X49016Y454778D01*
X49078Y454819D01*
X49143Y454857D01*
X49208Y454891D01*
X49276Y454922D01*
X49345Y454950D01*
X49416Y454974D01*
X49487Y454994D01*
X49559Y455011D01*
X49633Y455024D01*
X49706Y455033D01*
X49781Y455039D01*
X49855Y455041D01*
X51322Y455041D01*
X56536Y455041D02*
X56615Y455039D01*
X56693Y455034D01*
X56771Y455024D01*
X56848Y455011D01*
X56925Y454994D01*
X57001Y454974D01*
X57076Y454950D01*
X57150Y454923D01*
X57222Y454892D01*
X57293Y454857D01*
X57362Y454820D01*
X57429Y454779D01*
X57494Y454735D01*
X57557Y454688D01*
X57617Y454638D01*
X57675Y454585D01*
X57731Y454529D01*
X57784Y454471D01*
X57834Y454411D01*
X57881Y454348D01*
X57925Y454283D01*
X57966Y454216D01*
X58003Y454147D01*
X58038Y454076D01*
X58069Y454004D01*
X58096Y453930D01*
X58120Y453855D01*
X58140Y453779D01*
X58157Y453702D01*
X58170Y453625D01*
X58180Y453547D01*
X58185Y453469D01*
X58187Y453390D01*
X56536Y455041D02*
X56447Y455039D01*
X56358Y455034D01*
X56270Y455024D01*
X56182Y455011D01*
X56095Y454995D01*
X56008Y454974D01*
X55923Y454950D01*
X55838Y454923D01*
X55755Y454892D01*
X55673Y454857D01*
X55592Y454819D01*
X55513Y454778D01*
X55437Y454734D01*
X55361Y454686D01*
X55288Y454635D01*
X55218Y454582D01*
X55149Y454525D01*
X55083Y454465D01*
X55020Y454403D01*
X54959Y454338D01*
X54901Y454271D01*
X54846Y454201D01*
X54793Y454129D01*
X54744Y454055D01*
X54698Y453979D01*
X54656Y453901D01*
X54616Y453821D01*
X54580Y453740D01*
X54547Y453657D01*
X54518Y453573D01*
X57637Y452106D02*
X57693Y452162D01*
X57747Y452221D01*
X57798Y452282D01*
X57847Y452346D01*
X57892Y452411D01*
X57935Y452479D01*
X57974Y452548D01*
X58011Y452619D01*
X58044Y452692D01*
X58073Y452766D01*
X58100Y452841D01*
X58123Y452917D01*
X58142Y452995D01*
X58158Y453073D01*
X58171Y453151D01*
X58180Y453231D01*
X58185Y453310D01*
X58187Y453390D01*
X57637Y452106D02*
X54519Y448437D01*
X58187Y448437D01*
D13*
X95250Y668020D02*
X95250Y678180D01*
D10*
X67303Y667004D02*
X65835Y667004D01*
X65761Y667006D01*
X65686Y667012D01*
X65613Y667021D01*
X65539Y667034D01*
X65467Y667051D01*
X65396Y667071D01*
X65325Y667095D01*
X65256Y667123D01*
X65189Y667154D01*
X65123Y667188D01*
X65058Y667226D01*
X64996Y667267D01*
X64936Y667311D01*
X64879Y667358D01*
X64824Y667408D01*
X64771Y667461D01*
X64721Y667516D01*
X64674Y667573D01*
X64630Y667633D01*
X64589Y667695D01*
X64551Y667760D01*
X64517Y667826D01*
X64486Y667893D01*
X64458Y667962D01*
X64434Y668033D01*
X64414Y668104D01*
X64397Y668176D01*
X64384Y668250D01*
X64375Y668323D01*
X64369Y668398D01*
X64367Y668472D01*
X64368Y668472D02*
X64368Y672140D01*
X64367Y672140D02*
X64369Y672214D01*
X64375Y672289D01*
X64384Y672362D01*
X64397Y672436D01*
X64414Y672508D01*
X64434Y672579D01*
X64458Y672650D01*
X64486Y672719D01*
X64517Y672786D01*
X64551Y672852D01*
X64589Y672917D01*
X64630Y672979D01*
X64674Y673039D01*
X64721Y673096D01*
X64771Y673151D01*
X64824Y673204D01*
X64879Y673254D01*
X64936Y673301D01*
X64996Y673345D01*
X65058Y673386D01*
X65123Y673424D01*
X65188Y673458D01*
X65256Y673489D01*
X65325Y673517D01*
X65396Y673541D01*
X65467Y673561D01*
X65539Y673578D01*
X65613Y673591D01*
X65686Y673600D01*
X65761Y673606D01*
X65835Y673608D01*
X67303Y673608D01*
X70499Y667004D02*
X72334Y667004D01*
X72419Y667006D01*
X72503Y667012D01*
X72587Y667022D01*
X72671Y667035D01*
X72754Y667053D01*
X72836Y667074D01*
X72917Y667099D01*
X72997Y667128D01*
X73075Y667160D01*
X73151Y667196D01*
X73226Y667236D01*
X73299Y667279D01*
X73370Y667325D01*
X73439Y667374D01*
X73506Y667427D01*
X73570Y667483D01*
X73631Y667541D01*
X73689Y667602D01*
X73745Y667666D01*
X73798Y667733D01*
X73847Y667802D01*
X73893Y667873D01*
X73936Y667946D01*
X73976Y668021D01*
X74012Y668097D01*
X74044Y668175D01*
X74073Y668255D01*
X74098Y668336D01*
X74119Y668418D01*
X74137Y668501D01*
X74150Y668585D01*
X74160Y668669D01*
X74166Y668753D01*
X74168Y668838D01*
X74166Y668923D01*
X74160Y669007D01*
X74150Y669091D01*
X74137Y669175D01*
X74119Y669258D01*
X74098Y669340D01*
X74073Y669421D01*
X74044Y669501D01*
X74012Y669579D01*
X73976Y669655D01*
X73936Y669730D01*
X73893Y669803D01*
X73847Y669874D01*
X73798Y669943D01*
X73745Y670010D01*
X73689Y670074D01*
X73631Y670135D01*
X73570Y670193D01*
X73506Y670249D01*
X73439Y670302D01*
X73370Y670351D01*
X73299Y670397D01*
X73226Y670440D01*
X73151Y670480D01*
X73075Y670516D01*
X72997Y670548D01*
X72917Y670577D01*
X72836Y670602D01*
X72754Y670623D01*
X72671Y670641D01*
X72587Y670654D01*
X72503Y670664D01*
X72419Y670670D01*
X72334Y670672D01*
X72700Y673608D02*
X70499Y673608D01*
X72700Y673608D02*
X72776Y673606D01*
X72851Y673600D01*
X72926Y673591D01*
X73000Y673577D01*
X73074Y673560D01*
X73146Y673538D01*
X73218Y673514D01*
X73288Y673485D01*
X73356Y673453D01*
X73423Y673418D01*
X73488Y673379D01*
X73551Y673336D01*
X73611Y673291D01*
X73669Y673243D01*
X73725Y673191D01*
X73777Y673137D01*
X73827Y673080D01*
X73874Y673021D01*
X73918Y672960D01*
X73959Y672896D01*
X73996Y672830D01*
X74030Y672762D01*
X74060Y672693D01*
X74087Y672622D01*
X74110Y672550D01*
X74129Y672477D01*
X74144Y672403D01*
X74156Y672328D01*
X74164Y672253D01*
X74168Y672178D01*
X74168Y672102D01*
X74164Y672027D01*
X74156Y671952D01*
X74144Y671877D01*
X74129Y671803D01*
X74110Y671730D01*
X74087Y671658D01*
X74060Y671587D01*
X74030Y671518D01*
X73996Y671450D01*
X73959Y671384D01*
X73918Y671320D01*
X73874Y671259D01*
X73827Y671200D01*
X73777Y671143D01*
X73725Y671089D01*
X73669Y671037D01*
X73611Y670989D01*
X73551Y670944D01*
X73488Y670901D01*
X73423Y670862D01*
X73356Y670827D01*
X73288Y670795D01*
X73218Y670766D01*
X73146Y670742D01*
X73074Y670720D01*
X73000Y670703D01*
X72926Y670689D01*
X72851Y670680D01*
X72776Y670674D01*
X72700Y670672D01*
X72700Y670673D02*
X71233Y670673D01*
D13*
X76200Y621030D02*
X76200Y610870D01*
D10*
X99287Y620598D02*
X100755Y620598D01*
X99287Y620598D02*
X99213Y620600D01*
X99138Y620606D01*
X99065Y620615D01*
X98991Y620628D01*
X98919Y620645D01*
X98848Y620665D01*
X98777Y620689D01*
X98708Y620717D01*
X98641Y620748D01*
X98575Y620782D01*
X98510Y620820D01*
X98448Y620861D01*
X98388Y620905D01*
X98331Y620952D01*
X98276Y621002D01*
X98223Y621055D01*
X98173Y621110D01*
X98126Y621167D01*
X98082Y621227D01*
X98041Y621289D01*
X98003Y621354D01*
X97969Y621420D01*
X97938Y621487D01*
X97910Y621556D01*
X97886Y621627D01*
X97866Y621698D01*
X97849Y621770D01*
X97836Y621844D01*
X97827Y621917D01*
X97821Y621992D01*
X97819Y622066D01*
X97819Y625735D01*
X97821Y625809D01*
X97827Y625884D01*
X97836Y625957D01*
X97849Y626031D01*
X97866Y626103D01*
X97886Y626174D01*
X97910Y626245D01*
X97938Y626314D01*
X97969Y626381D01*
X98003Y626447D01*
X98041Y626512D01*
X98082Y626574D01*
X98126Y626634D01*
X98173Y626691D01*
X98223Y626746D01*
X98276Y626799D01*
X98331Y626849D01*
X98388Y626896D01*
X98448Y626940D01*
X98510Y626981D01*
X98575Y627019D01*
X98640Y627053D01*
X98708Y627084D01*
X98777Y627112D01*
X98848Y627136D01*
X98919Y627156D01*
X98991Y627173D01*
X99065Y627186D01*
X99138Y627195D01*
X99213Y627201D01*
X99287Y627203D01*
X99287Y627202D02*
X100755Y627202D01*
X105418Y627202D02*
X103951Y622066D01*
X107620Y622066D01*
X106519Y623533D02*
X106519Y620598D01*
D12*
X115090Y631700D02*
X115090Y659160D01*
X115090Y631700D02*
X37040Y631700D01*
X37040Y633760D01*
X37040Y663700D01*
X115090Y663700D01*
X115090Y659160D01*
X73660Y655320D02*
X73660Y640080D01*
X81280Y647700D02*
X73660Y655320D01*
X81280Y647700D02*
X73660Y640080D01*
X81280Y640080D02*
X81280Y647700D01*
X81280Y655320D01*
D10*
X19760Y653034D02*
X19760Y659638D01*
X21595Y659638D01*
X21680Y659636D01*
X21764Y659630D01*
X21848Y659620D01*
X21932Y659607D01*
X22015Y659589D01*
X22097Y659568D01*
X22178Y659543D01*
X22258Y659514D01*
X22336Y659482D01*
X22412Y659446D01*
X22487Y659406D01*
X22560Y659363D01*
X22631Y659317D01*
X22700Y659268D01*
X22767Y659215D01*
X22831Y659159D01*
X22892Y659101D01*
X22950Y659040D01*
X23006Y658976D01*
X23059Y658909D01*
X23108Y658840D01*
X23154Y658769D01*
X23197Y658696D01*
X23237Y658621D01*
X23273Y658545D01*
X23305Y658467D01*
X23334Y658387D01*
X23359Y658306D01*
X23380Y658224D01*
X23398Y658141D01*
X23411Y658057D01*
X23421Y657973D01*
X23427Y657889D01*
X23429Y657804D01*
X23429Y654868D01*
X23427Y654783D01*
X23421Y654699D01*
X23411Y654615D01*
X23398Y654531D01*
X23380Y654448D01*
X23359Y654366D01*
X23334Y654285D01*
X23305Y654205D01*
X23273Y654127D01*
X23237Y654051D01*
X23197Y653976D01*
X23154Y653903D01*
X23108Y653832D01*
X23059Y653763D01*
X23006Y653696D01*
X22950Y653632D01*
X22892Y653571D01*
X22831Y653513D01*
X22767Y653457D01*
X22700Y653404D01*
X22631Y653355D01*
X22560Y653309D01*
X22487Y653266D01*
X22412Y653226D01*
X22336Y653190D01*
X22258Y653158D01*
X22178Y653129D01*
X22097Y653104D01*
X22015Y653083D01*
X21932Y653065D01*
X21848Y653052D01*
X21764Y653042D01*
X21680Y653036D01*
X21595Y653034D01*
X19760Y653034D01*
X27319Y658170D02*
X29154Y659638D01*
X29154Y653034D01*
X30988Y653034D02*
X27319Y653034D01*
D12*
X114950Y599280D02*
X114950Y581820D01*
X100950Y581820D02*
X100950Y599280D01*
X107950Y593550D02*
X111950Y587550D01*
X103950Y587550D01*
X107950Y593550D01*
D14*
X107950Y594550D03*
D10*
X116637Y564312D02*
X116637Y557708D01*
X116637Y564312D02*
X118471Y564312D01*
X118471Y564311D02*
X118556Y564309D01*
X118640Y564303D01*
X118724Y564293D01*
X118808Y564280D01*
X118891Y564262D01*
X118973Y564241D01*
X119054Y564216D01*
X119134Y564187D01*
X119212Y564155D01*
X119288Y564119D01*
X119363Y564079D01*
X119436Y564036D01*
X119507Y563990D01*
X119576Y563941D01*
X119643Y563888D01*
X119707Y563832D01*
X119768Y563774D01*
X119826Y563713D01*
X119882Y563649D01*
X119935Y563582D01*
X119984Y563513D01*
X120030Y563442D01*
X120073Y563369D01*
X120113Y563294D01*
X120149Y563218D01*
X120181Y563140D01*
X120210Y563060D01*
X120235Y562979D01*
X120256Y562897D01*
X120274Y562814D01*
X120287Y562730D01*
X120297Y562646D01*
X120303Y562562D01*
X120305Y562477D01*
X120306Y562477D02*
X120306Y559542D01*
X120305Y559542D02*
X120303Y559457D01*
X120297Y559373D01*
X120287Y559289D01*
X120274Y559205D01*
X120256Y559122D01*
X120235Y559040D01*
X120210Y558959D01*
X120181Y558879D01*
X120149Y558801D01*
X120113Y558725D01*
X120073Y558650D01*
X120030Y558577D01*
X119984Y558506D01*
X119935Y558437D01*
X119882Y558370D01*
X119826Y558306D01*
X119768Y558245D01*
X119707Y558187D01*
X119643Y558131D01*
X119576Y558078D01*
X119507Y558029D01*
X119436Y557983D01*
X119363Y557940D01*
X119288Y557900D01*
X119212Y557864D01*
X119134Y557832D01*
X119054Y557803D01*
X118973Y557778D01*
X118891Y557757D01*
X118808Y557739D01*
X118724Y557726D01*
X118640Y557716D01*
X118556Y557710D01*
X118471Y557708D01*
X116637Y557708D01*
X126214Y564312D02*
X126293Y564310D01*
X126371Y564305D01*
X126449Y564295D01*
X126526Y564282D01*
X126603Y564265D01*
X126679Y564245D01*
X126754Y564221D01*
X126828Y564194D01*
X126900Y564163D01*
X126971Y564128D01*
X127040Y564091D01*
X127107Y564050D01*
X127172Y564006D01*
X127235Y563959D01*
X127295Y563909D01*
X127353Y563856D01*
X127409Y563800D01*
X127462Y563742D01*
X127512Y563682D01*
X127559Y563619D01*
X127603Y563554D01*
X127644Y563487D01*
X127681Y563418D01*
X127716Y563347D01*
X127747Y563275D01*
X127774Y563201D01*
X127798Y563126D01*
X127818Y563050D01*
X127835Y562973D01*
X127848Y562896D01*
X127858Y562818D01*
X127863Y562740D01*
X127865Y562661D01*
X126214Y564312D02*
X126125Y564310D01*
X126036Y564305D01*
X125948Y564295D01*
X125860Y564282D01*
X125773Y564266D01*
X125686Y564245D01*
X125601Y564221D01*
X125516Y564194D01*
X125433Y564163D01*
X125351Y564128D01*
X125270Y564090D01*
X125191Y564049D01*
X125115Y564005D01*
X125039Y563957D01*
X124966Y563906D01*
X124896Y563853D01*
X124827Y563796D01*
X124761Y563736D01*
X124698Y563674D01*
X124637Y563609D01*
X124579Y563542D01*
X124524Y563472D01*
X124471Y563400D01*
X124422Y563326D01*
X124376Y563250D01*
X124334Y563172D01*
X124294Y563092D01*
X124258Y563011D01*
X124225Y562928D01*
X124196Y562844D01*
X127314Y561377D02*
X127370Y561433D01*
X127424Y561492D01*
X127475Y561553D01*
X127524Y561617D01*
X127569Y561682D01*
X127612Y561750D01*
X127651Y561819D01*
X127688Y561890D01*
X127721Y561963D01*
X127750Y562037D01*
X127777Y562112D01*
X127800Y562188D01*
X127819Y562266D01*
X127835Y562344D01*
X127848Y562422D01*
X127857Y562502D01*
X127862Y562581D01*
X127864Y562661D01*
X127314Y561377D02*
X124196Y557708D01*
X127865Y557708D01*
D12*
X460100Y658650D02*
X460100Y663650D01*
X459100Y664650D01*
X202100Y664650D01*
X201100Y663650D01*
X201100Y658650D01*
X460100Y658650D01*
X451100Y642650D02*
X210100Y642650D01*
X445600Y643650D02*
X445600Y657650D01*
X215600Y657650D02*
X215600Y643650D01*
D15*
X431100Y659650D02*
X431100Y663650D01*
X428600Y661150D01*
X428600Y659650D01*
X233600Y659650D02*
X233600Y661150D01*
X231100Y663650D01*
X231100Y659650D01*
D12*
X437100Y641150D02*
X437100Y618650D01*
X437098Y618596D01*
X437092Y618543D01*
X437083Y618491D01*
X437070Y618439D01*
X437053Y618388D01*
X437032Y618338D01*
X437008Y618291D01*
X436981Y618245D01*
X436950Y618201D01*
X436917Y618159D01*
X436880Y618120D01*
X436841Y618083D01*
X436799Y618050D01*
X436755Y618019D01*
X436709Y617992D01*
X436662Y617968D01*
X436612Y617947D01*
X436561Y617930D01*
X436509Y617917D01*
X436457Y617908D01*
X436404Y617902D01*
X436350Y617900D01*
X436296Y617902D01*
X436243Y617908D01*
X436191Y617917D01*
X436139Y617930D01*
X436088Y617947D01*
X436038Y617968D01*
X435991Y617992D01*
X435945Y618019D01*
X435901Y618050D01*
X435859Y618083D01*
X435820Y618120D01*
X435783Y618159D01*
X435750Y618201D01*
X435719Y618245D01*
X435692Y618291D01*
X435668Y618338D01*
X435647Y618388D01*
X435630Y618439D01*
X435617Y618491D01*
X435608Y618543D01*
X435602Y618596D01*
X435600Y618650D01*
X435600Y641150D01*
X225600Y641150D02*
X225600Y618650D01*
X225598Y618596D01*
X225592Y618543D01*
X225583Y618491D01*
X225570Y618439D01*
X225553Y618388D01*
X225532Y618338D01*
X225508Y618291D01*
X225481Y618245D01*
X225450Y618201D01*
X225417Y618159D01*
X225380Y618120D01*
X225341Y618083D01*
X225299Y618050D01*
X225255Y618019D01*
X225209Y617992D01*
X225162Y617968D01*
X225112Y617947D01*
X225061Y617930D01*
X225009Y617917D01*
X224957Y617908D01*
X224904Y617902D01*
X224850Y617900D01*
X224796Y617902D01*
X224743Y617908D01*
X224691Y617917D01*
X224639Y617930D01*
X224588Y617947D01*
X224538Y617968D01*
X224491Y617992D01*
X224445Y618019D01*
X224401Y618050D01*
X224359Y618083D01*
X224320Y618120D01*
X224283Y618159D01*
X224250Y618201D01*
X224219Y618245D01*
X224192Y618291D01*
X224168Y618338D01*
X224147Y618388D01*
X224130Y618439D01*
X224117Y618491D01*
X224108Y618543D01*
X224102Y618596D01*
X224100Y618650D01*
X224100Y641150D01*
D15*
X449128Y595442D02*
X449128Y586354D01*
X449127Y586354D02*
X449125Y586255D01*
X449119Y586155D01*
X449110Y586056D01*
X449097Y585958D01*
X449080Y585860D01*
X449059Y585762D01*
X449034Y585666D01*
X449006Y585571D01*
X448974Y585477D01*
X448939Y585384D01*
X448900Y585292D01*
X448857Y585202D01*
X448812Y585114D01*
X448762Y585027D01*
X448710Y584943D01*
X448654Y584860D01*
X448596Y584780D01*
X448534Y584702D01*
X448469Y584627D01*
X448401Y584554D01*
X448331Y584484D01*
X448258Y584416D01*
X448183Y584351D01*
X448105Y584289D01*
X448025Y584231D01*
X447942Y584175D01*
X447858Y584123D01*
X447771Y584073D01*
X447683Y584028D01*
X447593Y583985D01*
X447501Y583946D01*
X447408Y583911D01*
X447314Y583879D01*
X447219Y583851D01*
X447123Y583826D01*
X447025Y583805D01*
X446927Y583788D01*
X446829Y583775D01*
X446730Y583766D01*
X446630Y583760D01*
X446531Y583758D01*
X445233Y583758D01*
X454401Y583758D02*
X458296Y583758D01*
X458395Y583760D01*
X458495Y583766D01*
X458594Y583775D01*
X458692Y583788D01*
X458790Y583805D01*
X458888Y583826D01*
X458984Y583851D01*
X459079Y583879D01*
X459173Y583911D01*
X459266Y583946D01*
X459358Y583985D01*
X459448Y584028D01*
X459536Y584073D01*
X459623Y584123D01*
X459707Y584175D01*
X459790Y584231D01*
X459870Y584289D01*
X459948Y584351D01*
X460023Y584416D01*
X460096Y584484D01*
X460166Y584554D01*
X460234Y584627D01*
X460299Y584702D01*
X460361Y584780D01*
X460419Y584860D01*
X460475Y584943D01*
X460527Y585027D01*
X460577Y585114D01*
X460622Y585202D01*
X460665Y585292D01*
X460704Y585384D01*
X460739Y585477D01*
X460771Y585571D01*
X460799Y585666D01*
X460824Y585762D01*
X460845Y585860D01*
X460862Y585958D01*
X460875Y586056D01*
X460884Y586155D01*
X460890Y586255D01*
X460892Y586354D01*
X460892Y587653D01*
X460890Y587752D01*
X460884Y587852D01*
X460875Y587951D01*
X460862Y588049D01*
X460845Y588147D01*
X460824Y588245D01*
X460799Y588341D01*
X460771Y588436D01*
X460739Y588530D01*
X460704Y588623D01*
X460665Y588715D01*
X460622Y588805D01*
X460577Y588893D01*
X460527Y588980D01*
X460475Y589064D01*
X460419Y589147D01*
X460361Y589227D01*
X460299Y589305D01*
X460234Y589380D01*
X460166Y589453D01*
X460096Y589523D01*
X460023Y589591D01*
X459948Y589656D01*
X459870Y589718D01*
X459790Y589776D01*
X459707Y589832D01*
X459623Y589884D01*
X459536Y589934D01*
X459448Y589979D01*
X459358Y590022D01*
X459266Y590061D01*
X459173Y590096D01*
X459079Y590128D01*
X458984Y590156D01*
X458888Y590181D01*
X458790Y590202D01*
X458692Y590219D01*
X458594Y590232D01*
X458495Y590241D01*
X458395Y590247D01*
X458296Y590249D01*
X454401Y590249D01*
X454401Y595442D01*
X460892Y595442D01*
D12*
X644550Y495250D02*
X647550Y495250D01*
X644550Y495250D02*
X644550Y498250D01*
X647550Y498250D01*
X647550Y505250D01*
X553550Y505250D02*
X553550Y498250D01*
X556550Y498250D01*
X556550Y495250D01*
X553550Y495250D01*
X556550Y495250D02*
X644550Y495250D01*
X647550Y505250D02*
X553550Y505250D01*
X647550Y461250D02*
X647550Y451250D01*
X630550Y451250D01*
X553550Y451250D02*
X553550Y461250D01*
X553550Y451250D02*
X570550Y451250D01*
X647550Y491250D02*
X647550Y495250D01*
X553550Y495250D02*
X553550Y491250D01*
D15*
X528654Y495554D02*
X528654Y504642D01*
X528653Y495554D02*
X528651Y495455D01*
X528645Y495355D01*
X528636Y495256D01*
X528623Y495158D01*
X528606Y495060D01*
X528585Y494962D01*
X528560Y494866D01*
X528532Y494771D01*
X528500Y494677D01*
X528465Y494584D01*
X528426Y494492D01*
X528383Y494402D01*
X528338Y494314D01*
X528288Y494227D01*
X528236Y494143D01*
X528180Y494060D01*
X528122Y493980D01*
X528060Y493902D01*
X527995Y493827D01*
X527927Y493754D01*
X527857Y493684D01*
X527784Y493616D01*
X527709Y493551D01*
X527631Y493489D01*
X527551Y493431D01*
X527468Y493375D01*
X527384Y493323D01*
X527297Y493273D01*
X527209Y493228D01*
X527119Y493185D01*
X527027Y493146D01*
X526934Y493111D01*
X526840Y493079D01*
X526745Y493051D01*
X526649Y493026D01*
X526551Y493005D01*
X526453Y492988D01*
X526355Y492975D01*
X526256Y492966D01*
X526156Y492960D01*
X526057Y492958D01*
X524759Y492958D01*
X533927Y499449D02*
X537822Y499449D01*
X537921Y499447D01*
X538021Y499441D01*
X538120Y499432D01*
X538218Y499419D01*
X538316Y499402D01*
X538414Y499381D01*
X538510Y499356D01*
X538605Y499328D01*
X538699Y499296D01*
X538792Y499261D01*
X538884Y499222D01*
X538974Y499179D01*
X539062Y499134D01*
X539149Y499084D01*
X539233Y499032D01*
X539316Y498976D01*
X539396Y498918D01*
X539474Y498856D01*
X539549Y498791D01*
X539622Y498723D01*
X539692Y498653D01*
X539760Y498580D01*
X539825Y498505D01*
X539887Y498427D01*
X539945Y498347D01*
X540001Y498264D01*
X540053Y498180D01*
X540103Y498093D01*
X540148Y498005D01*
X540191Y497915D01*
X540230Y497823D01*
X540265Y497730D01*
X540297Y497636D01*
X540325Y497541D01*
X540350Y497445D01*
X540371Y497347D01*
X540388Y497249D01*
X540401Y497151D01*
X540410Y497052D01*
X540416Y496952D01*
X540418Y496853D01*
X540418Y496204D01*
X540416Y496091D01*
X540410Y495978D01*
X540400Y495865D01*
X540386Y495752D01*
X540369Y495640D01*
X540347Y495529D01*
X540322Y495419D01*
X540292Y495309D01*
X540259Y495201D01*
X540222Y495094D01*
X540182Y494988D01*
X540137Y494884D01*
X540089Y494781D01*
X540038Y494680D01*
X539983Y494581D01*
X539925Y494484D01*
X539863Y494389D01*
X539798Y494296D01*
X539730Y494206D01*
X539659Y494118D01*
X539584Y494032D01*
X539507Y493949D01*
X539427Y493869D01*
X539344Y493792D01*
X539258Y493717D01*
X539170Y493646D01*
X539080Y493578D01*
X538987Y493513D01*
X538892Y493451D01*
X538795Y493393D01*
X538696Y493338D01*
X538595Y493287D01*
X538492Y493239D01*
X538388Y493194D01*
X538282Y493154D01*
X538175Y493117D01*
X538067Y493084D01*
X537957Y493054D01*
X537847Y493029D01*
X537736Y493007D01*
X537624Y492990D01*
X537511Y492976D01*
X537398Y492966D01*
X537285Y492960D01*
X537172Y492958D01*
X537059Y492960D01*
X536946Y492966D01*
X536833Y492976D01*
X536720Y492990D01*
X536608Y493007D01*
X536497Y493029D01*
X536387Y493054D01*
X536277Y493084D01*
X536169Y493117D01*
X536062Y493154D01*
X535956Y493194D01*
X535852Y493239D01*
X535749Y493287D01*
X535648Y493338D01*
X535549Y493393D01*
X535452Y493451D01*
X535357Y493513D01*
X535264Y493578D01*
X535174Y493646D01*
X535086Y493717D01*
X535000Y493792D01*
X534917Y493869D01*
X534837Y493949D01*
X534760Y494032D01*
X534685Y494118D01*
X534614Y494206D01*
X534546Y494296D01*
X534481Y494389D01*
X534419Y494484D01*
X534361Y494581D01*
X534306Y494680D01*
X534255Y494781D01*
X534207Y494884D01*
X534162Y494988D01*
X534122Y495094D01*
X534085Y495201D01*
X534052Y495309D01*
X534022Y495419D01*
X533997Y495529D01*
X533975Y495640D01*
X533958Y495752D01*
X533944Y495865D01*
X533934Y495978D01*
X533928Y496091D01*
X533926Y496204D01*
X533927Y496204D02*
X533927Y499449D01*
X533929Y499592D01*
X533935Y499735D01*
X533945Y499878D01*
X533959Y500020D01*
X533976Y500162D01*
X533998Y500304D01*
X534023Y500445D01*
X534053Y500585D01*
X534086Y500724D01*
X534123Y500862D01*
X534164Y500999D01*
X534208Y501135D01*
X534257Y501270D01*
X534309Y501403D01*
X534364Y501535D01*
X534424Y501665D01*
X534487Y501794D01*
X534553Y501921D01*
X534623Y502045D01*
X534696Y502168D01*
X534773Y502289D01*
X534853Y502408D01*
X534936Y502524D01*
X535022Y502639D01*
X535111Y502750D01*
X535204Y502860D01*
X535299Y502966D01*
X535398Y503070D01*
X535499Y503171D01*
X535603Y503270D01*
X535709Y503365D01*
X535819Y503458D01*
X535930Y503547D01*
X536045Y503633D01*
X536161Y503716D01*
X536280Y503796D01*
X536401Y503873D01*
X536523Y503946D01*
X536648Y504016D01*
X536775Y504082D01*
X536904Y504145D01*
X537034Y504205D01*
X537166Y504260D01*
X537299Y504312D01*
X537434Y504361D01*
X537570Y504405D01*
X537707Y504446D01*
X537845Y504483D01*
X537984Y504516D01*
X538124Y504546D01*
X538265Y504571D01*
X538407Y504593D01*
X538549Y504610D01*
X538691Y504624D01*
X538834Y504634D01*
X538977Y504640D01*
X539120Y504642D01*
D10*
X152400Y609600D02*
X139700Y609600D01*
X152400Y609600D02*
X158750Y603250D01*
X158750Y590550D01*
X152400Y584200D01*
X133350Y590550D02*
X133350Y603250D01*
X139700Y609600D01*
X133350Y590550D02*
X139700Y584200D01*
X152400Y584200D01*
X158750Y603250D02*
X165100Y609600D01*
X177800Y609600D01*
X184150Y603250D01*
X184150Y590550D01*
X177800Y584200D01*
X165100Y584200D01*
X158750Y590550D01*
D16*
X156083Y618363D02*
X156083Y627253D01*
X156083Y618363D02*
X156081Y618263D01*
X156075Y618164D01*
X156065Y618064D01*
X156052Y617966D01*
X156034Y617867D01*
X156013Y617770D01*
X155988Y617674D01*
X155959Y617578D01*
X155926Y617484D01*
X155890Y617391D01*
X155850Y617300D01*
X155806Y617210D01*
X155759Y617122D01*
X155709Y617036D01*
X155655Y616952D01*
X155598Y616870D01*
X155538Y616791D01*
X155474Y616713D01*
X155408Y616639D01*
X155339Y616567D01*
X155267Y616498D01*
X155193Y616432D01*
X155115Y616368D01*
X155036Y616308D01*
X154954Y616251D01*
X154870Y616197D01*
X154784Y616147D01*
X154696Y616100D01*
X154606Y616056D01*
X154515Y616016D01*
X154422Y615980D01*
X154328Y615947D01*
X154232Y615918D01*
X154136Y615893D01*
X154039Y615872D01*
X153940Y615854D01*
X153842Y615841D01*
X153742Y615831D01*
X153643Y615825D01*
X153543Y615823D01*
X152273Y615823D01*
X162063Y615823D02*
X162063Y627253D01*
X165238Y627253D01*
X165349Y627251D01*
X165459Y627245D01*
X165570Y627236D01*
X165680Y627222D01*
X165789Y627205D01*
X165898Y627184D01*
X166006Y627159D01*
X166113Y627130D01*
X166219Y627098D01*
X166324Y627062D01*
X166427Y627022D01*
X166529Y626979D01*
X166630Y626932D01*
X166729Y626881D01*
X166826Y626828D01*
X166920Y626771D01*
X167013Y626710D01*
X167104Y626647D01*
X167193Y626580D01*
X167279Y626510D01*
X167362Y626437D01*
X167444Y626362D01*
X167522Y626284D01*
X167597Y626202D01*
X167670Y626119D01*
X167740Y626033D01*
X167807Y625944D01*
X167870Y625853D01*
X167931Y625760D01*
X167988Y625665D01*
X168041Y625569D01*
X168092Y625470D01*
X168139Y625369D01*
X168182Y625267D01*
X168222Y625164D01*
X168258Y625059D01*
X168290Y624953D01*
X168319Y624846D01*
X168344Y624738D01*
X168365Y624629D01*
X168382Y624520D01*
X168396Y624410D01*
X168405Y624299D01*
X168411Y624189D01*
X168413Y624078D01*
X168411Y623967D01*
X168405Y623857D01*
X168396Y623746D01*
X168382Y623636D01*
X168365Y623527D01*
X168344Y623418D01*
X168319Y623310D01*
X168290Y623203D01*
X168258Y623097D01*
X168222Y622992D01*
X168182Y622889D01*
X168139Y622787D01*
X168092Y622686D01*
X168041Y622587D01*
X167988Y622491D01*
X167931Y622396D01*
X167870Y622303D01*
X167807Y622212D01*
X167740Y622123D01*
X167670Y622037D01*
X167597Y621954D01*
X167522Y621872D01*
X167444Y621794D01*
X167362Y621719D01*
X167279Y621646D01*
X167193Y621576D01*
X167104Y621509D01*
X167013Y621446D01*
X166920Y621385D01*
X166825Y621328D01*
X166729Y621275D01*
X166630Y621224D01*
X166529Y621177D01*
X166427Y621134D01*
X166324Y621094D01*
X166219Y621058D01*
X166113Y621026D01*
X166006Y620997D01*
X165898Y620972D01*
X165789Y620951D01*
X165680Y620934D01*
X165570Y620920D01*
X165459Y620911D01*
X165349Y620905D01*
X165238Y620903D01*
X162063Y620903D01*
X172922Y624713D02*
X176097Y627253D01*
X176097Y615823D01*
X172922Y615823D02*
X179272Y615823D01*
D10*
X152400Y571500D02*
X139700Y571500D01*
X152400Y571500D02*
X158750Y565150D01*
X158750Y552450D01*
X152400Y546100D01*
X133350Y552450D02*
X133350Y565150D01*
X139700Y571500D01*
X133350Y552450D02*
X139700Y546100D01*
X152400Y546100D01*
X158750Y565150D02*
X165100Y571500D01*
X177800Y571500D01*
X184150Y565150D01*
X184150Y552450D01*
X177800Y546100D01*
X165100Y546100D01*
X158750Y552450D01*
D16*
X156083Y538353D02*
X156083Y529463D01*
X156081Y529363D01*
X156075Y529264D01*
X156065Y529164D01*
X156052Y529066D01*
X156034Y528967D01*
X156013Y528870D01*
X155988Y528774D01*
X155959Y528678D01*
X155926Y528584D01*
X155890Y528491D01*
X155850Y528400D01*
X155806Y528310D01*
X155759Y528222D01*
X155709Y528136D01*
X155655Y528052D01*
X155598Y527970D01*
X155538Y527891D01*
X155474Y527813D01*
X155408Y527739D01*
X155339Y527667D01*
X155267Y527598D01*
X155193Y527532D01*
X155115Y527468D01*
X155036Y527408D01*
X154954Y527351D01*
X154870Y527297D01*
X154784Y527247D01*
X154696Y527200D01*
X154606Y527156D01*
X154515Y527116D01*
X154422Y527080D01*
X154328Y527047D01*
X154232Y527018D01*
X154136Y526993D01*
X154039Y526972D01*
X153940Y526954D01*
X153842Y526941D01*
X153742Y526931D01*
X153643Y526925D01*
X153543Y526923D01*
X152273Y526923D01*
X162063Y526923D02*
X162063Y538353D01*
X165238Y538353D01*
X165349Y538351D01*
X165459Y538345D01*
X165570Y538336D01*
X165680Y538322D01*
X165789Y538305D01*
X165898Y538284D01*
X166006Y538259D01*
X166113Y538230D01*
X166219Y538198D01*
X166324Y538162D01*
X166427Y538122D01*
X166529Y538079D01*
X166630Y538032D01*
X166729Y537981D01*
X166826Y537928D01*
X166920Y537871D01*
X167013Y537810D01*
X167104Y537747D01*
X167193Y537680D01*
X167279Y537610D01*
X167362Y537537D01*
X167444Y537462D01*
X167522Y537384D01*
X167597Y537302D01*
X167670Y537219D01*
X167740Y537133D01*
X167807Y537044D01*
X167870Y536953D01*
X167931Y536860D01*
X167988Y536765D01*
X168041Y536669D01*
X168092Y536570D01*
X168139Y536469D01*
X168182Y536367D01*
X168222Y536264D01*
X168258Y536159D01*
X168290Y536053D01*
X168319Y535946D01*
X168344Y535838D01*
X168365Y535729D01*
X168382Y535620D01*
X168396Y535510D01*
X168405Y535399D01*
X168411Y535289D01*
X168413Y535178D01*
X168411Y535067D01*
X168405Y534957D01*
X168396Y534846D01*
X168382Y534736D01*
X168365Y534627D01*
X168344Y534518D01*
X168319Y534410D01*
X168290Y534303D01*
X168258Y534197D01*
X168222Y534092D01*
X168182Y533989D01*
X168139Y533887D01*
X168092Y533786D01*
X168041Y533687D01*
X167988Y533591D01*
X167931Y533496D01*
X167870Y533403D01*
X167807Y533312D01*
X167740Y533223D01*
X167670Y533137D01*
X167597Y533054D01*
X167522Y532972D01*
X167444Y532894D01*
X167362Y532819D01*
X167279Y532746D01*
X167193Y532676D01*
X167104Y532609D01*
X167013Y532546D01*
X166920Y532485D01*
X166825Y532428D01*
X166729Y532375D01*
X166630Y532324D01*
X166529Y532277D01*
X166427Y532234D01*
X166324Y532194D01*
X166219Y532158D01*
X166113Y532126D01*
X166006Y532097D01*
X165898Y532072D01*
X165789Y532051D01*
X165680Y532034D01*
X165570Y532020D01*
X165459Y532011D01*
X165349Y532005D01*
X165238Y532003D01*
X162063Y532003D01*
X176414Y538354D02*
X176518Y538352D01*
X176623Y538346D01*
X176727Y538337D01*
X176830Y538324D01*
X176933Y538306D01*
X177035Y538286D01*
X177137Y538261D01*
X177237Y538233D01*
X177337Y538201D01*
X177435Y538165D01*
X177532Y538126D01*
X177627Y538084D01*
X177721Y538038D01*
X177813Y537988D01*
X177903Y537936D01*
X177991Y537880D01*
X178077Y537820D01*
X178161Y537758D01*
X178242Y537693D01*
X178321Y537625D01*
X178398Y537553D01*
X178471Y537480D01*
X178543Y537403D01*
X178611Y537324D01*
X178676Y537243D01*
X178738Y537159D01*
X178798Y537073D01*
X178854Y536985D01*
X178906Y536895D01*
X178956Y536803D01*
X179002Y536709D01*
X179044Y536614D01*
X179083Y536517D01*
X179119Y536419D01*
X179151Y536319D01*
X179179Y536219D01*
X179204Y536117D01*
X179224Y536015D01*
X179242Y535912D01*
X179255Y535809D01*
X179264Y535705D01*
X179270Y535600D01*
X179272Y535496D01*
X176414Y538353D02*
X176296Y538351D01*
X176177Y538345D01*
X176059Y538336D01*
X175942Y538323D01*
X175825Y538305D01*
X175708Y538285D01*
X175592Y538260D01*
X175477Y538232D01*
X175364Y538199D01*
X175251Y538164D01*
X175139Y538124D01*
X175029Y538082D01*
X174920Y538035D01*
X174812Y537985D01*
X174707Y537932D01*
X174603Y537875D01*
X174501Y537815D01*
X174401Y537752D01*
X174303Y537685D01*
X174207Y537616D01*
X174114Y537543D01*
X174023Y537467D01*
X173934Y537389D01*
X173848Y537307D01*
X173765Y537223D01*
X173684Y537137D01*
X173607Y537047D01*
X173532Y536956D01*
X173460Y536862D01*
X173391Y536765D01*
X173326Y536667D01*
X173263Y536566D01*
X173204Y536463D01*
X173148Y536359D01*
X173096Y536253D01*
X173047Y536145D01*
X173002Y536036D01*
X172960Y535925D01*
X172922Y535813D01*
X178320Y533274D02*
X178396Y533349D01*
X178471Y533428D01*
X178542Y533509D01*
X178611Y533593D01*
X178676Y533679D01*
X178738Y533767D01*
X178798Y533857D01*
X178854Y533949D01*
X178907Y534044D01*
X178956Y534140D01*
X179002Y534238D01*
X179045Y534337D01*
X179084Y534438D01*
X179119Y534540D01*
X179151Y534643D01*
X179179Y534747D01*
X179204Y534852D01*
X179225Y534959D01*
X179242Y535065D01*
X179255Y535172D01*
X179264Y535280D01*
X179270Y535388D01*
X179272Y535496D01*
X178319Y533273D02*
X172922Y526923D01*
X179272Y526923D01*
D10*
X132842Y520700D02*
X125222Y520700D01*
X128778Y516890D02*
X128778Y524510D01*
X106934Y557784D02*
X32766Y557784D01*
X32766Y535178D01*
X32766Y483616D02*
X106934Y483616D01*
X106934Y506222D01*
X106934Y535178D02*
X106934Y557784D01*
X32766Y506222D02*
X32766Y483616D01*
D11*
X88265Y475869D02*
X88265Y463931D01*
X93571Y463931D01*
X97770Y473216D02*
X101086Y475869D01*
X101086Y463931D01*
X97770Y463931D02*
X104402Y463931D01*
D12*
X38100Y610870D02*
X38100Y621030D01*
D10*
X10287Y626237D02*
X10287Y632841D01*
X12121Y632841D01*
X12206Y632839D01*
X12290Y632833D01*
X12374Y632823D01*
X12458Y632810D01*
X12541Y632792D01*
X12623Y632771D01*
X12704Y632746D01*
X12784Y632717D01*
X12862Y632685D01*
X12938Y632649D01*
X13013Y632609D01*
X13086Y632566D01*
X13157Y632520D01*
X13226Y632471D01*
X13293Y632418D01*
X13357Y632362D01*
X13418Y632304D01*
X13476Y632243D01*
X13532Y632179D01*
X13585Y632112D01*
X13634Y632043D01*
X13680Y631972D01*
X13723Y631899D01*
X13763Y631824D01*
X13799Y631748D01*
X13831Y631670D01*
X13860Y631590D01*
X13885Y631509D01*
X13906Y631427D01*
X13924Y631344D01*
X13937Y631260D01*
X13947Y631176D01*
X13953Y631092D01*
X13955Y631007D01*
X13953Y630922D01*
X13947Y630838D01*
X13937Y630754D01*
X13924Y630670D01*
X13906Y630587D01*
X13885Y630505D01*
X13860Y630424D01*
X13831Y630344D01*
X13799Y630266D01*
X13763Y630190D01*
X13723Y630115D01*
X13680Y630042D01*
X13634Y629971D01*
X13585Y629902D01*
X13532Y629835D01*
X13476Y629771D01*
X13418Y629710D01*
X13357Y629652D01*
X13293Y629596D01*
X13226Y629543D01*
X13157Y629494D01*
X13086Y629448D01*
X13013Y629405D01*
X12938Y629365D01*
X12862Y629329D01*
X12784Y629297D01*
X12704Y629268D01*
X12623Y629243D01*
X12541Y629222D01*
X12458Y629204D01*
X12374Y629191D01*
X12290Y629181D01*
X12206Y629175D01*
X12121Y629173D01*
X12121Y629172D02*
X10287Y629172D01*
X12488Y629172D02*
X13956Y626237D01*
X17523Y631373D02*
X19358Y632841D01*
X19358Y626237D01*
X21192Y626237D02*
X17523Y626237D01*
X347218Y115570D02*
X452882Y115570D01*
X452882Y118364D01*
X452882Y303530D02*
X347218Y303530D01*
X347218Y300736D01*
X347218Y118364D02*
X347218Y115570D01*
X452882Y300736D02*
X452882Y303530D01*
D11*
X339055Y303728D02*
X339055Y307707D01*
X339055Y303728D02*
X341376Y300743D01*
X339055Y303728D02*
X336733Y300743D01*
X339055Y303728D02*
X342702Y305054D01*
X339055Y303728D02*
X335407Y305054D01*
X386715Y314847D02*
X386715Y323469D01*
X386715Y314847D02*
X386717Y314733D01*
X386723Y314618D01*
X386733Y314504D01*
X386747Y314391D01*
X386764Y314277D01*
X386786Y314165D01*
X386811Y314053D01*
X386841Y313943D01*
X386874Y313833D01*
X386911Y313725D01*
X386951Y313618D01*
X386996Y313512D01*
X387043Y313408D01*
X387095Y313306D01*
X387150Y313206D01*
X387208Y313107D01*
X387270Y313011D01*
X387335Y312916D01*
X387403Y312825D01*
X387475Y312735D01*
X387549Y312648D01*
X387626Y312564D01*
X387707Y312482D01*
X387790Y312403D01*
X387875Y312327D01*
X387964Y312254D01*
X388054Y312185D01*
X388147Y312118D01*
X388243Y312055D01*
X388340Y311995D01*
X388440Y311938D01*
X388541Y311885D01*
X388644Y311835D01*
X388749Y311789D01*
X388855Y311746D01*
X388963Y311708D01*
X389072Y311673D01*
X389182Y311642D01*
X389293Y311614D01*
X389405Y311591D01*
X389518Y311571D01*
X389631Y311555D01*
X389745Y311543D01*
X389859Y311535D01*
X389974Y311531D01*
X390088Y311531D01*
X390203Y311535D01*
X390317Y311543D01*
X390431Y311555D01*
X390544Y311571D01*
X390657Y311591D01*
X390769Y311614D01*
X390880Y311642D01*
X390990Y311673D01*
X391099Y311708D01*
X391207Y311746D01*
X391313Y311789D01*
X391418Y311835D01*
X391521Y311885D01*
X391622Y311938D01*
X391722Y311995D01*
X391819Y312055D01*
X391915Y312118D01*
X392008Y312185D01*
X392098Y312254D01*
X392187Y312327D01*
X392272Y312403D01*
X392355Y312482D01*
X392436Y312564D01*
X392513Y312648D01*
X392587Y312735D01*
X392659Y312825D01*
X392727Y312916D01*
X392792Y313011D01*
X392854Y313107D01*
X392912Y313206D01*
X392967Y313306D01*
X393019Y313408D01*
X393066Y313512D01*
X393111Y313618D01*
X393151Y313725D01*
X393188Y313833D01*
X393221Y313943D01*
X393251Y314053D01*
X393276Y314165D01*
X393298Y314277D01*
X393315Y314391D01*
X393329Y314504D01*
X393339Y314618D01*
X393345Y314733D01*
X393347Y314847D01*
X393347Y323469D01*
X398526Y320816D02*
X401842Y323469D01*
X401842Y311531D01*
X398526Y311531D02*
X405158Y311531D01*
D17*
X840740Y412750D03*
D16*
X855980Y69850D02*
X855980Y26670D01*
X855980Y356870D02*
X855980Y400050D01*
X337820Y400050D02*
X337820Y356870D01*
X322580Y356870D02*
X322580Y400050D01*
X337820Y69850D02*
X337820Y26670D01*
X322580Y26670D02*
X322580Y69850D01*
X7620Y69850D02*
X7620Y26670D01*
X7620Y356870D02*
X7620Y400050D01*
X10160Y400050D01*
X68200Y570200D02*
X68200Y571200D01*
X68200Y570200D02*
X84200Y570200D01*
X84200Y571200D01*
X68200Y597200D02*
X68200Y598200D01*
X84200Y598200D01*
X84200Y597200D01*
X68200Y590200D02*
X68200Y578200D01*
X84200Y578200D02*
X84200Y580200D01*
X84200Y588200D02*
X84200Y590200D01*
D11*
X52738Y588899D02*
X52738Y583579D01*
X52740Y583490D01*
X52746Y583401D01*
X52756Y583312D01*
X52769Y583224D01*
X52786Y583136D01*
X52808Y583049D01*
X52833Y582964D01*
X52861Y582879D01*
X52894Y582796D01*
X52930Y582714D01*
X52969Y582634D01*
X53012Y582556D01*
X53058Y582480D01*
X53108Y582405D01*
X53161Y582333D01*
X53217Y582264D01*
X53276Y582197D01*
X53337Y582132D01*
X53402Y582071D01*
X53469Y582012D01*
X53538Y581956D01*
X53610Y581903D01*
X53685Y581853D01*
X53761Y581807D01*
X53839Y581764D01*
X53919Y581725D01*
X54001Y581689D01*
X54084Y581656D01*
X54169Y581628D01*
X54254Y581603D01*
X54341Y581581D01*
X54429Y581564D01*
X54517Y581551D01*
X54606Y581541D01*
X54695Y581535D01*
X54784Y581533D01*
X54873Y581535D01*
X54962Y581541D01*
X55051Y581551D01*
X55139Y581564D01*
X55227Y581581D01*
X55314Y581603D01*
X55399Y581628D01*
X55484Y581656D01*
X55567Y581689D01*
X55649Y581725D01*
X55729Y581764D01*
X55807Y581807D01*
X55883Y581853D01*
X55958Y581903D01*
X56030Y581956D01*
X56099Y582012D01*
X56166Y582071D01*
X56231Y582132D01*
X56292Y582197D01*
X56351Y582264D01*
X56407Y582333D01*
X56460Y582405D01*
X56510Y582480D01*
X56556Y582556D01*
X56599Y582634D01*
X56638Y582714D01*
X56674Y582796D01*
X56707Y582879D01*
X56735Y582964D01*
X56760Y583049D01*
X56782Y583136D01*
X56799Y583224D01*
X56812Y583312D01*
X56822Y583401D01*
X56828Y583490D01*
X56830Y583579D01*
X56830Y588899D01*
X60297Y581533D02*
X62343Y581533D01*
X62432Y581535D01*
X62521Y581541D01*
X62610Y581551D01*
X62698Y581564D01*
X62786Y581581D01*
X62873Y581603D01*
X62958Y581628D01*
X63043Y581656D01*
X63126Y581689D01*
X63208Y581725D01*
X63288Y581764D01*
X63366Y581807D01*
X63442Y581853D01*
X63517Y581903D01*
X63589Y581956D01*
X63658Y582012D01*
X63725Y582071D01*
X63790Y582132D01*
X63851Y582197D01*
X63910Y582264D01*
X63966Y582333D01*
X64019Y582405D01*
X64069Y582480D01*
X64115Y582556D01*
X64158Y582634D01*
X64197Y582714D01*
X64233Y582796D01*
X64266Y582879D01*
X64294Y582964D01*
X64319Y583049D01*
X64341Y583136D01*
X64358Y583224D01*
X64371Y583312D01*
X64381Y583401D01*
X64387Y583490D01*
X64389Y583579D01*
X64387Y583668D01*
X64381Y583757D01*
X64371Y583846D01*
X64358Y583934D01*
X64341Y584022D01*
X64319Y584109D01*
X64294Y584194D01*
X64266Y584279D01*
X64233Y584362D01*
X64197Y584444D01*
X64158Y584524D01*
X64115Y584602D01*
X64069Y584678D01*
X64019Y584753D01*
X63966Y584825D01*
X63910Y584894D01*
X63851Y584961D01*
X63790Y585026D01*
X63725Y585087D01*
X63658Y585146D01*
X63589Y585202D01*
X63517Y585255D01*
X63442Y585305D01*
X63366Y585351D01*
X63288Y585394D01*
X63208Y585433D01*
X63126Y585469D01*
X63043Y585502D01*
X62958Y585530D01*
X62873Y585555D01*
X62786Y585577D01*
X62698Y585594D01*
X62610Y585607D01*
X62521Y585617D01*
X62432Y585623D01*
X62343Y585625D01*
X62752Y588899D02*
X60297Y588899D01*
X62752Y588899D02*
X62831Y588897D01*
X62910Y588891D01*
X62989Y588882D01*
X63067Y588869D01*
X63144Y588851D01*
X63220Y588831D01*
X63295Y588806D01*
X63369Y588778D01*
X63442Y588747D01*
X63513Y588711D01*
X63582Y588673D01*
X63649Y588631D01*
X63714Y588586D01*
X63777Y588538D01*
X63838Y588487D01*
X63895Y588433D01*
X63951Y588377D01*
X64003Y588318D01*
X64053Y588256D01*
X64099Y588192D01*
X64143Y588126D01*
X64183Y588058D01*
X64219Y587988D01*
X64253Y587916D01*
X64283Y587842D01*
X64309Y587768D01*
X64332Y587692D01*
X64350Y587615D01*
X64366Y587538D01*
X64377Y587459D01*
X64385Y587381D01*
X64389Y587302D01*
X64389Y587222D01*
X64385Y587143D01*
X64377Y587065D01*
X64366Y586986D01*
X64350Y586909D01*
X64332Y586832D01*
X64309Y586756D01*
X64283Y586682D01*
X64253Y586608D01*
X64219Y586536D01*
X64183Y586466D01*
X64143Y586398D01*
X64099Y586332D01*
X64053Y586268D01*
X64003Y586206D01*
X63951Y586147D01*
X63895Y586091D01*
X63838Y586037D01*
X63777Y585986D01*
X63714Y585938D01*
X63649Y585893D01*
X63582Y585851D01*
X63513Y585813D01*
X63442Y585777D01*
X63369Y585746D01*
X63295Y585718D01*
X63220Y585693D01*
X63144Y585673D01*
X63067Y585655D01*
X62989Y585642D01*
X62910Y585633D01*
X62831Y585627D01*
X62752Y585625D01*
X61115Y585625D01*
D12*
X299720Y196850D02*
X309880Y196850D01*
D10*
X286272Y188087D02*
X284805Y188087D01*
X284731Y188089D01*
X284656Y188095D01*
X284583Y188104D01*
X284509Y188117D01*
X284437Y188134D01*
X284366Y188154D01*
X284295Y188178D01*
X284226Y188206D01*
X284159Y188237D01*
X284093Y188271D01*
X284028Y188309D01*
X283966Y188350D01*
X283906Y188394D01*
X283849Y188441D01*
X283794Y188491D01*
X283741Y188544D01*
X283691Y188599D01*
X283644Y188656D01*
X283600Y188716D01*
X283559Y188778D01*
X283521Y188843D01*
X283487Y188909D01*
X283456Y188976D01*
X283428Y189045D01*
X283404Y189116D01*
X283384Y189187D01*
X283367Y189259D01*
X283354Y189333D01*
X283345Y189406D01*
X283339Y189481D01*
X283337Y189555D01*
X283337Y193223D01*
X283339Y193297D01*
X283345Y193372D01*
X283354Y193445D01*
X283367Y193519D01*
X283384Y193591D01*
X283404Y193662D01*
X283428Y193733D01*
X283456Y193802D01*
X283487Y193869D01*
X283521Y193935D01*
X283559Y194000D01*
X283600Y194062D01*
X283644Y194122D01*
X283691Y194179D01*
X283741Y194234D01*
X283794Y194287D01*
X283849Y194337D01*
X283906Y194384D01*
X283966Y194428D01*
X284028Y194469D01*
X284093Y194507D01*
X284158Y194541D01*
X284226Y194572D01*
X284295Y194600D01*
X284366Y194624D01*
X284437Y194644D01*
X284509Y194661D01*
X284583Y194674D01*
X284656Y194683D01*
X284731Y194689D01*
X284805Y194691D01*
X286272Y194691D01*
X289469Y188087D02*
X291670Y188087D01*
X291744Y188089D01*
X291819Y188095D01*
X291892Y188104D01*
X291966Y188117D01*
X292038Y188134D01*
X292109Y188154D01*
X292180Y188178D01*
X292249Y188206D01*
X292316Y188237D01*
X292382Y188271D01*
X292447Y188309D01*
X292509Y188350D01*
X292569Y188394D01*
X292626Y188441D01*
X292681Y188491D01*
X292734Y188544D01*
X292784Y188599D01*
X292831Y188656D01*
X292875Y188716D01*
X292916Y188778D01*
X292954Y188843D01*
X292988Y188908D01*
X293019Y188976D01*
X293047Y189045D01*
X293071Y189116D01*
X293091Y189187D01*
X293108Y189259D01*
X293121Y189333D01*
X293130Y189406D01*
X293136Y189481D01*
X293138Y189555D01*
X293137Y189555D02*
X293137Y190288D01*
X293138Y190288D02*
X293136Y190362D01*
X293130Y190437D01*
X293121Y190510D01*
X293108Y190584D01*
X293091Y190656D01*
X293071Y190727D01*
X293047Y190798D01*
X293019Y190867D01*
X292988Y190934D01*
X292954Y191000D01*
X292916Y191065D01*
X292875Y191127D01*
X292831Y191187D01*
X292784Y191244D01*
X292734Y191299D01*
X292681Y191352D01*
X292626Y191402D01*
X292569Y191449D01*
X292509Y191493D01*
X292447Y191534D01*
X292382Y191572D01*
X292316Y191606D01*
X292249Y191637D01*
X292180Y191665D01*
X292109Y191689D01*
X292038Y191709D01*
X291966Y191726D01*
X291892Y191739D01*
X291819Y191748D01*
X291744Y191754D01*
X291670Y191756D01*
X289469Y191756D01*
X289469Y194691D01*
X293137Y194691D01*
M02*
