M48
;GenerationSoftware,Autodesk,EAGLE,9.6.2*%
;CreationDate,2020-11-01T14:44:43Z*%
FMAT,2
ICI,OFF
METRIC,TZ,000.000
T3C0.508
T2C1.016
%
G90
M71
T2
X17145Y55880
X14605Y55880
X17145Y59690
X14605Y59690
T3
X55880Y38100
X1905Y59690
X37465Y61595
X24765Y61595
X10795Y59055
X54610Y45085
X41275Y59055
X40640Y38100
X43993Y25400
X37465Y18415
X71120Y5080
X55880Y4445
X40005Y5715
X5080Y5080
X7620Y46990
X71120Y38100
M30