G04 EAGLE Gerber RS-274X export*
G75*
%MOMM*%
%FSLAX34Y34*%
%LPD*%
%INTop Copper*%
%IPPOS*%
%AMOC8*
5,1,8,0,0,1.08239X$1,22.5*%
G01*
%ADD10R,1.300000X1.200000*%
%ADD11R,1.200000X1.300000*%
%ADD12R,1.300000X1.500000*%
%ADD13R,2.540000X2.540000*%
%ADD14R,1.400000X1.400000*%
%ADD15R,0.300000X0.800000*%
%ADD16R,2.400000X2.200000*%
%ADD17R,1.300000X0.850000*%
%ADD18R,0.300000X1.300000*%
%ADD19R,1.800000X2.200000*%
%ADD20C,1.625600*%
%ADD21R,2.692400X2.209800*%
%ADD22R,1.320800X0.508000*%
%ADD23R,0.990600X1.549400*%
%ADD24R,1.200000X0.550000*%
%ADD25C,0.203200*%
%ADD26C,1.016000*%
%ADD27C,0.406400*%


D10*
X488950Y193040D03*
X488950Y213360D03*
D11*
X40640Y469900D03*
X60960Y469900D03*
D12*
X104750Y673100D03*
X85750Y673100D03*
X66700Y615950D03*
X85700Y615950D03*
D13*
X99695Y647700D03*
X52705Y647700D03*
D14*
X107950Y609050D03*
X107950Y572050D03*
D15*
X428100Y603650D03*
X423100Y603650D03*
X418100Y603650D03*
X413100Y603650D03*
X408100Y603650D03*
X403100Y603650D03*
X398100Y603650D03*
X393100Y603650D03*
X388100Y603650D03*
X383100Y603650D03*
X378100Y603650D03*
X373100Y603650D03*
X368100Y603650D03*
X363100Y603650D03*
X358100Y603650D03*
X353100Y603650D03*
X348100Y603650D03*
X343100Y603650D03*
X338100Y603650D03*
X333100Y603650D03*
X328100Y603650D03*
X323100Y603650D03*
X318100Y603650D03*
X313100Y603650D03*
X308100Y603650D03*
X303100Y603650D03*
X298100Y603650D03*
X293100Y603650D03*
X288100Y603650D03*
X283100Y603650D03*
D16*
X452600Y619650D03*
D17*
X447100Y634900D03*
X214100Y634900D03*
D16*
X208600Y619650D03*
D15*
X278100Y603650D03*
X273100Y603650D03*
X268100Y603650D03*
X263100Y603650D03*
X258100Y603650D03*
X253100Y603650D03*
X248100Y603650D03*
X243100Y603650D03*
X238100Y603650D03*
X233100Y603650D03*
D18*
X625550Y443750D03*
X615550Y443750D03*
X605550Y443750D03*
X595550Y443750D03*
X585550Y443750D03*
X575550Y443750D03*
D19*
X551550Y476250D03*
X649550Y476250D03*
D20*
X146050Y588772D02*
X146050Y605028D01*
X171450Y605028D02*
X171450Y588772D01*
X146050Y566928D02*
X146050Y550672D01*
X171450Y550672D02*
X171450Y566928D01*
D21*
X95377Y520700D03*
X44323Y520700D03*
D11*
X27940Y615950D03*
X48260Y615950D03*
D22*
X343281Y294894D03*
X343281Y286766D03*
X343281Y278638D03*
X343281Y270510D03*
X343281Y262382D03*
X343281Y254254D03*
X343281Y246126D03*
X343281Y237998D03*
X343281Y229870D03*
X343281Y221742D03*
X343281Y213614D03*
X343281Y205486D03*
X343281Y197358D03*
X343281Y189230D03*
X343281Y181102D03*
X343281Y172974D03*
X343281Y164846D03*
X343281Y156718D03*
X343281Y148590D03*
X343281Y140462D03*
X343281Y132334D03*
X343281Y124206D03*
X456819Y124206D03*
X456819Y132334D03*
X456819Y140462D03*
X456819Y148590D03*
X456819Y156718D03*
X456819Y164846D03*
X456819Y172974D03*
X456819Y181102D03*
X456819Y189230D03*
X456819Y197358D03*
X456819Y205486D03*
X456819Y213614D03*
X456819Y221742D03*
X456819Y229870D03*
X456819Y237998D03*
X456819Y246126D03*
X456819Y254254D03*
X456819Y262382D03*
X456819Y270510D03*
X456819Y278638D03*
X456819Y286766D03*
X456819Y294894D03*
D23*
X304800Y19050D03*
X279400Y19050D03*
X254000Y19050D03*
X228600Y19050D03*
X203200Y19050D03*
X177800Y19050D03*
X152400Y19050D03*
X127000Y19050D03*
X101600Y19050D03*
X76200Y19050D03*
X50800Y19050D03*
X25400Y19050D03*
X304800Y77470D03*
X279400Y77470D03*
X254000Y77470D03*
X228600Y77470D03*
X203200Y77470D03*
X177800Y77470D03*
X152400Y77470D03*
X127000Y77470D03*
X101600Y77470D03*
X76200Y77470D03*
X50800Y77470D03*
X25400Y77470D03*
X838200Y19050D03*
X812800Y19050D03*
X787400Y19050D03*
X762000Y19050D03*
X736600Y19050D03*
X711200Y19050D03*
X685800Y19050D03*
X660400Y19050D03*
X635000Y19050D03*
X609600Y19050D03*
X381000Y19050D03*
X355600Y19050D03*
X838200Y77470D03*
X812800Y77470D03*
X787400Y77470D03*
X762000Y77470D03*
X736600Y77470D03*
X711200Y77470D03*
X685800Y77470D03*
X660400Y77470D03*
X635000Y77470D03*
X609600Y77470D03*
X381000Y77470D03*
X355600Y77470D03*
X584200Y19050D03*
X558800Y19050D03*
X533400Y19050D03*
X508000Y19050D03*
X482600Y19050D03*
X457200Y19050D03*
X431800Y19050D03*
X406400Y19050D03*
X584200Y77470D03*
X558800Y77470D03*
X533400Y77470D03*
X508000Y77470D03*
X482600Y77470D03*
X457200Y77470D03*
X431800Y77470D03*
X406400Y77470D03*
X304800Y349250D03*
X279400Y349250D03*
X254000Y349250D03*
X228600Y349250D03*
X203200Y349250D03*
X177800Y349250D03*
X152400Y349250D03*
X127000Y349250D03*
X101600Y349250D03*
X76200Y349250D03*
X50800Y349250D03*
X25400Y349250D03*
X304800Y407670D03*
X279400Y407670D03*
X254000Y407670D03*
X228600Y407670D03*
X203200Y407670D03*
X177800Y407670D03*
X152400Y407670D03*
X127000Y407670D03*
X101600Y407670D03*
X76200Y407670D03*
X50800Y407670D03*
X25400Y407670D03*
X838200Y349250D03*
X812800Y349250D03*
X787400Y349250D03*
X762000Y349250D03*
X736600Y349250D03*
X711200Y349250D03*
X685800Y349250D03*
X660400Y349250D03*
X635000Y349250D03*
X609600Y349250D03*
X381000Y349250D03*
X355600Y349250D03*
X838200Y407670D03*
X812800Y407670D03*
X787400Y407670D03*
X762000Y407670D03*
X736600Y407670D03*
X711200Y407670D03*
X685800Y407670D03*
X660400Y407670D03*
X635000Y407670D03*
X609600Y407670D03*
X381000Y407670D03*
X355600Y407670D03*
X584200Y349250D03*
X558800Y349250D03*
X533400Y349250D03*
X508000Y349250D03*
X482600Y349250D03*
X457200Y349250D03*
X431800Y349250D03*
X406400Y349250D03*
X584200Y407670D03*
X558800Y407670D03*
X533400Y407670D03*
X508000Y407670D03*
X482600Y407670D03*
X457200Y407670D03*
X431800Y407670D03*
X406400Y407670D03*
D24*
X89201Y574700D03*
X89201Y584200D03*
X89201Y593700D03*
X63199Y593700D03*
X63199Y574700D03*
D10*
X304800Y207010D03*
X304800Y186690D03*
D25*
X457073Y213360D02*
X488950Y213360D01*
X457073Y213360D02*
X456819Y213614D01*
X323596Y205486D02*
X304800Y186690D01*
X323596Y205486D02*
X343281Y205486D01*
X408100Y595200D02*
X408100Y603650D01*
X408100Y595200D02*
X412750Y590550D01*
D26*
X412750Y590550D03*
X711200Y381000D03*
D25*
X711200Y407670D01*
X711200Y381000D02*
X711200Y349250D01*
X76200Y469900D02*
X60960Y469900D01*
D26*
X76200Y469900D03*
D25*
X50800Y50800D02*
X50800Y19050D01*
D26*
X50800Y50800D03*
D25*
X50800Y77470D01*
X406400Y77470D02*
X406400Y63500D01*
X400050Y57150D01*
D26*
X400050Y57150D03*
D25*
X387216Y8255D02*
X374785Y8255D01*
X372999Y10041D01*
X372999Y28060D01*
X398011Y19050D02*
X406400Y19050D01*
X400050Y55111D02*
X400050Y57150D01*
X398011Y19050D02*
X387216Y8255D01*
X372999Y28060D02*
X400050Y55111D01*
X558800Y44450D02*
X558800Y19050D01*
D26*
X558800Y44450D03*
D25*
X558800Y77470D01*
X711200Y77470D02*
X711200Y50800D01*
D26*
X711200Y50800D03*
D25*
X711200Y19050D01*
X692150Y50800D02*
X660400Y19050D01*
X692150Y50800D02*
X711200Y50800D01*
X353314Y205486D02*
X343281Y205486D01*
D26*
X374650Y184150D03*
D25*
X353314Y205486D01*
X446786Y213614D02*
X456819Y213614D01*
X439928Y220472D02*
X439928Y254000D01*
D26*
X439928Y254000D03*
D25*
X439928Y220472D02*
X446786Y213614D01*
X406400Y381000D02*
X406400Y407670D01*
D26*
X406400Y381000D03*
D25*
X406400Y349250D01*
D26*
X558800Y381000D03*
D25*
X558800Y349250D01*
X558800Y381000D02*
X558800Y407670D01*
X585550Y443750D02*
X585550Y455850D01*
X584200Y457200D01*
X552450Y457200D01*
X546100Y450850D01*
D26*
X546100Y450850D03*
D27*
X85750Y673100D02*
X76200Y663550D01*
X85700Y619150D02*
X85700Y615950D01*
X76200Y628650D02*
X76200Y663550D01*
X76200Y628650D02*
X85700Y619150D01*
D25*
X85700Y615950D02*
X97902Y603748D01*
X97902Y600788D01*
X107950Y590740D02*
X107950Y590550D01*
X107950Y590740D02*
X97902Y600788D01*
D26*
X107950Y590550D03*
D27*
X27940Y605790D02*
X27940Y615950D01*
X89201Y584200D02*
X91887Y586886D01*
X96884Y586886D01*
X100548Y590550D02*
X107950Y590550D01*
X100548Y590550D02*
X96884Y586886D01*
D25*
X243100Y603650D02*
X243100Y611400D01*
X247650Y615950D01*
D26*
X247650Y615950D03*
D25*
X373100Y614400D02*
X373100Y603650D01*
X373100Y614400D02*
X374650Y615950D01*
D26*
X374650Y615950D03*
D27*
X27940Y605790D02*
X19050Y596900D01*
D26*
X19050Y596900D03*
D25*
X368100Y603650D02*
X368100Y559000D01*
X431800Y495300D01*
X431800Y407670D01*
X363100Y557650D02*
X363100Y603650D01*
X419100Y501650D02*
X419100Y361950D01*
X431800Y349250D01*
X419100Y501650D02*
X363100Y557650D01*
X358100Y603650D02*
X358100Y422181D01*
X363601Y416680D01*
X363601Y366649D02*
X381000Y349250D01*
X363601Y366649D02*
X363601Y416680D01*
X353100Y410170D02*
X353100Y603650D01*
X353100Y410170D02*
X355600Y407670D01*
X348100Y417181D02*
X348100Y603650D01*
X348100Y417181D02*
X347599Y416680D01*
X347599Y357251D01*
X355600Y349250D01*
X343100Y559000D02*
X343100Y603650D01*
X343100Y559000D02*
X279400Y495300D01*
X279400Y407670D01*
X338100Y560350D02*
X338100Y603650D01*
X338100Y560350D02*
X266700Y488950D01*
X266700Y361950D01*
X279400Y349250D01*
X333100Y561700D02*
X333100Y603650D01*
X333100Y561700D02*
X254000Y482600D01*
X254000Y407670D01*
X328100Y563050D02*
X328100Y603650D01*
X328100Y563050D02*
X241300Y476250D01*
X241300Y361950D01*
X254000Y349250D01*
X323100Y564400D02*
X323100Y603650D01*
X323100Y564400D02*
X228600Y469900D01*
X228600Y407670D01*
X318100Y566353D02*
X318100Y603650D01*
X318100Y566353D02*
X215599Y463851D01*
X215599Y362251D01*
X228600Y349250D01*
X313100Y567100D02*
X313100Y603650D01*
X313100Y567100D02*
X203200Y457200D01*
X203200Y407670D01*
X308100Y568729D02*
X308100Y603650D01*
X308100Y568729D02*
X190361Y450989D01*
X190361Y362089D01*
X203200Y349250D01*
X303100Y569476D02*
X303100Y603650D01*
X177800Y444176D02*
X177800Y407670D01*
X177800Y444176D02*
X303100Y569476D01*
X298100Y570224D02*
X298100Y603650D01*
X298100Y570224D02*
X165563Y437687D01*
X165563Y361487D01*
X177800Y349250D01*
X292648Y603198D02*
X293100Y603650D01*
X152400Y430271D02*
X152400Y407670D01*
X292648Y570519D02*
X292648Y603198D01*
X292648Y570519D02*
X152400Y430271D01*
X287648Y603198D02*
X288100Y603650D01*
X287648Y603198D02*
X287648Y571266D01*
X139700Y423318D01*
X139700Y361950D02*
X152400Y349250D01*
X139700Y361950D02*
X139700Y423318D01*
X282648Y603198D02*
X283100Y603650D01*
X130242Y419608D02*
X127508Y419608D01*
X127000Y419100D01*
X282648Y572014D02*
X282648Y603198D01*
X282648Y572014D02*
X130242Y419608D01*
X127000Y419100D02*
X127000Y407670D01*
X277648Y603198D02*
X278100Y603650D01*
X128559Y423672D02*
X120650Y423672D01*
X277648Y572761D02*
X277648Y603198D01*
X277648Y572761D02*
X128559Y423672D01*
X120650Y423672D02*
X114300Y417322D01*
X114300Y361950D02*
X127000Y349250D01*
X114300Y361950D02*
X114300Y417322D01*
X272648Y603198D02*
X273100Y603650D01*
X126876Y427736D02*
X110236Y427736D01*
X272648Y573509D02*
X272648Y603198D01*
X272648Y573509D02*
X126876Y427736D01*
X101600Y419100D02*
X101600Y407670D01*
X101600Y419100D02*
X110236Y427736D01*
X267648Y603198D02*
X268100Y603650D01*
X267648Y603198D02*
X267648Y574256D01*
X125192Y431800D01*
X95250Y431800D01*
X88900Y425450D01*
X88900Y361950D02*
X101600Y349250D01*
X88900Y361950D02*
X88900Y425450D01*
X262648Y603198D02*
X263100Y603650D01*
X262648Y603198D02*
X262648Y575003D01*
X125795Y438150D01*
X82550Y438150D02*
X76200Y431800D01*
X76200Y407670D01*
X82550Y438150D02*
X125795Y438150D01*
X257648Y603198D02*
X258100Y603650D01*
X257648Y603198D02*
X257648Y575751D01*
X126397Y444500D01*
X69850Y444500D01*
X63500Y438150D01*
X63500Y361950D02*
X76200Y349250D01*
X63500Y361950D02*
X63500Y438150D01*
X253100Y576950D02*
X253100Y603650D01*
X253100Y576950D02*
X127000Y450850D01*
X63500Y450850D01*
X50800Y438150D01*
X50800Y407670D01*
D27*
X31623Y510300D02*
X33260Y511937D01*
X31623Y510300D02*
X31623Y484110D01*
X40640Y475093D02*
X40640Y469900D01*
X35560Y511937D02*
X33260Y511937D01*
X31623Y484110D02*
X40640Y475093D01*
X35560Y511937D02*
X44323Y520700D01*
X33260Y529463D02*
X31623Y531100D01*
X31623Y557290D02*
X33260Y558927D01*
X47426Y558927D02*
X63199Y574700D01*
X31623Y557290D02*
X31623Y531100D01*
X33260Y558927D02*
X47426Y558927D01*
X35560Y529463D02*
X44323Y520700D01*
X35560Y529463D02*
X33260Y529463D01*
D25*
X343281Y213614D02*
X343027Y213360D01*
X476504Y205486D02*
X488950Y193040D01*
X476504Y205486D02*
X457200Y205486D01*
X456819Y205486D01*
X311404Y213614D02*
X304800Y207010D01*
X311404Y213614D02*
X343281Y213614D01*
X247648Y603198D02*
X248100Y603650D01*
X247648Y603198D02*
X247648Y598388D01*
X106461Y457200D01*
X50800Y457200D01*
X40640Y467360D01*
X40640Y469900D01*
X50800Y457200D02*
X50800Y443897D01*
X76200Y332240D02*
X76200Y330200D01*
X42799Y435896D02*
X50800Y443897D01*
X42799Y435896D02*
X42799Y398661D01*
X59436Y349004D02*
X76200Y332240D01*
X59436Y349004D02*
X59436Y382024D01*
X42799Y398661D01*
X76200Y330200D02*
X285750Y330200D01*
X304800Y349250D01*
X304800Y407670D01*
X304800Y349250D02*
X361950Y292100D01*
X361950Y222250D01*
X353060Y213360D01*
X343027Y213360D01*
X343281Y213614D02*
X351536Y213614D01*
X361950Y203200D01*
X454914Y203200D01*
X457200Y205486D01*
X431800Y298450D02*
X482600Y349250D01*
X431800Y298450D02*
X431800Y215900D01*
X442214Y205486D01*
X456819Y205486D01*
X482600Y349250D02*
X482600Y407670D01*
X575550Y443750D02*
X581002Y438298D01*
X601599Y340241D02*
X603385Y338455D01*
X581002Y430521D02*
X581002Y438298D01*
X581002Y430521D02*
X601599Y409924D01*
X601599Y340241D01*
X624205Y338455D02*
X635000Y349250D01*
X624205Y338455D02*
X603385Y338455D01*
X635000Y349250D02*
X635000Y407670D01*
X603385Y338455D02*
X493395Y338455D01*
X482600Y349250D01*
X488950Y193040D02*
X493934Y188056D01*
X497141Y188056D01*
X521335Y163862D01*
X521335Y14105D01*
X527185Y8255D01*
X630555Y8255D01*
X635000Y12700D01*
X635000Y19050D01*
X635000Y77470D01*
X595550Y421720D02*
X595550Y443750D01*
X595550Y421720D02*
X609600Y407670D01*
X617601Y398661D02*
X617601Y416680D01*
X605550Y428731D02*
X605550Y443750D01*
X605550Y428731D02*
X617601Y416680D01*
X617601Y398661D02*
X609600Y390660D01*
X609600Y349250D01*
X378100Y555350D02*
X378100Y603650D01*
X378100Y555350D02*
X495300Y438150D01*
X495300Y361950D01*
X508000Y349250D01*
X383100Y556700D02*
X383100Y603650D01*
X383100Y556700D02*
X508000Y431800D01*
X508000Y407670D01*
X388100Y558050D02*
X388100Y603650D01*
X388100Y558050D02*
X520700Y425450D01*
X520700Y361950D01*
X533400Y349250D01*
X393552Y603198D02*
X393100Y603650D01*
X393552Y603198D02*
X393552Y558345D01*
X533400Y418497D02*
X533400Y407670D01*
X533400Y418497D02*
X393552Y558345D01*
X398552Y603198D02*
X398100Y603650D01*
X398552Y603198D02*
X398552Y559093D01*
X529622Y428022D01*
X563848Y428022D01*
X584200Y407670D01*
X615950Y443350D02*
X615550Y443750D01*
X615950Y443350D02*
X615950Y431800D01*
X622300Y425450D01*
X641350Y425450D01*
X647700Y419100D01*
X647700Y361950D01*
X660400Y349250D01*
X625550Y434900D02*
X625550Y443750D01*
X630936Y429514D02*
X643033Y429514D01*
X653447Y419100D02*
X654050Y419100D01*
X653447Y419100D02*
X643033Y429514D01*
X654050Y419100D02*
X660400Y412750D01*
X660400Y407670D01*
X630936Y429514D02*
X625550Y434900D01*
X226350Y596900D02*
X171450Y596900D01*
X226350Y596900D02*
X233100Y603650D01*
X237648Y603198D02*
X237648Y598388D01*
X237648Y603198D02*
X238100Y603650D01*
X198061Y558800D02*
X171450Y558800D01*
X198061Y558800D02*
X237648Y598388D01*
X63199Y593700D02*
X41250Y593700D01*
X19050Y571500D01*
X19050Y463550D01*
X38100Y444500D01*
X38100Y361950D02*
X50800Y349250D01*
X38100Y361950D02*
X38100Y444500D01*
X320375Y156718D02*
X343281Y156718D01*
X320375Y156718D02*
X314787Y151130D01*
X265430Y151130D02*
X254000Y139700D01*
X265430Y151130D02*
X314787Y151130D01*
X254000Y139700D02*
X254000Y77470D01*
X317995Y148590D02*
X343281Y148590D01*
X317995Y148590D02*
X316471Y147066D01*
X274066Y147066D02*
X266700Y139700D01*
X274066Y147066D02*
X316471Y147066D01*
X266700Y139700D02*
X266700Y31750D01*
X279400Y19050D01*
X286512Y140462D02*
X343281Y140462D01*
X286512Y140462D02*
X279400Y133350D01*
X279400Y77470D01*
X297434Y132334D02*
X343281Y132334D01*
X297434Y132334D02*
X292100Y127000D01*
X292100Y31750D01*
X304800Y19050D01*
X431800Y99187D02*
X456819Y124206D01*
X431800Y99187D02*
X431800Y77470D01*
X454279Y137922D02*
X456819Y140462D01*
X454279Y137922D02*
X448953Y137922D01*
X419100Y108070D01*
X419100Y50800D01*
X387350Y19050D01*
X381000Y19050D01*
X454279Y146050D02*
X456819Y148590D01*
X454279Y146050D02*
X448953Y146050D01*
X447167Y144265D01*
X447167Y143637D01*
X381000Y77470D01*
X454279Y92329D02*
X469900Y107950D01*
X431800Y60460D02*
X431800Y19050D01*
X431800Y60460D02*
X440436Y69096D01*
X440436Y84233D01*
X448532Y92329D01*
X454279Y92329D01*
X469900Y107950D02*
X469900Y152400D01*
X463550Y158750D01*
X458851Y158750D01*
X456819Y156718D01*
X456819Y278638D02*
X527812Y278638D01*
X685800Y120650D01*
X685800Y77470D01*
X526034Y286766D02*
X456819Y286766D01*
X728599Y84201D02*
X728599Y68461D01*
X736600Y60460D02*
X736600Y19050D01*
X736600Y60460D02*
X728599Y68461D01*
X728599Y84201D02*
X526034Y286766D01*
X343281Y294894D02*
X275844Y294894D01*
X63500Y82550D01*
X63500Y31750D01*
X76200Y19050D01*
X285496Y286766D02*
X343281Y286766D01*
X285496Y286766D02*
X76200Y77470D01*
X284988Y278638D02*
X343281Y278638D01*
X284988Y278638D02*
X88900Y82550D01*
X88900Y31750D01*
X101600Y19050D01*
X294640Y270510D02*
X343281Y270510D01*
X294640Y270510D02*
X101600Y77470D01*
X294132Y262382D02*
X343281Y262382D01*
X294132Y262382D02*
X114300Y82550D01*
X114300Y31750D01*
X127000Y19050D01*
X303276Y246126D02*
X343281Y246126D01*
X303276Y246126D02*
X139700Y82550D01*
X139700Y31750D01*
X152400Y19050D01*
X301498Y237998D02*
X343281Y237998D01*
X301498Y237998D02*
X152400Y88900D01*
X152400Y77470D01*
X165100Y31750D02*
X177800Y19050D01*
X299720Y229870D02*
X343281Y229870D01*
X299720Y229870D02*
X165100Y95250D01*
X165100Y31750D01*
X297942Y221742D02*
X343281Y221742D01*
X297942Y221742D02*
X177800Y101600D01*
X177800Y77470D01*
X324358Y197358D02*
X343281Y197358D01*
X314348Y187348D02*
X314348Y179428D01*
X306371Y171450D01*
X253397Y171450D02*
X187024Y105076D01*
X187024Y35226D01*
X203200Y19050D01*
X314348Y187348D02*
X324358Y197358D01*
X306371Y171450D02*
X253397Y171450D01*
X255081Y167386D02*
X202597Y114903D01*
X255081Y167386D02*
X308054Y167386D01*
X329898Y189230D02*
X343281Y189230D01*
X329898Y189230D02*
X308054Y167386D01*
X202597Y114903D02*
X202597Y78073D01*
X203200Y77470D01*
X327517Y181102D02*
X343281Y181102D01*
X327517Y181102D02*
X309737Y163322D01*
X258572Y163322D02*
X215900Y120650D01*
X258572Y163322D02*
X309737Y163322D01*
X215900Y120650D02*
X215900Y31750D01*
X228600Y19050D01*
X325137Y172974D02*
X343281Y172974D01*
X325137Y172974D02*
X311421Y159258D01*
X260858Y159258D02*
X228600Y127000D01*
X260858Y159258D02*
X311421Y159258D01*
X228600Y127000D02*
X228600Y77470D01*
X456819Y172974D02*
X459359Y170434D01*
X464686Y170434D01*
X476250Y158870D01*
X476250Y107950D01*
X456565Y88265D01*
X450985Y88265D01*
X445270Y82550D02*
X444500Y82550D01*
X445270Y82550D02*
X450985Y88265D01*
X444500Y82550D02*
X444500Y31750D01*
X457200Y19050D01*
X459359Y178562D02*
X456819Y181102D01*
X459359Y178562D02*
X464686Y178562D01*
X482600Y160648D01*
X482600Y102870D02*
X457200Y77470D01*
X482600Y102870D02*
X482600Y160648D01*
X459359Y186690D02*
X456819Y189230D01*
X459359Y186690D02*
X472742Y186690D01*
X481632Y177800D02*
X495300Y177800D01*
X508000Y60460D02*
X508000Y19050D01*
X508000Y60460D02*
X499999Y68461D01*
X499999Y173101D02*
X495300Y177800D01*
X499999Y173101D02*
X499999Y68461D01*
X481632Y177800D02*
X472742Y186690D01*
X459359Y194818D02*
X456819Y197358D01*
X459359Y194818D02*
X470362Y194818D01*
X481188Y183992D01*
X495458Y183992D02*
X508000Y171450D01*
X508000Y77470D01*
X495458Y183992D02*
X481188Y183992D01*
X481188Y222408D02*
X496713Y222408D01*
X480522Y221742D02*
X456819Y221742D01*
X480522Y221742D02*
X481188Y222408D01*
X496713Y222408D02*
X525399Y193722D01*
X525399Y65151D02*
X533400Y57150D01*
X533400Y19050D01*
X525399Y65151D02*
X525399Y193722D01*
X525780Y229870D02*
X456819Y229870D01*
X525780Y229870D02*
X533400Y222250D01*
X533400Y77470D01*
X536702Y237998D02*
X456819Y237998D01*
X584200Y60460D02*
X584200Y19050D01*
X584200Y60460D02*
X576199Y68461D01*
X576199Y198501D01*
X536702Y237998D01*
X534924Y246126D02*
X456819Y246126D01*
X534924Y246126D02*
X584200Y196850D01*
X584200Y77470D01*
X343281Y164846D02*
X322756Y164846D01*
X313104Y155194D01*
X263144Y155194D02*
X241300Y133350D01*
X263144Y155194D02*
X313104Y155194D01*
X241300Y133350D02*
X241300Y31750D01*
X254000Y19050D01*
X456819Y262382D02*
X531368Y262382D01*
X609600Y184150D01*
X609600Y77470D01*
X533146Y254254D02*
X456819Y254254D01*
X609600Y60460D02*
X609600Y19050D01*
X609600Y60460D02*
X601599Y68461D01*
X601599Y185801D01*
X533146Y254254D01*
X456819Y164846D02*
X454279Y162306D01*
X355600Y60460D02*
X355600Y19050D01*
X355600Y60460D02*
X363601Y68461D01*
X448826Y162306D02*
X454279Y162306D01*
X448826Y162306D02*
X363601Y77082D01*
X363601Y68461D01*
X343281Y254254D02*
X303784Y254254D01*
X127000Y77470D01*
X456819Y270510D02*
X529590Y270510D01*
X660400Y139700D01*
X660400Y77470D01*
D27*
X89201Y593700D02*
X79400Y593700D01*
X66700Y606400D02*
X66700Y615950D01*
X66700Y606400D02*
X79400Y593700D01*
X66700Y615950D02*
X48260Y615950D01*
X66700Y633705D02*
X52705Y647700D01*
X66700Y633705D02*
X66700Y615950D01*
X146050Y596900D02*
X146050Y660400D01*
X120650Y685800D01*
X69850Y685800D01*
X50800Y666750D01*
X50800Y641350D01*
X52705Y643255D01*
X52705Y647700D01*
X108077Y531100D02*
X106440Y529463D01*
X108077Y531100D02*
X108077Y557290D01*
X104140Y529463D02*
X95377Y520700D01*
X104140Y529463D02*
X106440Y529463D01*
X108077Y557290D02*
X107950Y557417D01*
X107950Y572050D01*
X91851Y572050D01*
X89201Y574700D01*
X107950Y609050D02*
X107950Y647700D01*
X101600Y647700D01*
X99695Y647700D01*
X99695Y668045D01*
X104750Y673100D01*
X127000Y577850D02*
X146050Y558800D01*
X127000Y577850D02*
X127000Y635000D01*
X114300Y647700D01*
X107950Y647700D01*
D25*
X456819Y294894D02*
X524256Y294894D01*
X736600Y82550D01*
X736600Y77470D01*
X343281Y124206D02*
X308356Y124206D01*
X304800Y120650D01*
X304800Y77470D01*
M02*
