M48
; DRILL file {KiCad 5.1.8-db9833491~88~ubuntu20.04.1} date Sun Jan 24 20:19:50 2021
; FORMAT={-:-/ absolute / metric / decimal}
; #@! TF.CreationDate,2021-01-24T20:19:50-05:00
; #@! TF.GenerationSoftware,Kicad,Pcbnew,5.1.8-db9833491~88~ubuntu20.04.1
FMAT,2
METRIC
T1C0.200
T2C0.500
T3C0.650
T4C2.200
T5C1.700
T6C1.900
%
G90
G05
T1
X80.9Y-115.75
X81.3Y-102.05
X81.35Y-121.1
X81.5Y-92.45
X81.5Y-97.85
X82.0Y-126.6
X82.9Y-104.9
X82.91Y-116.75
X83.14Y-119.04
X83.2Y-113.0
X83.2Y-114.7
X83.3Y-118.33
X83.4Y-105.4
X83.4Y-108.0
X83.4Y-109.6
X83.4Y-110.6
X83.4Y-111.8
X83.46Y-119.65
X83.6Y-94.0
X83.7Y-94.7
X83.86Y-120.17
X84.1Y-130.75
X84.15Y-88.6
X85.3Y-103.5
X85.45Y-88.5
X85.8Y-107.9
X85.9Y-105.2
X85.9Y-106.5
X86.5Y-110.795
X86.61Y-120.63
X86.8Y-108.9
X86.9Y-102.1
X87.164Y-108.423
X87.222Y-112.268
X87.35Y-88.8
X87.61Y-127.61
X87.69Y-120.1
X88.1Y-105.4
X88.1Y-106.7
X88.1Y-108.0
X88.1Y-109.495
X88.1Y-110.5
X88.1Y-111.8
X88.4Y-116.1
X88.59Y-126.94
X88.7Y-114.5
X88.81Y-123.01
X88.91Y-120.37
X89.3Y-108.8
X89.37Y-126.52
X89.4Y-96.1
X89.88Y-118.9
X89.9Y-94.2
X89.9Y-112.8
X89.94Y-126.41
X90.2Y-103.5
X90.37Y-117.89
X90.5Y-108.467
X90.6Y-109.495
X90.6Y-110.6
X90.66Y-127.41
X90.8Y-111.6
X90.8Y-119.54
X90.84Y-120.29
X91.09Y-125.89
X91.228Y-103.1
X91.5Y-95.3
X91.58Y-128.04
X91.8Y-103.1
X91.8Y-109.4
X93.0Y-104.425
X93.1Y-124.7
X93.2Y-120.05
X93.45Y-100.0
X93.6Y-96.9
X93.9Y-113.9
X94.0Y-102.9
X94.0Y-117.9
X94.1Y-103.67
X94.1Y-104.9
X94.1Y-121.8
X94.9Y-106.9
X94.9Y-113.9
X94.9Y-116.9
X95.6Y-130.9
X95.65Y-96.3
X95.7Y-123.7
X95.9Y-118.85
X96.0Y-106.9
X96.0Y-108.9
X96.0Y-111.9
X96.0Y-113.9
X96.1Y-93.2
X96.1Y-104.9
X96.4Y-92.7
X96.8Y-120.4
X96.8Y-121.8
X96.9Y-106.9
X96.9Y-108.9
X96.9Y-111.9
X96.9Y-113.9
X97.0Y-104.9
X97.0Y-115.9
X97.1Y-114.9
X97.3Y-121.4
X97.4Y-120.4
X97.859Y-121.392
X97.9Y-113.9
X97.9Y-115.9
X98.0Y-104.9
X98.0Y-112.9
X98.0Y-120.423
X98.157Y-108.9
X98.4Y-121.5
X99.0Y-107.0
X99.0Y-108.9
X99.383Y-99.453
X99.45Y-129.1
X99.87Y-104.9
X99.9Y-114.9
X99.97Y-111.89
X100.0Y-105.9
X100.0Y-106.9
X100.0Y-108.9
X100.0Y-109.9
X100.0Y-110.9
X100.0Y-115.9
X100.067Y-100.167
X101.0Y-105.9
X101.0Y-107.0
X101.0Y-108.9
X101.0Y-109.9
X101.0Y-110.9
X101.16Y-125.88
X101.4Y-122.0
X101.6Y-125.2
X102.0Y-108.9
X102.0Y-110.9
X102.1Y-102.0
X102.1Y-103.0
X102.1Y-104.0
X102.1Y-105.0
X102.1Y-106.9
X102.1Y-117.8
X102.2Y-105.9
X102.75Y-129.7
X102.9Y-124.6
X103.0Y-104.9
X103.0Y-105.9
X103.0Y-108.9
X103.0Y-110.9
X103.0Y-114.9
X103.0Y-115.9
X103.0Y-118.1
X103.2Y-106.9
X103.68Y-119.27
X103.7Y-99.206
X103.7Y-121.2
X104.1Y-105.9
X104.1Y-108.9
X104.1Y-110.8
X104.1Y-111.9
X104.151Y-98.451
X104.2Y-106.9
X105.0Y-104.9
X105.0Y-112.9
X105.0Y-115.9
X105.1Y-108.0
X105.1Y-109.0
X105.1Y-110.1
X105.1Y-111.8
X105.1Y-113.9
X105.1Y-114.9
X105.2Y-103.9
X105.35Y-100.2
X106.0Y-104.9
X106.0Y-113.9
X106.0Y-115.9
X106.1Y-103.8
X106.1Y-107.9
X106.1Y-108.9
X106.1Y-109.9
X106.1Y-111.13
X106.1Y-112.9
X106.308Y-106.942
X106.7Y-97.75
X107.0Y-128.25
X107.1Y-103.1
X107.1Y-106.9
X107.1Y-108.2
X107.1Y-109.0
X107.1Y-111.1
X107.1Y-113.0
X107.8Y-120.4
X107.9Y-122.7
X108.1Y-103.0
X108.1Y-105.9
X108.1Y-107.0
X108.1Y-109.13
X108.1Y-112.9
X108.1Y-116.7
X108.2Y-126.0
X108.9Y-93.4
X109.0Y-102.9
X109.0Y-117.9
X109.1Y-106.0
X109.1Y-113.0
X109.2Y-107.1
X109.2Y-109.13
X109.8Y-107.35
X110.15Y-130.2
X110.5Y-101.45
X111.065Y-101.91
X111.1Y-101.0
X111.8Y-101.0
X112.4Y-93.4
X112.5Y-121.2
X113.2Y-96.65
X113.9Y-121.3
X114.4Y-108.578
X114.4Y-113.378
X114.4Y-114.178
X114.5Y-106.222
X114.5Y-106.978
X114.5Y-107.733
X114.5Y-112.578
X115.25Y-127.45
X115.5Y-115.4
X116.15Y-119.95
X116.25Y-122.3
X116.3Y-97.9
X116.3Y-105.0
X116.3Y-109.0
X116.3Y-109.8
X116.3Y-111.4
X116.3Y-113.8
X116.3Y-114.6
X117.2Y-105.0
X117.2Y-105.8
X117.2Y-115.4
X117.2Y-116.2
X117.3Y-112.533
X118.55Y-95.65
X119.2Y-109.5
X119.3Y-108.667
X119.3Y-112.533
X120.15Y-119.8
X120.2Y-116.3
X120.276Y-105.082
X120.3Y-108.2
X120.3Y-109.0
X120.3Y-110.6
X120.3Y-115.4
X121.047Y-110.6
X121.075Y-115.425
X121.1Y-105.0
X121.1Y-109.8
X121.1Y-111.4
X121.1Y-112.2
X121.896Y-106.596
X122.0Y-104.1
X122.0Y-105.8
X122.0Y-113.0
X122.0Y-113.8
X122.0Y-114.6
X122.1Y-105.0
X122.1Y-107.5
X122.142Y-108.506
X122.2Y-118.3
X123.0Y-110.35
X123.3Y-100.45
X124.1Y-95.9
X124.8Y-99.95
X125.5Y-98.9
X125.7Y-120.3
X125.7Y-122.15
X125.75Y-104.25
X125.95Y-116.45
X126.05Y-113.45
X126.9Y-90.4
X127.1Y-100.0
X128.5Y-99.8
X128.5Y-120.3
X128.65Y-121.2
X128.75Y-101.2
X128.9Y-107.35
X128.9Y-109.3
X129.6Y-115.2
X130.7Y-115.2
X130.85Y-92.7
X131.65Y-93.55
X131.8Y-115.2
X132.0Y-121.3
X132.55Y-96.75
X132.9Y-115.2
X133.9Y-109.2
X134.15Y-128.85
X135.25Y-114.25
X135.95Y-100.9
X136.65Y-97.15
X136.75Y-124.45
T2
X79.76Y-111.52
X79.7Y-107.0
X136.75Y-102.85
X79.7Y-104.8
X137.0Y-119.55
X128.2Y-91.3
X79.7Y-109.2
X127.9Y-88.3
X124.65Y-90.0
X92.5Y-98.3
X121.5Y-92.9
X118.3Y-124.9
X93.08Y-129.13
X118.4Y-121.4
T3
X85.3Y-121.76
X85.3Y-123.03
X85.3Y-124.3
X85.3Y-125.57
X85.3Y-126.84
X86.57Y-121.76
X86.57Y-123.03
X86.57Y-124.3
X86.57Y-125.57
X86.57Y-126.84
T4
X80.63Y-130.4
X138.62Y-130.4
X80.63Y-88.06
X138.62Y-88.06
T5
X130.2Y-125.5
T6
X125.7Y-125.5
T0
M30
