%TF.GenerationSoftware,KiCad,Pcbnew,5.1.8-db9833491~88~ubuntu20.04.1*%
%TF.CreationDate,2021-01-24T20:19:36-05:00*%
%TF.ProjectId,julia_v2.1.1.0,6a756c69-615f-4763-922e-312e312e302e,rev?*%
%TF.SameCoordinates,Original*%
%TF.FileFunction,Legend,Top*%
%TF.FilePolarity,Positive*%
%FSLAX46Y46*%
G04 Gerber Fmt 4.6, Leading zero omitted, Abs format (unit mm)*
G04 Created by KiCad (PCBNEW 5.1.8-db9833491~88~ubuntu20.04.1) date 2021-01-24 20:19:36*
%MOMM*%
%LPD*%
G01*
G04 APERTURE LIST*
%ADD10C,0.120000*%
%ADD11C,0.100000*%
%ADD12C,0.152400*%
%ADD13C,0.150000*%
G04 APERTURE END LIST*
D10*
X83800000Y-124800000D02*
X84100000Y-124800000D01*
X83800000Y-123900000D02*
X83800000Y-124800000D01*
X84100000Y-123900000D02*
X83800000Y-123900000D01*
D11*
X104255476Y-129461904D02*
X104255476Y-128928571D01*
X104255476Y-128661904D02*
X104217380Y-128700000D01*
X104255476Y-128738095D01*
X104293571Y-128700000D01*
X104255476Y-128661904D01*
X104255476Y-128738095D01*
X104979285Y-129461904D02*
X104979285Y-129042857D01*
X104941190Y-128966666D01*
X104865000Y-128928571D01*
X104712619Y-128928571D01*
X104636428Y-128966666D01*
X104979285Y-129423809D02*
X104903095Y-129461904D01*
X104712619Y-129461904D01*
X104636428Y-129423809D01*
X104598333Y-129347619D01*
X104598333Y-129271428D01*
X104636428Y-129195238D01*
X104712619Y-129157142D01*
X104903095Y-129157142D01*
X104979285Y-129119047D01*
X105360238Y-128928571D02*
X105360238Y-129461904D01*
X105360238Y-129004761D02*
X105398333Y-128966666D01*
X105474523Y-128928571D01*
X105588809Y-128928571D01*
X105665000Y-128966666D01*
X105703095Y-129042857D01*
X105703095Y-129461904D01*
X106084047Y-129461904D02*
X106084047Y-128661904D01*
X106160238Y-129157142D02*
X106388809Y-129461904D01*
X106388809Y-128928571D02*
X106084047Y-129233333D01*
X107226904Y-129080952D02*
X107188809Y-129042857D01*
X107112619Y-129004761D01*
X107036428Y-129004761D01*
X106960238Y-129042857D01*
X106922142Y-129080952D01*
X106884047Y-129157142D01*
X106884047Y-129233333D01*
X106922142Y-129309523D01*
X106960238Y-129347619D01*
X107036428Y-129385714D01*
X107112619Y-129385714D01*
X107188809Y-129347619D01*
X107226904Y-129309523D01*
X107226904Y-129004761D02*
X107226904Y-129309523D01*
X107265000Y-129347619D01*
X107303095Y-129347619D01*
X107379285Y-129309523D01*
X107417380Y-129233333D01*
X107417380Y-129042857D01*
X107341190Y-128928571D01*
X107226904Y-128852380D01*
X107074523Y-128814285D01*
X106922142Y-128852380D01*
X106807857Y-128928571D01*
X106731666Y-129042857D01*
X106693571Y-129195238D01*
X106731666Y-129347619D01*
X106807857Y-129461904D01*
X106922142Y-129538095D01*
X107074523Y-129576190D01*
X107226904Y-129538095D01*
X107341190Y-129461904D01*
X107760238Y-129461904D02*
X107760238Y-128928571D01*
X107760238Y-128661904D02*
X107722142Y-128700000D01*
X107760238Y-128738095D01*
X107798333Y-128700000D01*
X107760238Y-128661904D01*
X107760238Y-128738095D01*
X108484047Y-129461904D02*
X108484047Y-129042857D01*
X108445952Y-128966666D01*
X108369761Y-128928571D01*
X108217380Y-128928571D01*
X108141190Y-128966666D01*
X108484047Y-129423809D02*
X108407857Y-129461904D01*
X108217380Y-129461904D01*
X108141190Y-129423809D01*
X108103095Y-129347619D01*
X108103095Y-129271428D01*
X108141190Y-129195238D01*
X108217380Y-129157142D01*
X108407857Y-129157142D01*
X108484047Y-129119047D01*
X108865000Y-128928571D02*
X108865000Y-129461904D01*
X108865000Y-129004761D02*
X108903095Y-128966666D01*
X108979285Y-128928571D01*
X109093571Y-128928571D01*
X109169761Y-128966666D01*
X109207857Y-129042857D01*
X109207857Y-129461904D01*
X109588809Y-129461904D02*
X109588809Y-128661904D01*
X109665000Y-129157142D02*
X109893571Y-129461904D01*
X109893571Y-128928571D02*
X109588809Y-129233333D01*
X110236428Y-129385714D02*
X110274523Y-129423809D01*
X110236428Y-129461904D01*
X110198333Y-129423809D01*
X110236428Y-129385714D01*
X110236428Y-129461904D01*
X110731666Y-129461904D02*
X110655476Y-129423809D01*
X110617380Y-129385714D01*
X110579285Y-129309523D01*
X110579285Y-129080952D01*
X110617380Y-129004761D01*
X110655476Y-128966666D01*
X110731666Y-128928571D01*
X110845952Y-128928571D01*
X110922142Y-128966666D01*
X110960238Y-129004761D01*
X110998333Y-129080952D01*
X110998333Y-129309523D01*
X110960238Y-129385714D01*
X110922142Y-129423809D01*
X110845952Y-129461904D01*
X110731666Y-129461904D01*
X111341190Y-129461904D02*
X111341190Y-128928571D01*
X111341190Y-129080952D02*
X111379285Y-129004761D01*
X111417380Y-128966666D01*
X111493571Y-128928571D01*
X111569761Y-128928571D01*
X112179285Y-128928571D02*
X112179285Y-129576190D01*
X112141190Y-129652380D01*
X112103095Y-129690476D01*
X112026904Y-129728571D01*
X111912619Y-129728571D01*
X111836428Y-129690476D01*
X112179285Y-129423809D02*
X112103095Y-129461904D01*
X111950714Y-129461904D01*
X111874523Y-129423809D01*
X111836428Y-129385714D01*
X111798333Y-129309523D01*
X111798333Y-129080952D01*
X111836428Y-129004761D01*
X111874523Y-128966666D01*
X111950714Y-128928571D01*
X112103095Y-128928571D01*
X112179285Y-128966666D01*
X104179285Y-130228571D02*
X104369761Y-130761904D01*
X104560238Y-130228571D01*
X104826904Y-130038095D02*
X104865000Y-130000000D01*
X104941190Y-129961904D01*
X105131666Y-129961904D01*
X105207857Y-130000000D01*
X105245952Y-130038095D01*
X105284047Y-130114285D01*
X105284047Y-130190476D01*
X105245952Y-130304761D01*
X104788809Y-130761904D01*
X105284047Y-130761904D01*
X105626904Y-130685714D02*
X105665000Y-130723809D01*
X105626904Y-130761904D01*
X105588809Y-130723809D01*
X105626904Y-130685714D01*
X105626904Y-130761904D01*
X106426904Y-130761904D02*
X105969761Y-130761904D01*
X106198333Y-130761904D02*
X106198333Y-129961904D01*
X106122142Y-130076190D01*
X106045952Y-130152380D01*
X105969761Y-130190476D01*
X106769761Y-130685714D02*
X106807857Y-130723809D01*
X106769761Y-130761904D01*
X106731666Y-130723809D01*
X106769761Y-130685714D01*
X106769761Y-130761904D01*
X107569761Y-130761904D02*
X107112619Y-130761904D01*
X107341190Y-130761904D02*
X107341190Y-129961904D01*
X107265000Y-130076190D01*
X107188809Y-130152380D01*
X107112619Y-130190476D01*
X104217380Y-131338095D02*
X104255476Y-131300000D01*
X104331666Y-131261904D01*
X104522142Y-131261904D01*
X104598333Y-131300000D01*
X104636428Y-131338095D01*
X104674523Y-131414285D01*
X104674523Y-131490476D01*
X104636428Y-131604761D01*
X104179285Y-132061904D01*
X104674523Y-132061904D01*
X105169761Y-131261904D02*
X105245952Y-131261904D01*
X105322142Y-131300000D01*
X105360238Y-131338095D01*
X105398333Y-131414285D01*
X105436428Y-131566666D01*
X105436428Y-131757142D01*
X105398333Y-131909523D01*
X105360238Y-131985714D01*
X105322142Y-132023809D01*
X105245952Y-132061904D01*
X105169761Y-132061904D01*
X105093571Y-132023809D01*
X105055476Y-131985714D01*
X105017380Y-131909523D01*
X104979285Y-131757142D01*
X104979285Y-131566666D01*
X105017380Y-131414285D01*
X105055476Y-131338095D01*
X105093571Y-131300000D01*
X105169761Y-131261904D01*
X105741190Y-131338095D02*
X105779285Y-131300000D01*
X105855476Y-131261904D01*
X106045952Y-131261904D01*
X106122142Y-131300000D01*
X106160238Y-131338095D01*
X106198333Y-131414285D01*
X106198333Y-131490476D01*
X106160238Y-131604761D01*
X105703095Y-132061904D01*
X106198333Y-132061904D01*
X106960238Y-132061904D02*
X106503095Y-132061904D01*
X106731666Y-132061904D02*
X106731666Y-131261904D01*
X106655476Y-131376190D01*
X106579285Y-131452380D01*
X106503095Y-131490476D01*
X107303095Y-131757142D02*
X107912619Y-131757142D01*
X108445952Y-131261904D02*
X108522142Y-131261904D01*
X108598333Y-131300000D01*
X108636428Y-131338095D01*
X108674523Y-131414285D01*
X108712619Y-131566666D01*
X108712619Y-131757142D01*
X108674523Y-131909523D01*
X108636428Y-131985714D01*
X108598333Y-132023809D01*
X108522142Y-132061904D01*
X108445952Y-132061904D01*
X108369761Y-132023809D01*
X108331666Y-131985714D01*
X108293571Y-131909523D01*
X108255476Y-131757142D01*
X108255476Y-131566666D01*
X108293571Y-131414285D01*
X108331666Y-131338095D01*
X108369761Y-131300000D01*
X108445952Y-131261904D01*
X109474523Y-132061904D02*
X109017380Y-132061904D01*
X109245952Y-132061904D02*
X109245952Y-131261904D01*
X109169761Y-131376190D01*
X109093571Y-131452380D01*
X109017380Y-131490476D01*
X109817380Y-131757142D02*
X110426904Y-131757142D01*
X110769761Y-131338095D02*
X110807857Y-131300000D01*
X110884047Y-131261904D01*
X111074523Y-131261904D01*
X111150714Y-131300000D01*
X111188809Y-131338095D01*
X111226904Y-131414285D01*
X111226904Y-131490476D01*
X111188809Y-131604761D01*
X110731666Y-132061904D01*
X111226904Y-132061904D01*
X111912619Y-131528571D02*
X111912619Y-132061904D01*
X111722142Y-131223809D02*
X111531666Y-131795238D01*
X112026904Y-131795238D01*
D10*
%TO.C,U7*%
X128900000Y-95890000D02*
X127100000Y-95890000D01*
X127100000Y-99110000D02*
X129550000Y-99110000D01*
%TO.C,J2*%
X84170000Y-127535000D02*
X84992470Y-127535000D01*
X86877530Y-127535000D02*
X87700000Y-127535000D01*
X85607530Y-127535000D02*
X86262470Y-127535000D01*
X84170000Y-122520000D02*
X84170000Y-127535000D01*
X87700000Y-121065000D02*
X87700000Y-127535000D01*
X84170000Y-122520000D02*
X84736529Y-122520000D01*
X85863471Y-122520000D02*
X86006529Y-122520000D01*
X86060000Y-122466529D02*
X86060000Y-122323471D01*
X86060000Y-121196529D02*
X86060000Y-121065000D01*
X86060000Y-121065000D02*
X86262470Y-121065000D01*
X86877530Y-121065000D02*
X87700000Y-121065000D01*
X84170000Y-121760000D02*
X84170000Y-121000000D01*
X84170000Y-121000000D02*
X85300000Y-121000000D01*
%TO.C,C44*%
X125040000Y-97707836D02*
X125040000Y-97492164D01*
X125760000Y-97707836D02*
X125760000Y-97492164D01*
%TO.C,U1*%
X109700000Y-118500000D02*
X109700000Y-101300000D01*
X92500000Y-118500000D02*
X109700000Y-118500000D01*
X92500000Y-101300000D02*
X92500000Y-118500000D01*
X109700000Y-101300000D02*
X92500000Y-101300000D01*
X92300000Y-101100000D02*
X92300000Y-101800000D01*
X93000000Y-101100000D02*
X92300000Y-101100000D01*
D12*
%TO.C,U8*%
X114121700Y-103519800D02*
X114121700Y-116880200D01*
X122478300Y-103519800D02*
X114121700Y-103519800D01*
X122478300Y-116880200D02*
X122478300Y-103519800D01*
X114121700Y-116880200D02*
X122478300Y-116880200D01*
X118300000Y-116753200D02*
X118300000Y-117007200D01*
X118300000Y-103646800D02*
X118300000Y-103392800D01*
X122351300Y-115799938D02*
X122605300Y-115799938D01*
X114248700Y-115799938D02*
X113994700Y-115799938D01*
X122351300Y-111799946D02*
X122605300Y-111799946D01*
X114248700Y-111799946D02*
X113994700Y-111799946D01*
X122351300Y-107799954D02*
X122605300Y-107799954D01*
X114248700Y-107799954D02*
X113994700Y-107799954D01*
D10*
%TO.C,U6*%
X97630000Y-122350000D02*
X98130000Y-122350000D01*
X100950000Y-125670000D02*
X100950000Y-125170000D01*
X100450000Y-125670000D02*
X100950000Y-125670000D01*
X97630000Y-125670000D02*
X97630000Y-125170000D01*
X98130000Y-125670000D02*
X97630000Y-125670000D01*
X100950000Y-122350000D02*
X100950000Y-122850000D01*
X100450000Y-122350000D02*
X100950000Y-122350000D01*
%TO.C,U5*%
X109100000Y-121340000D02*
X105650000Y-121340000D01*
X109100000Y-121340000D02*
X111050000Y-121340000D01*
X109100000Y-126460000D02*
X107150000Y-126460000D01*
X109100000Y-126460000D02*
X111050000Y-126460000D01*
%TO.C,TP14*%
X125350000Y-90000000D02*
G75*
G03*
X125350000Y-90000000I-700000J0D01*
G01*
%TO.C,TP13*%
X128900000Y-91300000D02*
G75*
G03*
X128900000Y-91300000I-700000J0D01*
G01*
%TO.C,TP12*%
X122200000Y-92900000D02*
G75*
G03*
X122200000Y-92900000I-700000J0D01*
G01*
%TO.C,TP11*%
X80460000Y-111520000D02*
G75*
G03*
X80460000Y-111520000I-700000J0D01*
G01*
%TO.C,TP10*%
X80400000Y-104800000D02*
G75*
G03*
X80400000Y-104800000I-700000J0D01*
G01*
%TO.C,TP9*%
X80400000Y-109200000D02*
G75*
G03*
X80400000Y-109200000I-700000J0D01*
G01*
%TO.C,TP8*%
X93780000Y-129130000D02*
G75*
G03*
X93780000Y-129130000I-700000J0D01*
G01*
%TO.C,TP7*%
X80400000Y-107000000D02*
G75*
G03*
X80400000Y-107000000I-700000J0D01*
G01*
%TO.C,TP6*%
X93200000Y-98300000D02*
G75*
G03*
X93200000Y-98300000I-700000J0D01*
G01*
%TO.C,TP5*%
X119100000Y-121400000D02*
G75*
G03*
X119100000Y-121400000I-700000J0D01*
G01*
%TO.C,TP1*%
X119000000Y-124900000D02*
G75*
G03*
X119000000Y-124900000I-700000J0D01*
G01*
%TO.C,R31*%
X89136359Y-112380000D02*
X89443641Y-112380000D01*
X89136359Y-111620000D02*
X89443641Y-111620000D01*
%TO.C,R30*%
X89146359Y-107180000D02*
X89453641Y-107180000D01*
X89146359Y-106420000D02*
X89453641Y-106420000D01*
%TO.C,R29*%
X89146359Y-109780000D02*
X89453641Y-109780000D01*
X89146359Y-109020000D02*
X89453641Y-109020000D01*
%TO.C,R28*%
X89146359Y-108480000D02*
X89453641Y-108480000D01*
X89146359Y-107720000D02*
X89453641Y-107720000D01*
%TO.C,R27*%
X89146359Y-105880000D02*
X89453641Y-105880000D01*
X89146359Y-105120000D02*
X89453641Y-105120000D01*
%TO.C,R26*%
X89453641Y-110320000D02*
X89146359Y-110320000D01*
X89453641Y-111080000D02*
X89146359Y-111080000D01*
%TO.C,R25*%
X84753641Y-105120000D02*
X84446359Y-105120000D01*
X84753641Y-105880000D02*
X84446359Y-105880000D01*
%TO.C,R24*%
X84753641Y-106420000D02*
X84446359Y-106420000D01*
X84753641Y-107180000D02*
X84446359Y-107180000D01*
%TO.C,R23*%
X84753641Y-111620000D02*
X84446359Y-111620000D01*
X84753641Y-112380000D02*
X84446359Y-112380000D01*
%TO.C,R22*%
X84456359Y-111080000D02*
X84763641Y-111080000D01*
X84456359Y-110320000D02*
X84763641Y-110320000D01*
%TO.C,R21*%
X84446359Y-104580000D02*
X84753641Y-104580000D01*
X84446359Y-103820000D02*
X84753641Y-103820000D01*
%TO.C,R20*%
X89146359Y-104580000D02*
X89453641Y-104580000D01*
X89146359Y-103820000D02*
X89453641Y-103820000D01*
%TO.C,R18*%
X84446359Y-108480000D02*
X84753641Y-108480000D01*
X84446359Y-107720000D02*
X84753641Y-107720000D01*
%TO.C,R16*%
X84753641Y-109020000D02*
X84446359Y-109020000D01*
X84753641Y-109780000D02*
X84446359Y-109780000D01*
%TO.C,R15*%
X91180000Y-98553641D02*
X91180000Y-98246359D01*
X90420000Y-98553641D02*
X90420000Y-98246359D01*
%TO.C,R14*%
X132180000Y-114053641D02*
X132180000Y-113746359D01*
X131420000Y-114053641D02*
X131420000Y-113746359D01*
%TO.C,R13*%
X132520000Y-113746359D02*
X132520000Y-114053641D01*
X133280000Y-113746359D02*
X133280000Y-114053641D01*
%TO.C,R12*%
X131080000Y-114053641D02*
X131080000Y-113746359D01*
X130320000Y-114053641D02*
X130320000Y-113746359D01*
%TO.C,R11*%
X129980000Y-114053641D02*
X129980000Y-113746359D01*
X129220000Y-114053641D02*
X129220000Y-113746359D01*
%TO.C,R10*%
X129205000Y-100852936D02*
X129205000Y-101307064D01*
X130675000Y-100852936D02*
X130675000Y-101307064D01*
%TO.C,R8*%
X113320000Y-122446359D02*
X113320000Y-122753641D01*
X114080000Y-122446359D02*
X114080000Y-122753641D01*
%TO.C,R7*%
X103946359Y-124980000D02*
X104253641Y-124980000D01*
X103946359Y-124220000D02*
X104253641Y-124220000D01*
%TO.C,R6*%
X103946359Y-122380000D02*
X104253641Y-122380000D01*
X103946359Y-121620000D02*
X104253641Y-121620000D01*
%TO.C,R5*%
X94546359Y-125780000D02*
X94853641Y-125780000D01*
X94546359Y-125020000D02*
X94853641Y-125020000D01*
%TO.C,R4*%
X88056359Y-95580000D02*
X88363641Y-95580000D01*
X88056359Y-94820000D02*
X88363641Y-94820000D01*
%TO.C,R3*%
X88046359Y-93680000D02*
X88353641Y-93680000D01*
X88046359Y-92920000D02*
X88353641Y-92920000D01*
%TO.C,R2*%
X87646359Y-114080000D02*
X87953641Y-114080000D01*
X87646359Y-113320000D02*
X87953641Y-113320000D01*
%TO.C,R1*%
X87646359Y-115780000D02*
X87953641Y-115780000D01*
X87646359Y-115020000D02*
X87953641Y-115020000D01*
%TO.C,L1*%
X118100000Y-97800000D02*
X120250000Y-95700000D01*
X118100000Y-97800000D02*
X120250000Y-99950000D01*
X124700000Y-97800000D02*
X122550000Y-99950000D01*
X124700000Y-97800000D02*
X122550000Y-95650000D01*
%TO.C,J5*%
X126360000Y-110820000D02*
X128340000Y-110820000D01*
X126360000Y-111170000D02*
X126360000Y-110820000D01*
X125590000Y-111170000D02*
X126360000Y-111170000D01*
X125590000Y-110100000D02*
X125590000Y-111170000D01*
X126390000Y-107000000D02*
X125590000Y-107000000D01*
X126390000Y-105700000D02*
X126390000Y-107000000D01*
X136210000Y-105700000D02*
X126390000Y-105700000D01*
X136210000Y-107000000D02*
X136210000Y-105700000D01*
X137010000Y-107000000D02*
X136210000Y-107000000D01*
X137010000Y-111170000D02*
X137010000Y-110200000D01*
X136240000Y-111170000D02*
X137010000Y-111170000D01*
X136240000Y-110820000D02*
X136240000Y-111170000D01*
X134260000Y-110820000D02*
X136240000Y-110820000D01*
X134260000Y-111410000D02*
X134260000Y-110820000D01*
%TO.C,J4*%
X117660000Y-90460000D02*
X117660000Y-90540000D01*
X118260000Y-90460000D02*
X117660000Y-90460000D01*
X118260000Y-90460000D02*
X118260000Y-89340000D01*
X91840000Y-89340000D02*
X118260000Y-89340000D01*
X91840000Y-90460000D02*
X91840000Y-89340000D01*
X92440000Y-90460000D02*
X92440000Y-90540000D01*
X92440000Y-90460000D02*
X91840000Y-90460000D01*
X92440000Y-94460000D02*
X94490000Y-94460000D01*
X92440000Y-94460000D02*
X92440000Y-93460000D01*
X117660000Y-94460000D02*
X117660000Y-93460000D01*
X115610000Y-94460000D02*
X115610000Y-95240000D01*
X115610000Y-94460000D02*
X117660000Y-94460000D01*
%TO.C,J1*%
X131980000Y-122550000D02*
X127180000Y-122550000D01*
X131980000Y-128550000D02*
X127180000Y-128550000D01*
X131980000Y-120990000D02*
X131980000Y-130110000D01*
X135290000Y-120990000D02*
X135290000Y-130110000D01*
X135290000Y-120990000D02*
X131680000Y-120990000D01*
X128680000Y-120990000D02*
X125680000Y-120990000D01*
X122680000Y-120990000D02*
X120370000Y-120990000D01*
X122680000Y-130110000D02*
X120370000Y-130110000D01*
X128680000Y-130110000D02*
X125680000Y-130110000D01*
X120370000Y-120990000D02*
X120370000Y-130110000D01*
X135290000Y-130110000D02*
X131680000Y-130110000D01*
X131450000Y-132020000D02*
X131450000Y-130120000D01*
X127180000Y-128550000D02*
G75*
G02*
X127180000Y-122550000I0J3000000D01*
G01*
%TO.C,FB1*%
X86640000Y-90437221D02*
X86640000Y-90762779D01*
X87660000Y-90437221D02*
X87660000Y-90762779D01*
%TO.C,F1*%
X119210000Y-130402064D02*
X119210000Y-129197936D01*
X117390000Y-130402064D02*
X117390000Y-129197936D01*
%TO.C,D5*%
X128710000Y-95400000D02*
X124810000Y-95400000D01*
X128710000Y-93400000D02*
X124810000Y-93400000D01*
X128710000Y-95400000D02*
X128710000Y-93400000D01*
%TO.C,D4*%
X86985000Y-94465000D02*
X84700000Y-94465000D01*
X86985000Y-95935000D02*
X86985000Y-94465000D01*
X84700000Y-95935000D02*
X86985000Y-95935000D01*
%TO.C,D3*%
X86985000Y-92565000D02*
X84700000Y-92565000D01*
X86985000Y-94035000D02*
X86985000Y-92565000D01*
X84700000Y-94035000D02*
X86985000Y-94035000D01*
%TO.C,D2*%
X86585000Y-112965000D02*
X84300000Y-112965000D01*
X86585000Y-114435000D02*
X86585000Y-112965000D01*
X84300000Y-114435000D02*
X86585000Y-114435000D01*
%TO.C,D1*%
X86585000Y-114665000D02*
X84300000Y-114665000D01*
X86585000Y-116135000D02*
X86585000Y-114665000D01*
X84300000Y-116135000D02*
X86585000Y-116135000D01*
%TO.C,C47*%
X84210000Y-89907836D02*
X84210000Y-89692164D01*
X83490000Y-89907836D02*
X83490000Y-89692164D01*
%TO.C,C46*%
X86135000Y-92210000D02*
X86135000Y-89500000D01*
X84565000Y-92210000D02*
X86135000Y-92210000D01*
X84565000Y-89500000D02*
X84565000Y-92210000D01*
%TO.C,C45*%
X130510000Y-94040580D02*
X130510000Y-93759420D01*
X129490000Y-94040580D02*
X129490000Y-93759420D01*
%TO.C,C43*%
X126359420Y-101510000D02*
X126640580Y-101510000D01*
X126359420Y-100490000D02*
X126640580Y-100490000D01*
%TO.C,C42*%
X94807836Y-122140000D02*
X94592164Y-122140000D01*
X94807836Y-122860000D02*
X94592164Y-122860000D01*
%TO.C,C41*%
X94240580Y-123390000D02*
X93959420Y-123390000D01*
X94240580Y-124410000D02*
X93959420Y-124410000D01*
%TO.C,H4*%
D13*
X138838095Y-91652380D02*
X138838095Y-90652380D01*
X138838095Y-91128571D02*
X139409523Y-91128571D01*
X139409523Y-91652380D02*
X139409523Y-90652380D01*
X140314285Y-90985714D02*
X140314285Y-91652380D01*
X140076190Y-90604761D02*
X139838095Y-91319047D01*
X140457142Y-91319047D01*
%TO.C,H3*%
X137858095Y-127652380D02*
X137858095Y-126652380D01*
X137858095Y-127128571D02*
X138429523Y-127128571D01*
X138429523Y-127652380D02*
X138429523Y-126652380D01*
X138810476Y-126652380D02*
X139429523Y-126652380D01*
X139096190Y-127033333D01*
X139239047Y-127033333D01*
X139334285Y-127080952D01*
X139381904Y-127128571D01*
X139429523Y-127223809D01*
X139429523Y-127461904D01*
X139381904Y-127557142D01*
X139334285Y-127604761D01*
X139239047Y-127652380D01*
X138953333Y-127652380D01*
X138858095Y-127604761D01*
X138810476Y-127557142D01*
%TO.C,H2*%
X79868095Y-127652380D02*
X79868095Y-126652380D01*
X79868095Y-127128571D02*
X80439523Y-127128571D01*
X80439523Y-127652380D02*
X80439523Y-126652380D01*
X80868095Y-126747619D02*
X80915714Y-126700000D01*
X81010952Y-126652380D01*
X81249047Y-126652380D01*
X81344285Y-126700000D01*
X81391904Y-126747619D01*
X81439523Y-126842857D01*
X81439523Y-126938095D01*
X81391904Y-127080952D01*
X80820476Y-127652380D01*
X81439523Y-127652380D01*
%TO.C,H1*%
X79888095Y-91692380D02*
X79888095Y-90692380D01*
X79888095Y-91168571D02*
X80459523Y-91168571D01*
X80459523Y-91692380D02*
X80459523Y-90692380D01*
X81459523Y-91692380D02*
X80888095Y-91692380D01*
X81173809Y-91692380D02*
X81173809Y-90692380D01*
X81078571Y-90835238D01*
X80983333Y-90930476D01*
X80888095Y-90978095D01*
%TO.C,U7*%
X130038095Y-96152380D02*
X130038095Y-96961904D01*
X130085714Y-97057142D01*
X130133333Y-97104761D01*
X130228571Y-97152380D01*
X130419047Y-97152380D01*
X130514285Y-97104761D01*
X130561904Y-97057142D01*
X130609523Y-96961904D01*
X130609523Y-96152380D01*
X130990476Y-96152380D02*
X131657142Y-96152380D01*
X131228571Y-97152380D01*
%TO.C,J2*%
X85466666Y-127952380D02*
X85466666Y-128666666D01*
X85419047Y-128809523D01*
X85323809Y-128904761D01*
X85180952Y-128952380D01*
X85085714Y-128952380D01*
X85895238Y-128047619D02*
X85942857Y-128000000D01*
X86038095Y-127952380D01*
X86276190Y-127952380D01*
X86371428Y-128000000D01*
X86419047Y-128047619D01*
X86466666Y-128142857D01*
X86466666Y-128238095D01*
X86419047Y-128380952D01*
X85847619Y-128952380D01*
X86466666Y-128952380D01*
%TO.C,C44*%
X124457142Y-99557142D02*
X124409523Y-99604761D01*
X124266666Y-99652380D01*
X124171428Y-99652380D01*
X124028571Y-99604761D01*
X123933333Y-99509523D01*
X123885714Y-99414285D01*
X123838095Y-99223809D01*
X123838095Y-99080952D01*
X123885714Y-98890476D01*
X123933333Y-98795238D01*
X124028571Y-98700000D01*
X124171428Y-98652380D01*
X124266666Y-98652380D01*
X124409523Y-98700000D01*
X124457142Y-98747619D01*
X125314285Y-98985714D02*
X125314285Y-99652380D01*
X125076190Y-98604761D02*
X124838095Y-99319047D01*
X125457142Y-99319047D01*
X126266666Y-98985714D02*
X126266666Y-99652380D01*
X126028571Y-98604761D02*
X125790476Y-99319047D01*
X126409523Y-99319047D01*
%TO.C,U1*%
X100338095Y-99752380D02*
X100338095Y-100561904D01*
X100385714Y-100657142D01*
X100433333Y-100704761D01*
X100528571Y-100752380D01*
X100719047Y-100752380D01*
X100814285Y-100704761D01*
X100861904Y-100657142D01*
X100909523Y-100561904D01*
X100909523Y-99752380D01*
X101909523Y-100752380D02*
X101338095Y-100752380D01*
X101623809Y-100752380D02*
X101623809Y-99752380D01*
X101528571Y-99895238D01*
X101433333Y-99990476D01*
X101338095Y-100038095D01*
%TO.C,U8*%
X117838095Y-101752380D02*
X117838095Y-102561904D01*
X117885714Y-102657142D01*
X117933333Y-102704761D01*
X118028571Y-102752380D01*
X118219047Y-102752380D01*
X118314285Y-102704761D01*
X118361904Y-102657142D01*
X118409523Y-102561904D01*
X118409523Y-101752380D01*
X119028571Y-102180952D02*
X118933333Y-102133333D01*
X118885714Y-102085714D01*
X118838095Y-101990476D01*
X118838095Y-101942857D01*
X118885714Y-101847619D01*
X118933333Y-101800000D01*
X119028571Y-101752380D01*
X119219047Y-101752380D01*
X119314285Y-101800000D01*
X119361904Y-101847619D01*
X119409523Y-101942857D01*
X119409523Y-101990476D01*
X119361904Y-102085714D01*
X119314285Y-102133333D01*
X119219047Y-102180952D01*
X119028571Y-102180952D01*
X118933333Y-102228571D01*
X118885714Y-102276190D01*
X118838095Y-102371428D01*
X118838095Y-102561904D01*
X118885714Y-102657142D01*
X118933333Y-102704761D01*
X119028571Y-102752380D01*
X119219047Y-102752380D01*
X119314285Y-102704761D01*
X119361904Y-102657142D01*
X119409523Y-102561904D01*
X119409523Y-102371428D01*
X119361904Y-102276190D01*
X119314285Y-102228571D01*
X119219047Y-102180952D01*
X113600000Y-102652380D02*
X113600000Y-102890476D01*
X113361904Y-102795238D02*
X113600000Y-102890476D01*
X113838095Y-102795238D01*
X113457142Y-103080952D02*
X113600000Y-102890476D01*
X113742857Y-103080952D01*
%TO.C,X1*%
X81890476Y-95352380D02*
X82557142Y-96352380D01*
X82557142Y-95352380D02*
X81890476Y-96352380D01*
X83461904Y-96352380D02*
X82890476Y-96352380D01*
X83176190Y-96352380D02*
X83176190Y-95352380D01*
X83080952Y-95495238D01*
X82985714Y-95590476D01*
X82890476Y-95638095D01*
%TO.C,U6*%
X98528095Y-120462380D02*
X98528095Y-121271904D01*
X98575714Y-121367142D01*
X98623333Y-121414761D01*
X98718571Y-121462380D01*
X98909047Y-121462380D01*
X99004285Y-121414761D01*
X99051904Y-121367142D01*
X99099523Y-121271904D01*
X99099523Y-120462380D01*
X100004285Y-120462380D02*
X99813809Y-120462380D01*
X99718571Y-120510000D01*
X99670952Y-120557619D01*
X99575714Y-120700476D01*
X99528095Y-120890952D01*
X99528095Y-121271904D01*
X99575714Y-121367142D01*
X99623333Y-121414761D01*
X99718571Y-121462380D01*
X99909047Y-121462380D01*
X100004285Y-121414761D01*
X100051904Y-121367142D01*
X100099523Y-121271904D01*
X100099523Y-121033809D01*
X100051904Y-120938571D01*
X100004285Y-120890952D01*
X99909047Y-120843333D01*
X99718571Y-120843333D01*
X99623333Y-120890952D01*
X99575714Y-120938571D01*
X99528095Y-121033809D01*
%TO.C,U5*%
X108338095Y-119952380D02*
X108338095Y-120761904D01*
X108385714Y-120857142D01*
X108433333Y-120904761D01*
X108528571Y-120952380D01*
X108719047Y-120952380D01*
X108814285Y-120904761D01*
X108861904Y-120857142D01*
X108909523Y-120761904D01*
X108909523Y-119952380D01*
X109861904Y-119952380D02*
X109385714Y-119952380D01*
X109338095Y-120428571D01*
X109385714Y-120380952D01*
X109480952Y-120333333D01*
X109719047Y-120333333D01*
X109814285Y-120380952D01*
X109861904Y-120428571D01*
X109909523Y-120523809D01*
X109909523Y-120761904D01*
X109861904Y-120857142D01*
X109814285Y-120904761D01*
X109719047Y-120952380D01*
X109480952Y-120952380D01*
X109385714Y-120904761D01*
X109338095Y-120857142D01*
%TO.C,TP14*%
X122911904Y-88004380D02*
X123483333Y-88004380D01*
X123197619Y-89004380D02*
X123197619Y-88004380D01*
X123816666Y-89004380D02*
X123816666Y-88004380D01*
X124197619Y-88004380D01*
X124292857Y-88052000D01*
X124340476Y-88099619D01*
X124388095Y-88194857D01*
X124388095Y-88337714D01*
X124340476Y-88432952D01*
X124292857Y-88480571D01*
X124197619Y-88528190D01*
X123816666Y-88528190D01*
X125340476Y-89004380D02*
X124769047Y-89004380D01*
X125054761Y-89004380D02*
X125054761Y-88004380D01*
X124959523Y-88147238D01*
X124864285Y-88242476D01*
X124769047Y-88290095D01*
X126197619Y-88337714D02*
X126197619Y-89004380D01*
X125959523Y-87956761D02*
X125721428Y-88671047D01*
X126340476Y-88671047D01*
%TO.C,TP13*%
X126461904Y-89304380D02*
X127033333Y-89304380D01*
X126747619Y-90304380D02*
X126747619Y-89304380D01*
X127366666Y-90304380D02*
X127366666Y-89304380D01*
X127747619Y-89304380D01*
X127842857Y-89352000D01*
X127890476Y-89399619D01*
X127938095Y-89494857D01*
X127938095Y-89637714D01*
X127890476Y-89732952D01*
X127842857Y-89780571D01*
X127747619Y-89828190D01*
X127366666Y-89828190D01*
X128890476Y-90304380D02*
X128319047Y-90304380D01*
X128604761Y-90304380D02*
X128604761Y-89304380D01*
X128509523Y-89447238D01*
X128414285Y-89542476D01*
X128319047Y-89590095D01*
X129223809Y-89304380D02*
X129842857Y-89304380D01*
X129509523Y-89685333D01*
X129652380Y-89685333D01*
X129747619Y-89732952D01*
X129795238Y-89780571D01*
X129842857Y-89875809D01*
X129842857Y-90113904D01*
X129795238Y-90209142D01*
X129747619Y-90256761D01*
X129652380Y-90304380D01*
X129366666Y-90304380D01*
X129271428Y-90256761D01*
X129223809Y-90209142D01*
%TO.C,TP12*%
X119761904Y-90452380D02*
X120333333Y-90452380D01*
X120047619Y-91452380D02*
X120047619Y-90452380D01*
X120666666Y-91452380D02*
X120666666Y-90452380D01*
X121047619Y-90452380D01*
X121142857Y-90500000D01*
X121190476Y-90547619D01*
X121238095Y-90642857D01*
X121238095Y-90785714D01*
X121190476Y-90880952D01*
X121142857Y-90928571D01*
X121047619Y-90976190D01*
X120666666Y-90976190D01*
X122190476Y-91452380D02*
X121619047Y-91452380D01*
X121904761Y-91452380D02*
X121904761Y-90452380D01*
X121809523Y-90595238D01*
X121714285Y-90690476D01*
X121619047Y-90738095D01*
X122571428Y-90547619D02*
X122619047Y-90500000D01*
X122714285Y-90452380D01*
X122952380Y-90452380D01*
X123047619Y-90500000D01*
X123095238Y-90547619D01*
X123142857Y-90642857D01*
X123142857Y-90738095D01*
X123095238Y-90880952D01*
X122523809Y-91452380D01*
X123142857Y-91452380D01*
%TO.C,TP11*%
X79052380Y-116138095D02*
X79052380Y-115566666D01*
X80052380Y-115852380D02*
X79052380Y-115852380D01*
X80052380Y-115233333D02*
X79052380Y-115233333D01*
X79052380Y-114852380D01*
X79100000Y-114757142D01*
X79147619Y-114709523D01*
X79242857Y-114661904D01*
X79385714Y-114661904D01*
X79480952Y-114709523D01*
X79528571Y-114757142D01*
X79576190Y-114852380D01*
X79576190Y-115233333D01*
X80052380Y-113709523D02*
X80052380Y-114280952D01*
X80052380Y-113995238D02*
X79052380Y-113995238D01*
X79195238Y-114090476D01*
X79290476Y-114185714D01*
X79338095Y-114280952D01*
X80052380Y-112757142D02*
X80052380Y-113328571D01*
X80052380Y-113042857D02*
X79052380Y-113042857D01*
X79195238Y-113138095D01*
X79290476Y-113233333D01*
X79338095Y-113328571D01*
%TO.C,TP10*%
X78511904Y-99652380D02*
X79083333Y-99652380D01*
X78797619Y-100652380D02*
X78797619Y-99652380D01*
X79416666Y-100652380D02*
X79416666Y-99652380D01*
X79797619Y-99652380D01*
X79892857Y-99700000D01*
X79940476Y-99747619D01*
X79988095Y-99842857D01*
X79988095Y-99985714D01*
X79940476Y-100080952D01*
X79892857Y-100128571D01*
X79797619Y-100176190D01*
X79416666Y-100176190D01*
X80940476Y-100652380D02*
X80369047Y-100652380D01*
X80654761Y-100652380D02*
X80654761Y-99652380D01*
X80559523Y-99795238D01*
X80464285Y-99890476D01*
X80369047Y-99938095D01*
X81559523Y-99652380D02*
X81654761Y-99652380D01*
X81750000Y-99700000D01*
X81797619Y-99747619D01*
X81845238Y-99842857D01*
X81892857Y-100033333D01*
X81892857Y-100271428D01*
X81845238Y-100461904D01*
X81797619Y-100557142D01*
X81750000Y-100604761D01*
X81654761Y-100652380D01*
X81559523Y-100652380D01*
X81464285Y-100604761D01*
X81416666Y-100557142D01*
X81369047Y-100461904D01*
X81321428Y-100271428D01*
X81321428Y-100033333D01*
X81369047Y-99842857D01*
X81416666Y-99747619D01*
X81464285Y-99700000D01*
X81559523Y-99652380D01*
%TO.C,TP9*%
X78438095Y-102552380D02*
X79009523Y-102552380D01*
X78723809Y-103552380D02*
X78723809Y-102552380D01*
X79342857Y-103552380D02*
X79342857Y-102552380D01*
X79723809Y-102552380D01*
X79819047Y-102600000D01*
X79866666Y-102647619D01*
X79914285Y-102742857D01*
X79914285Y-102885714D01*
X79866666Y-102980952D01*
X79819047Y-103028571D01*
X79723809Y-103076190D01*
X79342857Y-103076190D01*
X80390476Y-103552380D02*
X80580952Y-103552380D01*
X80676190Y-103504761D01*
X80723809Y-103457142D01*
X80819047Y-103314285D01*
X80866666Y-103123809D01*
X80866666Y-102742857D01*
X80819047Y-102647619D01*
X80771428Y-102600000D01*
X80676190Y-102552380D01*
X80485714Y-102552380D01*
X80390476Y-102600000D01*
X80342857Y-102647619D01*
X80295238Y-102742857D01*
X80295238Y-102980952D01*
X80342857Y-103076190D01*
X80390476Y-103123809D01*
X80485714Y-103171428D01*
X80676190Y-103171428D01*
X80771428Y-103123809D01*
X80819047Y-103076190D01*
X80866666Y-102980952D01*
%TO.C,TP8*%
X89218095Y-128482380D02*
X89789523Y-128482380D01*
X89503809Y-129482380D02*
X89503809Y-128482380D01*
X90122857Y-129482380D02*
X90122857Y-128482380D01*
X90503809Y-128482380D01*
X90599047Y-128530000D01*
X90646666Y-128577619D01*
X90694285Y-128672857D01*
X90694285Y-128815714D01*
X90646666Y-128910952D01*
X90599047Y-128958571D01*
X90503809Y-129006190D01*
X90122857Y-129006190D01*
X91265714Y-128910952D02*
X91170476Y-128863333D01*
X91122857Y-128815714D01*
X91075238Y-128720476D01*
X91075238Y-128672857D01*
X91122857Y-128577619D01*
X91170476Y-128530000D01*
X91265714Y-128482380D01*
X91456190Y-128482380D01*
X91551428Y-128530000D01*
X91599047Y-128577619D01*
X91646666Y-128672857D01*
X91646666Y-128720476D01*
X91599047Y-128815714D01*
X91551428Y-128863333D01*
X91456190Y-128910952D01*
X91265714Y-128910952D01*
X91170476Y-128958571D01*
X91122857Y-129006190D01*
X91075238Y-129101428D01*
X91075238Y-129291904D01*
X91122857Y-129387142D01*
X91170476Y-129434761D01*
X91265714Y-129482380D01*
X91456190Y-129482380D01*
X91551428Y-129434761D01*
X91599047Y-129387142D01*
X91646666Y-129291904D01*
X91646666Y-129101428D01*
X91599047Y-129006190D01*
X91551428Y-128958571D01*
X91456190Y-128910952D01*
%TO.C,TP7*%
X78488095Y-101252380D02*
X79059523Y-101252380D01*
X78773809Y-102252380D02*
X78773809Y-101252380D01*
X79392857Y-102252380D02*
X79392857Y-101252380D01*
X79773809Y-101252380D01*
X79869047Y-101300000D01*
X79916666Y-101347619D01*
X79964285Y-101442857D01*
X79964285Y-101585714D01*
X79916666Y-101680952D01*
X79869047Y-101728571D01*
X79773809Y-101776190D01*
X79392857Y-101776190D01*
X80297619Y-101252380D02*
X80964285Y-101252380D01*
X80535714Y-102252380D01*
%TO.C,TP6*%
X91238095Y-96304380D02*
X91809523Y-96304380D01*
X91523809Y-97304380D02*
X91523809Y-96304380D01*
X92142857Y-97304380D02*
X92142857Y-96304380D01*
X92523809Y-96304380D01*
X92619047Y-96352000D01*
X92666666Y-96399619D01*
X92714285Y-96494857D01*
X92714285Y-96637714D01*
X92666666Y-96732952D01*
X92619047Y-96780571D01*
X92523809Y-96828190D01*
X92142857Y-96828190D01*
X93571428Y-96304380D02*
X93380952Y-96304380D01*
X93285714Y-96352000D01*
X93238095Y-96399619D01*
X93142857Y-96542476D01*
X93095238Y-96732952D01*
X93095238Y-97113904D01*
X93142857Y-97209142D01*
X93190476Y-97256761D01*
X93285714Y-97304380D01*
X93476190Y-97304380D01*
X93571428Y-97256761D01*
X93619047Y-97209142D01*
X93666666Y-97113904D01*
X93666666Y-96875809D01*
X93619047Y-96780571D01*
X93571428Y-96732952D01*
X93476190Y-96685333D01*
X93285714Y-96685333D01*
X93190476Y-96732952D01*
X93142857Y-96780571D01*
X93095238Y-96875809D01*
%TO.C,TP5*%
X117138095Y-119404380D02*
X117709523Y-119404380D01*
X117423809Y-120404380D02*
X117423809Y-119404380D01*
X118042857Y-120404380D02*
X118042857Y-119404380D01*
X118423809Y-119404380D01*
X118519047Y-119452000D01*
X118566666Y-119499619D01*
X118614285Y-119594857D01*
X118614285Y-119737714D01*
X118566666Y-119832952D01*
X118519047Y-119880571D01*
X118423809Y-119928190D01*
X118042857Y-119928190D01*
X119519047Y-119404380D02*
X119042857Y-119404380D01*
X118995238Y-119880571D01*
X119042857Y-119832952D01*
X119138095Y-119785333D01*
X119376190Y-119785333D01*
X119471428Y-119832952D01*
X119519047Y-119880571D01*
X119566666Y-119975809D01*
X119566666Y-120213904D01*
X119519047Y-120309142D01*
X119471428Y-120356761D01*
X119376190Y-120404380D01*
X119138095Y-120404380D01*
X119042857Y-120356761D01*
X118995238Y-120309142D01*
%TO.C,TP1*%
X117038095Y-122904380D02*
X117609523Y-122904380D01*
X117323809Y-123904380D02*
X117323809Y-122904380D01*
X117942857Y-123904380D02*
X117942857Y-122904380D01*
X118323809Y-122904380D01*
X118419047Y-122952000D01*
X118466666Y-122999619D01*
X118514285Y-123094857D01*
X118514285Y-123237714D01*
X118466666Y-123332952D01*
X118419047Y-123380571D01*
X118323809Y-123428190D01*
X117942857Y-123428190D01*
X119466666Y-123904380D02*
X118895238Y-123904380D01*
X119180952Y-123904380D02*
X119180952Y-122904380D01*
X119085714Y-123047238D01*
X118990476Y-123142476D01*
X118895238Y-123190095D01*
%TO.C,R31*%
X86257142Y-112452380D02*
X85923809Y-111976190D01*
X85685714Y-112452380D02*
X85685714Y-111452380D01*
X86066666Y-111452380D01*
X86161904Y-111500000D01*
X86209523Y-111547619D01*
X86257142Y-111642857D01*
X86257142Y-111785714D01*
X86209523Y-111880952D01*
X86161904Y-111928571D01*
X86066666Y-111976190D01*
X85685714Y-111976190D01*
X86590476Y-111452380D02*
X87209523Y-111452380D01*
X86876190Y-111833333D01*
X87019047Y-111833333D01*
X87114285Y-111880952D01*
X87161904Y-111928571D01*
X87209523Y-112023809D01*
X87209523Y-112261904D01*
X87161904Y-112357142D01*
X87114285Y-112404761D01*
X87019047Y-112452380D01*
X86733333Y-112452380D01*
X86638095Y-112404761D01*
X86590476Y-112357142D01*
X88161904Y-112452380D02*
X87590476Y-112452380D01*
X87876190Y-112452380D02*
X87876190Y-111452380D01*
X87780952Y-111595238D01*
X87685714Y-111690476D01*
X87590476Y-111738095D01*
%TO.C,R30*%
X86257142Y-107252380D02*
X85923809Y-106776190D01*
X85685714Y-107252380D02*
X85685714Y-106252380D01*
X86066666Y-106252380D01*
X86161904Y-106300000D01*
X86209523Y-106347619D01*
X86257142Y-106442857D01*
X86257142Y-106585714D01*
X86209523Y-106680952D01*
X86161904Y-106728571D01*
X86066666Y-106776190D01*
X85685714Y-106776190D01*
X86590476Y-106252380D02*
X87209523Y-106252380D01*
X86876190Y-106633333D01*
X87019047Y-106633333D01*
X87114285Y-106680952D01*
X87161904Y-106728571D01*
X87209523Y-106823809D01*
X87209523Y-107061904D01*
X87161904Y-107157142D01*
X87114285Y-107204761D01*
X87019047Y-107252380D01*
X86733333Y-107252380D01*
X86638095Y-107204761D01*
X86590476Y-107157142D01*
X87828571Y-106252380D02*
X87923809Y-106252380D01*
X88019047Y-106300000D01*
X88066666Y-106347619D01*
X88114285Y-106442857D01*
X88161904Y-106633333D01*
X88161904Y-106871428D01*
X88114285Y-107061904D01*
X88066666Y-107157142D01*
X88019047Y-107204761D01*
X87923809Y-107252380D01*
X87828571Y-107252380D01*
X87733333Y-107204761D01*
X87685714Y-107157142D01*
X87638095Y-107061904D01*
X87590476Y-106871428D01*
X87590476Y-106633333D01*
X87638095Y-106442857D01*
X87685714Y-106347619D01*
X87733333Y-106300000D01*
X87828571Y-106252380D01*
%TO.C,R29*%
X86257142Y-109852380D02*
X85923809Y-109376190D01*
X85685714Y-109852380D02*
X85685714Y-108852380D01*
X86066666Y-108852380D01*
X86161904Y-108900000D01*
X86209523Y-108947619D01*
X86257142Y-109042857D01*
X86257142Y-109185714D01*
X86209523Y-109280952D01*
X86161904Y-109328571D01*
X86066666Y-109376190D01*
X85685714Y-109376190D01*
X86638095Y-108947619D02*
X86685714Y-108900000D01*
X86780952Y-108852380D01*
X87019047Y-108852380D01*
X87114285Y-108900000D01*
X87161904Y-108947619D01*
X87209523Y-109042857D01*
X87209523Y-109138095D01*
X87161904Y-109280952D01*
X86590476Y-109852380D01*
X87209523Y-109852380D01*
X87685714Y-109852380D02*
X87876190Y-109852380D01*
X87971428Y-109804761D01*
X88019047Y-109757142D01*
X88114285Y-109614285D01*
X88161904Y-109423809D01*
X88161904Y-109042857D01*
X88114285Y-108947619D01*
X88066666Y-108900000D01*
X87971428Y-108852380D01*
X87780952Y-108852380D01*
X87685714Y-108900000D01*
X87638095Y-108947619D01*
X87590476Y-109042857D01*
X87590476Y-109280952D01*
X87638095Y-109376190D01*
X87685714Y-109423809D01*
X87780952Y-109471428D01*
X87971428Y-109471428D01*
X88066666Y-109423809D01*
X88114285Y-109376190D01*
X88161904Y-109280952D01*
%TO.C,R28*%
X86267142Y-108552380D02*
X85933809Y-108076190D01*
X85695714Y-108552380D02*
X85695714Y-107552380D01*
X86076666Y-107552380D01*
X86171904Y-107600000D01*
X86219523Y-107647619D01*
X86267142Y-107742857D01*
X86267142Y-107885714D01*
X86219523Y-107980952D01*
X86171904Y-108028571D01*
X86076666Y-108076190D01*
X85695714Y-108076190D01*
X86648095Y-107647619D02*
X86695714Y-107600000D01*
X86790952Y-107552380D01*
X87029047Y-107552380D01*
X87124285Y-107600000D01*
X87171904Y-107647619D01*
X87219523Y-107742857D01*
X87219523Y-107838095D01*
X87171904Y-107980952D01*
X86600476Y-108552380D01*
X87219523Y-108552380D01*
X87790952Y-107980952D02*
X87695714Y-107933333D01*
X87648095Y-107885714D01*
X87600476Y-107790476D01*
X87600476Y-107742857D01*
X87648095Y-107647619D01*
X87695714Y-107600000D01*
X87790952Y-107552380D01*
X87981428Y-107552380D01*
X88076666Y-107600000D01*
X88124285Y-107647619D01*
X88171904Y-107742857D01*
X88171904Y-107790476D01*
X88124285Y-107885714D01*
X88076666Y-107933333D01*
X87981428Y-107980952D01*
X87790952Y-107980952D01*
X87695714Y-108028571D01*
X87648095Y-108076190D01*
X87600476Y-108171428D01*
X87600476Y-108361904D01*
X87648095Y-108457142D01*
X87695714Y-108504761D01*
X87790952Y-108552380D01*
X87981428Y-108552380D01*
X88076666Y-108504761D01*
X88124285Y-108457142D01*
X88171904Y-108361904D01*
X88171904Y-108171428D01*
X88124285Y-108076190D01*
X88076666Y-108028571D01*
X87981428Y-107980952D01*
%TO.C,R27*%
X86257142Y-105952380D02*
X85923809Y-105476190D01*
X85685714Y-105952380D02*
X85685714Y-104952380D01*
X86066666Y-104952380D01*
X86161904Y-105000000D01*
X86209523Y-105047619D01*
X86257142Y-105142857D01*
X86257142Y-105285714D01*
X86209523Y-105380952D01*
X86161904Y-105428571D01*
X86066666Y-105476190D01*
X85685714Y-105476190D01*
X86638095Y-105047619D02*
X86685714Y-105000000D01*
X86780952Y-104952380D01*
X87019047Y-104952380D01*
X87114285Y-105000000D01*
X87161904Y-105047619D01*
X87209523Y-105142857D01*
X87209523Y-105238095D01*
X87161904Y-105380952D01*
X86590476Y-105952380D01*
X87209523Y-105952380D01*
X87542857Y-104952380D02*
X88209523Y-104952380D01*
X87780952Y-105952380D01*
%TO.C,R26*%
X86257142Y-111152380D02*
X85923809Y-110676190D01*
X85685714Y-111152380D02*
X85685714Y-110152380D01*
X86066666Y-110152380D01*
X86161904Y-110200000D01*
X86209523Y-110247619D01*
X86257142Y-110342857D01*
X86257142Y-110485714D01*
X86209523Y-110580952D01*
X86161904Y-110628571D01*
X86066666Y-110676190D01*
X85685714Y-110676190D01*
X86638095Y-110247619D02*
X86685714Y-110200000D01*
X86780952Y-110152380D01*
X87019047Y-110152380D01*
X87114285Y-110200000D01*
X87161904Y-110247619D01*
X87209523Y-110342857D01*
X87209523Y-110438095D01*
X87161904Y-110580952D01*
X86590476Y-111152380D01*
X87209523Y-111152380D01*
X88066666Y-110152380D02*
X87876190Y-110152380D01*
X87780952Y-110200000D01*
X87733333Y-110247619D01*
X87638095Y-110390476D01*
X87590476Y-110580952D01*
X87590476Y-110961904D01*
X87638095Y-111057142D01*
X87685714Y-111104761D01*
X87780952Y-111152380D01*
X87971428Y-111152380D01*
X88066666Y-111104761D01*
X88114285Y-111057142D01*
X88161904Y-110961904D01*
X88161904Y-110723809D01*
X88114285Y-110628571D01*
X88066666Y-110580952D01*
X87971428Y-110533333D01*
X87780952Y-110533333D01*
X87685714Y-110580952D01*
X87638095Y-110628571D01*
X87590476Y-110723809D01*
%TO.C,R25*%
X81557142Y-105952380D02*
X81223809Y-105476190D01*
X80985714Y-105952380D02*
X80985714Y-104952380D01*
X81366666Y-104952380D01*
X81461904Y-105000000D01*
X81509523Y-105047619D01*
X81557142Y-105142857D01*
X81557142Y-105285714D01*
X81509523Y-105380952D01*
X81461904Y-105428571D01*
X81366666Y-105476190D01*
X80985714Y-105476190D01*
X81938095Y-105047619D02*
X81985714Y-105000000D01*
X82080952Y-104952380D01*
X82319047Y-104952380D01*
X82414285Y-105000000D01*
X82461904Y-105047619D01*
X82509523Y-105142857D01*
X82509523Y-105238095D01*
X82461904Y-105380952D01*
X81890476Y-105952380D01*
X82509523Y-105952380D01*
X83414285Y-104952380D02*
X82938095Y-104952380D01*
X82890476Y-105428571D01*
X82938095Y-105380952D01*
X83033333Y-105333333D01*
X83271428Y-105333333D01*
X83366666Y-105380952D01*
X83414285Y-105428571D01*
X83461904Y-105523809D01*
X83461904Y-105761904D01*
X83414285Y-105857142D01*
X83366666Y-105904761D01*
X83271428Y-105952380D01*
X83033333Y-105952380D01*
X82938095Y-105904761D01*
X82890476Y-105857142D01*
%TO.C,R24*%
X81557142Y-107252380D02*
X81223809Y-106776190D01*
X80985714Y-107252380D02*
X80985714Y-106252380D01*
X81366666Y-106252380D01*
X81461904Y-106300000D01*
X81509523Y-106347619D01*
X81557142Y-106442857D01*
X81557142Y-106585714D01*
X81509523Y-106680952D01*
X81461904Y-106728571D01*
X81366666Y-106776190D01*
X80985714Y-106776190D01*
X81938095Y-106347619D02*
X81985714Y-106300000D01*
X82080952Y-106252380D01*
X82319047Y-106252380D01*
X82414285Y-106300000D01*
X82461904Y-106347619D01*
X82509523Y-106442857D01*
X82509523Y-106538095D01*
X82461904Y-106680952D01*
X81890476Y-107252380D01*
X82509523Y-107252380D01*
X83366666Y-106585714D02*
X83366666Y-107252380D01*
X83128571Y-106204761D02*
X82890476Y-106919047D01*
X83509523Y-106919047D01*
%TO.C,R23*%
X81557142Y-112452380D02*
X81223809Y-111976190D01*
X80985714Y-112452380D02*
X80985714Y-111452380D01*
X81366666Y-111452380D01*
X81461904Y-111500000D01*
X81509523Y-111547619D01*
X81557142Y-111642857D01*
X81557142Y-111785714D01*
X81509523Y-111880952D01*
X81461904Y-111928571D01*
X81366666Y-111976190D01*
X80985714Y-111976190D01*
X81938095Y-111547619D02*
X81985714Y-111500000D01*
X82080952Y-111452380D01*
X82319047Y-111452380D01*
X82414285Y-111500000D01*
X82461904Y-111547619D01*
X82509523Y-111642857D01*
X82509523Y-111738095D01*
X82461904Y-111880952D01*
X81890476Y-112452380D01*
X82509523Y-112452380D01*
X82842857Y-111452380D02*
X83461904Y-111452380D01*
X83128571Y-111833333D01*
X83271428Y-111833333D01*
X83366666Y-111880952D01*
X83414285Y-111928571D01*
X83461904Y-112023809D01*
X83461904Y-112261904D01*
X83414285Y-112357142D01*
X83366666Y-112404761D01*
X83271428Y-112452380D01*
X82985714Y-112452380D01*
X82890476Y-112404761D01*
X82842857Y-112357142D01*
%TO.C,R22*%
X81557142Y-111152380D02*
X81223809Y-110676190D01*
X80985714Y-111152380D02*
X80985714Y-110152380D01*
X81366666Y-110152380D01*
X81461904Y-110200000D01*
X81509523Y-110247619D01*
X81557142Y-110342857D01*
X81557142Y-110485714D01*
X81509523Y-110580952D01*
X81461904Y-110628571D01*
X81366666Y-110676190D01*
X80985714Y-110676190D01*
X81938095Y-110247619D02*
X81985714Y-110200000D01*
X82080952Y-110152380D01*
X82319047Y-110152380D01*
X82414285Y-110200000D01*
X82461904Y-110247619D01*
X82509523Y-110342857D01*
X82509523Y-110438095D01*
X82461904Y-110580952D01*
X81890476Y-111152380D01*
X82509523Y-111152380D01*
X82890476Y-110247619D02*
X82938095Y-110200000D01*
X83033333Y-110152380D01*
X83271428Y-110152380D01*
X83366666Y-110200000D01*
X83414285Y-110247619D01*
X83461904Y-110342857D01*
X83461904Y-110438095D01*
X83414285Y-110580952D01*
X82842857Y-111152380D01*
X83461904Y-111152380D01*
%TO.C,R21*%
X81557142Y-104552380D02*
X81223809Y-104076190D01*
X80985714Y-104552380D02*
X80985714Y-103552380D01*
X81366666Y-103552380D01*
X81461904Y-103600000D01*
X81509523Y-103647619D01*
X81557142Y-103742857D01*
X81557142Y-103885714D01*
X81509523Y-103980952D01*
X81461904Y-104028571D01*
X81366666Y-104076190D01*
X80985714Y-104076190D01*
X81938095Y-103647619D02*
X81985714Y-103600000D01*
X82080952Y-103552380D01*
X82319047Y-103552380D01*
X82414285Y-103600000D01*
X82461904Y-103647619D01*
X82509523Y-103742857D01*
X82509523Y-103838095D01*
X82461904Y-103980952D01*
X81890476Y-104552380D01*
X82509523Y-104552380D01*
X83461904Y-104552380D02*
X82890476Y-104552380D01*
X83176190Y-104552380D02*
X83176190Y-103552380D01*
X83080952Y-103695238D01*
X82985714Y-103790476D01*
X82890476Y-103838095D01*
%TO.C,R20*%
X86257142Y-104452380D02*
X85923809Y-103976190D01*
X85685714Y-104452380D02*
X85685714Y-103452380D01*
X86066666Y-103452380D01*
X86161904Y-103500000D01*
X86209523Y-103547619D01*
X86257142Y-103642857D01*
X86257142Y-103785714D01*
X86209523Y-103880952D01*
X86161904Y-103928571D01*
X86066666Y-103976190D01*
X85685714Y-103976190D01*
X86638095Y-103547619D02*
X86685714Y-103500000D01*
X86780952Y-103452380D01*
X87019047Y-103452380D01*
X87114285Y-103500000D01*
X87161904Y-103547619D01*
X87209523Y-103642857D01*
X87209523Y-103738095D01*
X87161904Y-103880952D01*
X86590476Y-104452380D01*
X87209523Y-104452380D01*
X87828571Y-103452380D02*
X87923809Y-103452380D01*
X88019047Y-103500000D01*
X88066666Y-103547619D01*
X88114285Y-103642857D01*
X88161904Y-103833333D01*
X88161904Y-104071428D01*
X88114285Y-104261904D01*
X88066666Y-104357142D01*
X88019047Y-104404761D01*
X87923809Y-104452380D01*
X87828571Y-104452380D01*
X87733333Y-104404761D01*
X87685714Y-104357142D01*
X87638095Y-104261904D01*
X87590476Y-104071428D01*
X87590476Y-103833333D01*
X87638095Y-103642857D01*
X87685714Y-103547619D01*
X87733333Y-103500000D01*
X87828571Y-103452380D01*
%TO.C,R18*%
X81557142Y-108552380D02*
X81223809Y-108076190D01*
X80985714Y-108552380D02*
X80985714Y-107552380D01*
X81366666Y-107552380D01*
X81461904Y-107600000D01*
X81509523Y-107647619D01*
X81557142Y-107742857D01*
X81557142Y-107885714D01*
X81509523Y-107980952D01*
X81461904Y-108028571D01*
X81366666Y-108076190D01*
X80985714Y-108076190D01*
X82509523Y-108552380D02*
X81938095Y-108552380D01*
X82223809Y-108552380D02*
X82223809Y-107552380D01*
X82128571Y-107695238D01*
X82033333Y-107790476D01*
X81938095Y-107838095D01*
X83080952Y-107980952D02*
X82985714Y-107933333D01*
X82938095Y-107885714D01*
X82890476Y-107790476D01*
X82890476Y-107742857D01*
X82938095Y-107647619D01*
X82985714Y-107600000D01*
X83080952Y-107552380D01*
X83271428Y-107552380D01*
X83366666Y-107600000D01*
X83414285Y-107647619D01*
X83461904Y-107742857D01*
X83461904Y-107790476D01*
X83414285Y-107885714D01*
X83366666Y-107933333D01*
X83271428Y-107980952D01*
X83080952Y-107980952D01*
X82985714Y-108028571D01*
X82938095Y-108076190D01*
X82890476Y-108171428D01*
X82890476Y-108361904D01*
X82938095Y-108457142D01*
X82985714Y-108504761D01*
X83080952Y-108552380D01*
X83271428Y-108552380D01*
X83366666Y-108504761D01*
X83414285Y-108457142D01*
X83461904Y-108361904D01*
X83461904Y-108171428D01*
X83414285Y-108076190D01*
X83366666Y-108028571D01*
X83271428Y-107980952D01*
%TO.C,R16*%
X81557142Y-109852380D02*
X81223809Y-109376190D01*
X80985714Y-109852380D02*
X80985714Y-108852380D01*
X81366666Y-108852380D01*
X81461904Y-108900000D01*
X81509523Y-108947619D01*
X81557142Y-109042857D01*
X81557142Y-109185714D01*
X81509523Y-109280952D01*
X81461904Y-109328571D01*
X81366666Y-109376190D01*
X80985714Y-109376190D01*
X82509523Y-109852380D02*
X81938095Y-109852380D01*
X82223809Y-109852380D02*
X82223809Y-108852380D01*
X82128571Y-108995238D01*
X82033333Y-109090476D01*
X81938095Y-109138095D01*
X83366666Y-108852380D02*
X83176190Y-108852380D01*
X83080952Y-108900000D01*
X83033333Y-108947619D01*
X82938095Y-109090476D01*
X82890476Y-109280952D01*
X82890476Y-109661904D01*
X82938095Y-109757142D01*
X82985714Y-109804761D01*
X83080952Y-109852380D01*
X83271428Y-109852380D01*
X83366666Y-109804761D01*
X83414285Y-109757142D01*
X83461904Y-109661904D01*
X83461904Y-109423809D01*
X83414285Y-109328571D01*
X83366666Y-109280952D01*
X83271428Y-109233333D01*
X83080952Y-109233333D01*
X82985714Y-109280952D01*
X82938095Y-109328571D01*
X82890476Y-109423809D01*
%TO.C,R15*%
X91252380Y-101442857D02*
X90776190Y-101776190D01*
X91252380Y-102014285D02*
X90252380Y-102014285D01*
X90252380Y-101633333D01*
X90300000Y-101538095D01*
X90347619Y-101490476D01*
X90442857Y-101442857D01*
X90585714Y-101442857D01*
X90680952Y-101490476D01*
X90728571Y-101538095D01*
X90776190Y-101633333D01*
X90776190Y-102014285D01*
X91252380Y-100490476D02*
X91252380Y-101061904D01*
X91252380Y-100776190D02*
X90252380Y-100776190D01*
X90395238Y-100871428D01*
X90490476Y-100966666D01*
X90538095Y-101061904D01*
X90252380Y-99585714D02*
X90252380Y-100061904D01*
X90728571Y-100109523D01*
X90680952Y-100061904D01*
X90633333Y-99966666D01*
X90633333Y-99728571D01*
X90680952Y-99633333D01*
X90728571Y-99585714D01*
X90823809Y-99538095D01*
X91061904Y-99538095D01*
X91157142Y-99585714D01*
X91204761Y-99633333D01*
X91252380Y-99728571D01*
X91252380Y-99966666D01*
X91204761Y-100061904D01*
X91157142Y-100109523D01*
%TO.C,R14*%
X132352380Y-116942857D02*
X131876190Y-117276190D01*
X132352380Y-117514285D02*
X131352380Y-117514285D01*
X131352380Y-117133333D01*
X131400000Y-117038095D01*
X131447619Y-116990476D01*
X131542857Y-116942857D01*
X131685714Y-116942857D01*
X131780952Y-116990476D01*
X131828571Y-117038095D01*
X131876190Y-117133333D01*
X131876190Y-117514285D01*
X132352380Y-115990476D02*
X132352380Y-116561904D01*
X132352380Y-116276190D02*
X131352380Y-116276190D01*
X131495238Y-116371428D01*
X131590476Y-116466666D01*
X131638095Y-116561904D01*
X131685714Y-115133333D02*
X132352380Y-115133333D01*
X131304761Y-115371428D02*
X132019047Y-115609523D01*
X132019047Y-114990476D01*
%TO.C,R13*%
X133652380Y-116942857D02*
X133176190Y-117276190D01*
X133652380Y-117514285D02*
X132652380Y-117514285D01*
X132652380Y-117133333D01*
X132700000Y-117038095D01*
X132747619Y-116990476D01*
X132842857Y-116942857D01*
X132985714Y-116942857D01*
X133080952Y-116990476D01*
X133128571Y-117038095D01*
X133176190Y-117133333D01*
X133176190Y-117514285D01*
X133652380Y-115990476D02*
X133652380Y-116561904D01*
X133652380Y-116276190D02*
X132652380Y-116276190D01*
X132795238Y-116371428D01*
X132890476Y-116466666D01*
X132938095Y-116561904D01*
X132652380Y-115657142D02*
X132652380Y-115038095D01*
X133033333Y-115371428D01*
X133033333Y-115228571D01*
X133080952Y-115133333D01*
X133128571Y-115085714D01*
X133223809Y-115038095D01*
X133461904Y-115038095D01*
X133557142Y-115085714D01*
X133604761Y-115133333D01*
X133652380Y-115228571D01*
X133652380Y-115514285D01*
X133604761Y-115609523D01*
X133557142Y-115657142D01*
%TO.C,R12*%
X131052380Y-116942857D02*
X130576190Y-117276190D01*
X131052380Y-117514285D02*
X130052380Y-117514285D01*
X130052380Y-117133333D01*
X130100000Y-117038095D01*
X130147619Y-116990476D01*
X130242857Y-116942857D01*
X130385714Y-116942857D01*
X130480952Y-116990476D01*
X130528571Y-117038095D01*
X130576190Y-117133333D01*
X130576190Y-117514285D01*
X131052380Y-115990476D02*
X131052380Y-116561904D01*
X131052380Y-116276190D02*
X130052380Y-116276190D01*
X130195238Y-116371428D01*
X130290476Y-116466666D01*
X130338095Y-116561904D01*
X130147619Y-115609523D02*
X130100000Y-115561904D01*
X130052380Y-115466666D01*
X130052380Y-115228571D01*
X130100000Y-115133333D01*
X130147619Y-115085714D01*
X130242857Y-115038095D01*
X130338095Y-115038095D01*
X130480952Y-115085714D01*
X131052380Y-115657142D01*
X131052380Y-115038095D01*
%TO.C,R11*%
X129752380Y-116942857D02*
X129276190Y-117276190D01*
X129752380Y-117514285D02*
X128752380Y-117514285D01*
X128752380Y-117133333D01*
X128800000Y-117038095D01*
X128847619Y-116990476D01*
X128942857Y-116942857D01*
X129085714Y-116942857D01*
X129180952Y-116990476D01*
X129228571Y-117038095D01*
X129276190Y-117133333D01*
X129276190Y-117514285D01*
X129752380Y-115990476D02*
X129752380Y-116561904D01*
X129752380Y-116276190D02*
X128752380Y-116276190D01*
X128895238Y-116371428D01*
X128990476Y-116466666D01*
X129038095Y-116561904D01*
X129752380Y-115038095D02*
X129752380Y-115609523D01*
X129752380Y-115323809D02*
X128752380Y-115323809D01*
X128895238Y-115419047D01*
X128990476Y-115514285D01*
X129038095Y-115609523D01*
%TO.C,R10*%
X132042380Y-101722857D02*
X131566190Y-102056190D01*
X132042380Y-102294285D02*
X131042380Y-102294285D01*
X131042380Y-101913333D01*
X131090000Y-101818095D01*
X131137619Y-101770476D01*
X131232857Y-101722857D01*
X131375714Y-101722857D01*
X131470952Y-101770476D01*
X131518571Y-101818095D01*
X131566190Y-101913333D01*
X131566190Y-102294285D01*
X132042380Y-100770476D02*
X132042380Y-101341904D01*
X132042380Y-101056190D02*
X131042380Y-101056190D01*
X131185238Y-101151428D01*
X131280476Y-101246666D01*
X131328095Y-101341904D01*
X131042380Y-100151428D02*
X131042380Y-100056190D01*
X131090000Y-99960952D01*
X131137619Y-99913333D01*
X131232857Y-99865714D01*
X131423333Y-99818095D01*
X131661428Y-99818095D01*
X131851904Y-99865714D01*
X131947142Y-99913333D01*
X131994761Y-99960952D01*
X132042380Y-100056190D01*
X132042380Y-100151428D01*
X131994761Y-100246666D01*
X131947142Y-100294285D01*
X131851904Y-100341904D01*
X131661428Y-100389523D01*
X131423333Y-100389523D01*
X131232857Y-100341904D01*
X131137619Y-100294285D01*
X131090000Y-100246666D01*
X131042380Y-100151428D01*
%TO.C,R8*%
X115322380Y-122766666D02*
X114846190Y-123100000D01*
X115322380Y-123338095D02*
X114322380Y-123338095D01*
X114322380Y-122957142D01*
X114370000Y-122861904D01*
X114417619Y-122814285D01*
X114512857Y-122766666D01*
X114655714Y-122766666D01*
X114750952Y-122814285D01*
X114798571Y-122861904D01*
X114846190Y-122957142D01*
X114846190Y-123338095D01*
X114750952Y-122195238D02*
X114703333Y-122290476D01*
X114655714Y-122338095D01*
X114560476Y-122385714D01*
X114512857Y-122385714D01*
X114417619Y-122338095D01*
X114370000Y-122290476D01*
X114322380Y-122195238D01*
X114322380Y-122004761D01*
X114370000Y-121909523D01*
X114417619Y-121861904D01*
X114512857Y-121814285D01*
X114560476Y-121814285D01*
X114655714Y-121861904D01*
X114703333Y-121909523D01*
X114750952Y-122004761D01*
X114750952Y-122195238D01*
X114798571Y-122290476D01*
X114846190Y-122338095D01*
X114941428Y-122385714D01*
X115131904Y-122385714D01*
X115227142Y-122338095D01*
X115274761Y-122290476D01*
X115322380Y-122195238D01*
X115322380Y-122004761D01*
X115274761Y-121909523D01*
X115227142Y-121861904D01*
X115131904Y-121814285D01*
X114941428Y-121814285D01*
X114846190Y-121861904D01*
X114798571Y-121909523D01*
X114750952Y-122004761D01*
%TO.C,R7*%
X103833333Y-126352380D02*
X103500000Y-125876190D01*
X103261904Y-126352380D02*
X103261904Y-125352380D01*
X103642857Y-125352380D01*
X103738095Y-125400000D01*
X103785714Y-125447619D01*
X103833333Y-125542857D01*
X103833333Y-125685714D01*
X103785714Y-125780952D01*
X103738095Y-125828571D01*
X103642857Y-125876190D01*
X103261904Y-125876190D01*
X104166666Y-125352380D02*
X104833333Y-125352380D01*
X104404761Y-126352380D01*
%TO.C,R6*%
X103833333Y-123752380D02*
X103500000Y-123276190D01*
X103261904Y-123752380D02*
X103261904Y-122752380D01*
X103642857Y-122752380D01*
X103738095Y-122800000D01*
X103785714Y-122847619D01*
X103833333Y-122942857D01*
X103833333Y-123085714D01*
X103785714Y-123180952D01*
X103738095Y-123228571D01*
X103642857Y-123276190D01*
X103261904Y-123276190D01*
X104690476Y-122752380D02*
X104500000Y-122752380D01*
X104404761Y-122800000D01*
X104357142Y-122847619D01*
X104261904Y-122990476D01*
X104214285Y-123180952D01*
X104214285Y-123561904D01*
X104261904Y-123657142D01*
X104309523Y-123704761D01*
X104404761Y-123752380D01*
X104595238Y-123752380D01*
X104690476Y-123704761D01*
X104738095Y-123657142D01*
X104785714Y-123561904D01*
X104785714Y-123323809D01*
X104738095Y-123228571D01*
X104690476Y-123180952D01*
X104595238Y-123133333D01*
X104404761Y-123133333D01*
X104309523Y-123180952D01*
X104261904Y-123228571D01*
X104214285Y-123323809D01*
%TO.C,R5*%
X92433333Y-125952380D02*
X92100000Y-125476190D01*
X91861904Y-125952380D02*
X91861904Y-124952380D01*
X92242857Y-124952380D01*
X92338095Y-125000000D01*
X92385714Y-125047619D01*
X92433333Y-125142857D01*
X92433333Y-125285714D01*
X92385714Y-125380952D01*
X92338095Y-125428571D01*
X92242857Y-125476190D01*
X91861904Y-125476190D01*
X93338095Y-124952380D02*
X92861904Y-124952380D01*
X92814285Y-125428571D01*
X92861904Y-125380952D01*
X92957142Y-125333333D01*
X93195238Y-125333333D01*
X93290476Y-125380952D01*
X93338095Y-125428571D01*
X93385714Y-125523809D01*
X93385714Y-125761904D01*
X93338095Y-125857142D01*
X93290476Y-125904761D01*
X93195238Y-125952380D01*
X92957142Y-125952380D01*
X92861904Y-125904761D01*
X92814285Y-125857142D01*
%TO.C,R4*%
X90033333Y-95652380D02*
X89700000Y-95176190D01*
X89461904Y-95652380D02*
X89461904Y-94652380D01*
X89842857Y-94652380D01*
X89938095Y-94700000D01*
X89985714Y-94747619D01*
X90033333Y-94842857D01*
X90033333Y-94985714D01*
X89985714Y-95080952D01*
X89938095Y-95128571D01*
X89842857Y-95176190D01*
X89461904Y-95176190D01*
X90890476Y-94985714D02*
X90890476Y-95652380D01*
X90652380Y-94604761D02*
X90414285Y-95319047D01*
X91033333Y-95319047D01*
%TO.C,R3*%
X90033333Y-93752380D02*
X89700000Y-93276190D01*
X89461904Y-93752380D02*
X89461904Y-92752380D01*
X89842857Y-92752380D01*
X89938095Y-92800000D01*
X89985714Y-92847619D01*
X90033333Y-92942857D01*
X90033333Y-93085714D01*
X89985714Y-93180952D01*
X89938095Y-93228571D01*
X89842857Y-93276190D01*
X89461904Y-93276190D01*
X90366666Y-92752380D02*
X90985714Y-92752380D01*
X90652380Y-93133333D01*
X90795238Y-93133333D01*
X90890476Y-93180952D01*
X90938095Y-93228571D01*
X90985714Y-93323809D01*
X90985714Y-93561904D01*
X90938095Y-93657142D01*
X90890476Y-93704761D01*
X90795238Y-93752380D01*
X90509523Y-93752380D01*
X90414285Y-93704761D01*
X90366666Y-93657142D01*
%TO.C,R2*%
X89633333Y-114052380D02*
X89300000Y-113576190D01*
X89061904Y-114052380D02*
X89061904Y-113052380D01*
X89442857Y-113052380D01*
X89538095Y-113100000D01*
X89585714Y-113147619D01*
X89633333Y-113242857D01*
X89633333Y-113385714D01*
X89585714Y-113480952D01*
X89538095Y-113528571D01*
X89442857Y-113576190D01*
X89061904Y-113576190D01*
X90014285Y-113147619D02*
X90061904Y-113100000D01*
X90157142Y-113052380D01*
X90395238Y-113052380D01*
X90490476Y-113100000D01*
X90538095Y-113147619D01*
X90585714Y-113242857D01*
X90585714Y-113338095D01*
X90538095Y-113480952D01*
X89966666Y-114052380D01*
X90585714Y-114052380D01*
%TO.C,R1*%
X89633333Y-115952380D02*
X89300000Y-115476190D01*
X89061904Y-115952380D02*
X89061904Y-114952380D01*
X89442857Y-114952380D01*
X89538095Y-115000000D01*
X89585714Y-115047619D01*
X89633333Y-115142857D01*
X89633333Y-115285714D01*
X89585714Y-115380952D01*
X89538095Y-115428571D01*
X89442857Y-115476190D01*
X89061904Y-115476190D01*
X90585714Y-115952380D02*
X90014285Y-115952380D01*
X90300000Y-115952380D02*
X90300000Y-114952380D01*
X90204761Y-115095238D01*
X90109523Y-115190476D01*
X90014285Y-115238095D01*
%TO.C,L1*%
X121433333Y-102752380D02*
X120957142Y-102752380D01*
X120957142Y-101752380D01*
X122290476Y-102752380D02*
X121719047Y-102752380D01*
X122004761Y-102752380D02*
X122004761Y-101752380D01*
X121909523Y-101895238D01*
X121814285Y-101990476D01*
X121719047Y-102038095D01*
%TO.C,J5*%
X126666666Y-112252380D02*
X126666666Y-112966666D01*
X126619047Y-113109523D01*
X126523809Y-113204761D01*
X126380952Y-113252380D01*
X126285714Y-113252380D01*
X127619047Y-112252380D02*
X127142857Y-112252380D01*
X127095238Y-112728571D01*
X127142857Y-112680952D01*
X127238095Y-112633333D01*
X127476190Y-112633333D01*
X127571428Y-112680952D01*
X127619047Y-112728571D01*
X127666666Y-112823809D01*
X127666666Y-113061904D01*
X127619047Y-113157142D01*
X127571428Y-113204761D01*
X127476190Y-113252380D01*
X127238095Y-113252380D01*
X127142857Y-113204761D01*
X127095238Y-113157142D01*
%TO.C,J4*%
X105166666Y-96252380D02*
X105166666Y-96966666D01*
X105119047Y-97109523D01*
X105023809Y-97204761D01*
X104880952Y-97252380D01*
X104785714Y-97252380D01*
X106071428Y-96585714D02*
X106071428Y-97252380D01*
X105833333Y-96204761D02*
X105595238Y-96919047D01*
X106214285Y-96919047D01*
%TO.C,J1*%
X133346666Y-118502380D02*
X133346666Y-119216666D01*
X133299047Y-119359523D01*
X133203809Y-119454761D01*
X133060952Y-119502380D01*
X132965714Y-119502380D01*
X134346666Y-119502380D02*
X133775238Y-119502380D01*
X134060952Y-119502380D02*
X134060952Y-118502380D01*
X133965714Y-118645238D01*
X133870476Y-118740476D01*
X133775238Y-118788095D01*
%TO.C,FB1*%
X88508571Y-91733333D02*
X88508571Y-92066666D01*
X89032380Y-92066666D02*
X88032380Y-92066666D01*
X88032380Y-91590476D01*
X88508571Y-90876190D02*
X88556190Y-90733333D01*
X88603809Y-90685714D01*
X88699047Y-90638095D01*
X88841904Y-90638095D01*
X88937142Y-90685714D01*
X88984761Y-90733333D01*
X89032380Y-90828571D01*
X89032380Y-91209523D01*
X88032380Y-91209523D01*
X88032380Y-90876190D01*
X88080000Y-90780952D01*
X88127619Y-90733333D01*
X88222857Y-90685714D01*
X88318095Y-90685714D01*
X88413333Y-90733333D01*
X88460952Y-90780952D01*
X88508571Y-90876190D01*
X88508571Y-91209523D01*
X89032380Y-89685714D02*
X89032380Y-90257142D01*
X89032380Y-89971428D02*
X88032380Y-89971428D01*
X88175238Y-90066666D01*
X88270476Y-90161904D01*
X88318095Y-90257142D01*
%TO.C,F1*%
X116408571Y-130133333D02*
X116408571Y-130466666D01*
X116932380Y-130466666D02*
X115932380Y-130466666D01*
X115932380Y-129990476D01*
X116932380Y-129085714D02*
X116932380Y-129657142D01*
X116932380Y-129371428D02*
X115932380Y-129371428D01*
X116075238Y-129466666D01*
X116170476Y-129561904D01*
X116218095Y-129657142D01*
%TO.C,D5*%
X125921904Y-92752380D02*
X125921904Y-91752380D01*
X126160000Y-91752380D01*
X126302857Y-91800000D01*
X126398095Y-91895238D01*
X126445714Y-91990476D01*
X126493333Y-92180952D01*
X126493333Y-92323809D01*
X126445714Y-92514285D01*
X126398095Y-92609523D01*
X126302857Y-92704761D01*
X126160000Y-92752380D01*
X125921904Y-92752380D01*
X127398095Y-91752380D02*
X126921904Y-91752380D01*
X126874285Y-92228571D01*
X126921904Y-92180952D01*
X127017142Y-92133333D01*
X127255238Y-92133333D01*
X127350476Y-92180952D01*
X127398095Y-92228571D01*
X127445714Y-92323809D01*
X127445714Y-92561904D01*
X127398095Y-92657142D01*
X127350476Y-92704761D01*
X127255238Y-92752380D01*
X127017142Y-92752380D01*
X126921904Y-92704761D01*
X126874285Y-92657142D01*
%TO.C,D4*%
X81761904Y-95052380D02*
X81761904Y-94052380D01*
X82000000Y-94052380D01*
X82142857Y-94100000D01*
X82238095Y-94195238D01*
X82285714Y-94290476D01*
X82333333Y-94480952D01*
X82333333Y-94623809D01*
X82285714Y-94814285D01*
X82238095Y-94909523D01*
X82142857Y-95004761D01*
X82000000Y-95052380D01*
X81761904Y-95052380D01*
X83190476Y-94385714D02*
X83190476Y-95052380D01*
X82952380Y-94004761D02*
X82714285Y-94719047D01*
X83333333Y-94719047D01*
%TO.C,D3*%
X81761904Y-93752380D02*
X81761904Y-92752380D01*
X82000000Y-92752380D01*
X82142857Y-92800000D01*
X82238095Y-92895238D01*
X82285714Y-92990476D01*
X82333333Y-93180952D01*
X82333333Y-93323809D01*
X82285714Y-93514285D01*
X82238095Y-93609523D01*
X82142857Y-93704761D01*
X82000000Y-93752380D01*
X81761904Y-93752380D01*
X82666666Y-92752380D02*
X83285714Y-92752380D01*
X82952380Y-93133333D01*
X83095238Y-93133333D01*
X83190476Y-93180952D01*
X83238095Y-93228571D01*
X83285714Y-93323809D01*
X83285714Y-93561904D01*
X83238095Y-93657142D01*
X83190476Y-93704761D01*
X83095238Y-93752380D01*
X82809523Y-93752380D01*
X82714285Y-93704761D01*
X82666666Y-93657142D01*
%TO.C,D2*%
X81861904Y-114152380D02*
X81861904Y-113152380D01*
X82100000Y-113152380D01*
X82242857Y-113200000D01*
X82338095Y-113295238D01*
X82385714Y-113390476D01*
X82433333Y-113580952D01*
X82433333Y-113723809D01*
X82385714Y-113914285D01*
X82338095Y-114009523D01*
X82242857Y-114104761D01*
X82100000Y-114152380D01*
X81861904Y-114152380D01*
X82814285Y-113247619D02*
X82861904Y-113200000D01*
X82957142Y-113152380D01*
X83195238Y-113152380D01*
X83290476Y-113200000D01*
X83338095Y-113247619D01*
X83385714Y-113342857D01*
X83385714Y-113438095D01*
X83338095Y-113580952D01*
X82766666Y-114152380D01*
X83385714Y-114152380D01*
%TO.C,D1*%
X81861904Y-115952380D02*
X81861904Y-114952380D01*
X82100000Y-114952380D01*
X82242857Y-115000000D01*
X82338095Y-115095238D01*
X82385714Y-115190476D01*
X82433333Y-115380952D01*
X82433333Y-115523809D01*
X82385714Y-115714285D01*
X82338095Y-115809523D01*
X82242857Y-115904761D01*
X82100000Y-115952380D01*
X81861904Y-115952380D01*
X83385714Y-115952380D02*
X82814285Y-115952380D01*
X83100000Y-115952380D02*
X83100000Y-114952380D01*
X83004761Y-115095238D01*
X82909523Y-115190476D01*
X82814285Y-115238095D01*
%TO.C,C47*%
X83157142Y-91842857D02*
X83204761Y-91890476D01*
X83252380Y-92033333D01*
X83252380Y-92128571D01*
X83204761Y-92271428D01*
X83109523Y-92366666D01*
X83014285Y-92414285D01*
X82823809Y-92461904D01*
X82680952Y-92461904D01*
X82490476Y-92414285D01*
X82395238Y-92366666D01*
X82300000Y-92271428D01*
X82252380Y-92128571D01*
X82252380Y-92033333D01*
X82300000Y-91890476D01*
X82347619Y-91842857D01*
X82585714Y-90985714D02*
X83252380Y-90985714D01*
X82204761Y-91223809D02*
X82919047Y-91461904D01*
X82919047Y-90842857D01*
X82252380Y-90557142D02*
X82252380Y-89890476D01*
X83252380Y-90319047D01*
%TO.C,C46*%
X84757142Y-87957142D02*
X84709523Y-88004761D01*
X84566666Y-88052380D01*
X84471428Y-88052380D01*
X84328571Y-88004761D01*
X84233333Y-87909523D01*
X84185714Y-87814285D01*
X84138095Y-87623809D01*
X84138095Y-87480952D01*
X84185714Y-87290476D01*
X84233333Y-87195238D01*
X84328571Y-87100000D01*
X84471428Y-87052380D01*
X84566666Y-87052380D01*
X84709523Y-87100000D01*
X84757142Y-87147619D01*
X85614285Y-87385714D02*
X85614285Y-88052380D01*
X85376190Y-87004761D02*
X85138095Y-87719047D01*
X85757142Y-87719047D01*
X86566666Y-87052380D02*
X86376190Y-87052380D01*
X86280952Y-87100000D01*
X86233333Y-87147619D01*
X86138095Y-87290476D01*
X86090476Y-87480952D01*
X86090476Y-87861904D01*
X86138095Y-87957142D01*
X86185714Y-88004761D01*
X86280952Y-88052380D01*
X86471428Y-88052380D01*
X86566666Y-88004761D01*
X86614285Y-87957142D01*
X86661904Y-87861904D01*
X86661904Y-87623809D01*
X86614285Y-87528571D01*
X86566666Y-87480952D01*
X86471428Y-87433333D01*
X86280952Y-87433333D01*
X86185714Y-87480952D01*
X86138095Y-87528571D01*
X86090476Y-87623809D01*
%TO.C,C45*%
X131957142Y-94442857D02*
X132004761Y-94490476D01*
X132052380Y-94633333D01*
X132052380Y-94728571D01*
X132004761Y-94871428D01*
X131909523Y-94966666D01*
X131814285Y-95014285D01*
X131623809Y-95061904D01*
X131480952Y-95061904D01*
X131290476Y-95014285D01*
X131195238Y-94966666D01*
X131100000Y-94871428D01*
X131052380Y-94728571D01*
X131052380Y-94633333D01*
X131100000Y-94490476D01*
X131147619Y-94442857D01*
X131385714Y-93585714D02*
X132052380Y-93585714D01*
X131004761Y-93823809D02*
X131719047Y-94061904D01*
X131719047Y-93442857D01*
X131052380Y-92585714D02*
X131052380Y-93061904D01*
X131528571Y-93109523D01*
X131480952Y-93061904D01*
X131433333Y-92966666D01*
X131433333Y-92728571D01*
X131480952Y-92633333D01*
X131528571Y-92585714D01*
X131623809Y-92538095D01*
X131861904Y-92538095D01*
X131957142Y-92585714D01*
X132004761Y-92633333D01*
X132052380Y-92728571D01*
X132052380Y-92966666D01*
X132004761Y-93061904D01*
X131957142Y-93109523D01*
%TO.C,C43*%
X125857142Y-102757142D02*
X125809523Y-102804761D01*
X125666666Y-102852380D01*
X125571428Y-102852380D01*
X125428571Y-102804761D01*
X125333333Y-102709523D01*
X125285714Y-102614285D01*
X125238095Y-102423809D01*
X125238095Y-102280952D01*
X125285714Y-102090476D01*
X125333333Y-101995238D01*
X125428571Y-101900000D01*
X125571428Y-101852380D01*
X125666666Y-101852380D01*
X125809523Y-101900000D01*
X125857142Y-101947619D01*
X126714285Y-102185714D02*
X126714285Y-102852380D01*
X126476190Y-101804761D02*
X126238095Y-102519047D01*
X126857142Y-102519047D01*
X127142857Y-101852380D02*
X127761904Y-101852380D01*
X127428571Y-102233333D01*
X127571428Y-102233333D01*
X127666666Y-102280952D01*
X127714285Y-102328571D01*
X127761904Y-102423809D01*
X127761904Y-102661904D01*
X127714285Y-102757142D01*
X127666666Y-102804761D01*
X127571428Y-102852380D01*
X127285714Y-102852380D01*
X127190476Y-102804761D01*
X127142857Y-102757142D01*
%TO.C,C42*%
X91757142Y-122857142D02*
X91709523Y-122904761D01*
X91566666Y-122952380D01*
X91471428Y-122952380D01*
X91328571Y-122904761D01*
X91233333Y-122809523D01*
X91185714Y-122714285D01*
X91138095Y-122523809D01*
X91138095Y-122380952D01*
X91185714Y-122190476D01*
X91233333Y-122095238D01*
X91328571Y-122000000D01*
X91471428Y-121952380D01*
X91566666Y-121952380D01*
X91709523Y-122000000D01*
X91757142Y-122047619D01*
X92614285Y-122285714D02*
X92614285Y-122952380D01*
X92376190Y-121904761D02*
X92138095Y-122619047D01*
X92757142Y-122619047D01*
X93090476Y-122047619D02*
X93138095Y-122000000D01*
X93233333Y-121952380D01*
X93471428Y-121952380D01*
X93566666Y-122000000D01*
X93614285Y-122047619D01*
X93661904Y-122142857D01*
X93661904Y-122238095D01*
X93614285Y-122380952D01*
X93042857Y-122952380D01*
X93661904Y-122952380D01*
%TO.C,C41*%
X90557142Y-124357142D02*
X90509523Y-124404761D01*
X90366666Y-124452380D01*
X90271428Y-124452380D01*
X90128571Y-124404761D01*
X90033333Y-124309523D01*
X89985714Y-124214285D01*
X89938095Y-124023809D01*
X89938095Y-123880952D01*
X89985714Y-123690476D01*
X90033333Y-123595238D01*
X90128571Y-123500000D01*
X90271428Y-123452380D01*
X90366666Y-123452380D01*
X90509523Y-123500000D01*
X90557142Y-123547619D01*
X91414285Y-123785714D02*
X91414285Y-124452380D01*
X91176190Y-123404761D02*
X90938095Y-124119047D01*
X91557142Y-124119047D01*
X92461904Y-124452380D02*
X91890476Y-124452380D01*
X92176190Y-124452380D02*
X92176190Y-123452380D01*
X92080952Y-123595238D01*
X91985714Y-123690476D01*
X91890476Y-123738095D01*
%TD*%
M02*
