%TF.GenerationSoftware,KiCad,Pcbnew,5.1.8-db9833491~88~ubuntu20.04.1*%
%TF.CreationDate,2021-01-24T20:19:36-05:00*%
%TF.ProjectId,julia_v2.1.1.0,6a756c69-615f-4763-922e-312e312e302e,rev?*%
%TF.SameCoordinates,Original*%
%TF.FileFunction,Legend,Bot*%
%TF.FilePolarity,Positive*%
%FSLAX46Y46*%
G04 Gerber Fmt 4.6, Leading zero omitted, Abs format (unit mm)*
G04 Created by KiCad (PCBNEW 5.1.8-db9833491~88~ubuntu20.04.1) date 2021-01-24 20:19:36*
%MOMM*%
%LPD*%
G01*
G04 APERTURE LIST*
%ADD10C,0.120000*%
%ADD11C,0.150000*%
G04 APERTURE END LIST*
D10*
%TO.C,U4*%
X136910000Y-96000000D02*
X136910000Y-89990000D01*
X130090000Y-93750000D02*
X130090000Y-89990000D01*
X136910000Y-89990000D02*
X135650000Y-89990000D01*
X130090000Y-89990000D02*
X131350000Y-89990000D01*
%TO.C,U3*%
X126500000Y-108610000D02*
X132510000Y-108610000D01*
X128750000Y-101790000D02*
X132510000Y-101790000D01*
X132510000Y-108610000D02*
X132510000Y-107350000D01*
X132510000Y-101790000D02*
X132510000Y-103050000D01*
%TO.C,U2*%
X126200000Y-124110000D02*
X132210000Y-124110000D01*
X128450000Y-117290000D02*
X132210000Y-117290000D01*
X132210000Y-124110000D02*
X132210000Y-122850000D01*
X132210000Y-117290000D02*
X132210000Y-118550000D01*
%TO.C,TP4*%
X128600000Y-88300000D02*
G75*
G03*
X128600000Y-88300000I-700000J0D01*
G01*
%TO.C,TP3*%
X137450000Y-102850000D02*
G75*
G03*
X137450000Y-102850000I-700000J0D01*
G01*
%TO.C,TP2*%
X137700000Y-119550000D02*
G75*
G03*
X137700000Y-119550000I-700000J0D01*
G01*
%TO.C,C39*%
X105607836Y-117010000D02*
X105392164Y-117010000D01*
X105607836Y-116290000D02*
X105392164Y-116290000D01*
%TO.C,C38*%
X95957836Y-115210000D02*
X95742164Y-115210000D01*
X95957836Y-114490000D02*
X95742164Y-114490000D01*
%TO.C,C37*%
X102387836Y-110020000D02*
X102172164Y-110020000D01*
X102387836Y-109300000D02*
X102172164Y-109300000D01*
%TO.C,C35*%
X93660000Y-103192164D02*
X93660000Y-103407836D01*
X92940000Y-103192164D02*
X92940000Y-103407836D01*
%TO.C,C33*%
X103440000Y-115557836D02*
X103440000Y-115342164D01*
X104160000Y-115557836D02*
X104160000Y-115342164D01*
%TO.C,C32*%
X104560000Y-104092164D02*
X104560000Y-104307836D01*
X103840000Y-104092164D02*
X103840000Y-104307836D01*
%TO.C,C31*%
X108590000Y-116757836D02*
X108590000Y-116542164D01*
X109310000Y-116757836D02*
X109310000Y-116542164D01*
%TO.C,C29*%
X100982164Y-111160000D02*
X101197836Y-111160000D01*
X100982164Y-111880000D02*
X101197836Y-111880000D01*
%TO.C,C28*%
X108607836Y-102560000D02*
X108392164Y-102560000D01*
X108607836Y-101840000D02*
X108392164Y-101840000D01*
%TO.C,C27*%
X99260000Y-113192164D02*
X99260000Y-113407836D01*
X98540000Y-113192164D02*
X98540000Y-113407836D01*
%TO.C,C25*%
X98792164Y-109300000D02*
X99007836Y-109300000D01*
X98792164Y-110020000D02*
X99007836Y-110020000D01*
%TO.C,C24*%
X105292164Y-106040000D02*
X105507836Y-106040000D01*
X105292164Y-106760000D02*
X105507836Y-106760000D01*
%TO.C,C22*%
X95457836Y-106510000D02*
X95242164Y-106510000D01*
X95457836Y-105790000D02*
X95242164Y-105790000D01*
%TO.C,C18*%
X120940000Y-108307836D02*
X120940000Y-108092164D01*
X121660000Y-108307836D02*
X121660000Y-108092164D01*
%TO.C,C17*%
X132977500Y-96915000D02*
X135687500Y-96915000D01*
X132977500Y-98485000D02*
X132977500Y-96915000D01*
X135687500Y-98485000D02*
X132977500Y-98485000D01*
%TO.C,C16*%
X97392164Y-105340000D02*
X97607836Y-105340000D01*
X97392164Y-106060000D02*
X97607836Y-106060000D01*
%TO.C,C15*%
X125610000Y-106259420D02*
X125610000Y-106540580D01*
X124590000Y-106259420D02*
X124590000Y-106540580D01*
%TO.C,C14*%
X125310000Y-121959420D02*
X125310000Y-122240580D01*
X124290000Y-121959420D02*
X124290000Y-122240580D01*
%TO.C,C13*%
X134792164Y-99040000D02*
X135007836Y-99040000D01*
X134792164Y-99760000D02*
X135007836Y-99760000D01*
%TO.C,C12*%
X97342164Y-116290000D02*
X97557836Y-116290000D01*
X97342164Y-117010000D02*
X97557836Y-117010000D01*
%TO.C,C11*%
X115772164Y-112190000D02*
X115987836Y-112190000D01*
X115772164Y-112910000D02*
X115987836Y-112910000D01*
%TO.C,C10*%
X130807836Y-99760000D02*
X130592164Y-99760000D01*
X130807836Y-99040000D02*
X130592164Y-99040000D01*
%TO.C,C9*%
X108242164Y-107740000D02*
X108457836Y-107740000D01*
X108242164Y-108460000D02*
X108457836Y-108460000D01*
%TO.C,C8*%
X124590000Y-101940580D02*
X124590000Y-101659420D01*
X125610000Y-101940580D02*
X125610000Y-101659420D01*
%TO.C,C7*%
X124290000Y-117640580D02*
X124290000Y-117359420D01*
X125310000Y-117640580D02*
X125310000Y-117359420D01*
%TO.C,C6*%
X96042164Y-109340000D02*
X96257836Y-109340000D01*
X96042164Y-110060000D02*
X96257836Y-110060000D01*
%TO.C,C5*%
X131610000Y-98485000D02*
X128900000Y-98485000D01*
X131610000Y-96915000D02*
X131610000Y-98485000D01*
X128900000Y-96915000D02*
X131610000Y-96915000D01*
%TO.C,C4*%
X115972164Y-105340000D02*
X116187836Y-105340000D01*
X115972164Y-106060000D02*
X116187836Y-106060000D01*
%TO.C,C3*%
X120592164Y-105490000D02*
X120807836Y-105490000D01*
X120592164Y-106210000D02*
X120807836Y-106210000D01*
%TO.C,C2*%
X122440000Y-113507836D02*
X122440000Y-113292164D01*
X123160000Y-113507836D02*
X123160000Y-113292164D01*
%TO.C,U4*%
D11*
X137452380Y-91138095D02*
X138261904Y-91138095D01*
X138357142Y-91185714D01*
X138404761Y-91233333D01*
X138452380Y-91328571D01*
X138452380Y-91519047D01*
X138404761Y-91614285D01*
X138357142Y-91661904D01*
X138261904Y-91709523D01*
X137452380Y-91709523D01*
X137785714Y-92614285D02*
X138452380Y-92614285D01*
X137404761Y-92376190D02*
X138119047Y-92138095D01*
X138119047Y-92757142D01*
%TO.C,U3*%
X132661904Y-109152380D02*
X132661904Y-109961904D01*
X132614285Y-110057142D01*
X132566666Y-110104761D01*
X132471428Y-110152380D01*
X132280952Y-110152380D01*
X132185714Y-110104761D01*
X132138095Y-110057142D01*
X132090476Y-109961904D01*
X132090476Y-109152380D01*
X131709523Y-109152380D02*
X131090476Y-109152380D01*
X131423809Y-109533333D01*
X131280952Y-109533333D01*
X131185714Y-109580952D01*
X131138095Y-109628571D01*
X131090476Y-109723809D01*
X131090476Y-109961904D01*
X131138095Y-110057142D01*
X131185714Y-110104761D01*
X131280952Y-110152380D01*
X131566666Y-110152380D01*
X131661904Y-110104761D01*
X131709523Y-110057142D01*
%TO.C,U2*%
X133361904Y-124652380D02*
X133361904Y-125461904D01*
X133314285Y-125557142D01*
X133266666Y-125604761D01*
X133171428Y-125652380D01*
X132980952Y-125652380D01*
X132885714Y-125604761D01*
X132838095Y-125557142D01*
X132790476Y-125461904D01*
X132790476Y-124652380D01*
X132361904Y-124747619D02*
X132314285Y-124700000D01*
X132219047Y-124652380D01*
X131980952Y-124652380D01*
X131885714Y-124700000D01*
X131838095Y-124747619D01*
X131790476Y-124842857D01*
X131790476Y-124938095D01*
X131838095Y-125080952D01*
X132409523Y-125652380D01*
X131790476Y-125652380D01*
%TO.C,TP4*%
X129161904Y-89200380D02*
X128590476Y-89200380D01*
X128876190Y-90200380D02*
X128876190Y-89200380D01*
X128257142Y-90200380D02*
X128257142Y-89200380D01*
X127876190Y-89200380D01*
X127780952Y-89248000D01*
X127733333Y-89295619D01*
X127685714Y-89390857D01*
X127685714Y-89533714D01*
X127733333Y-89628952D01*
X127780952Y-89676571D01*
X127876190Y-89724190D01*
X128257142Y-89724190D01*
X126828571Y-89533714D02*
X126828571Y-90200380D01*
X127066666Y-89152761D02*
X127304761Y-89867047D01*
X126685714Y-89867047D01*
%TO.C,TP3*%
X138011904Y-103750380D02*
X137440476Y-103750380D01*
X137726190Y-104750380D02*
X137726190Y-103750380D01*
X137107142Y-104750380D02*
X137107142Y-103750380D01*
X136726190Y-103750380D01*
X136630952Y-103798000D01*
X136583333Y-103845619D01*
X136535714Y-103940857D01*
X136535714Y-104083714D01*
X136583333Y-104178952D01*
X136630952Y-104226571D01*
X136726190Y-104274190D01*
X137107142Y-104274190D01*
X136202380Y-103750380D02*
X135583333Y-103750380D01*
X135916666Y-104131333D01*
X135773809Y-104131333D01*
X135678571Y-104178952D01*
X135630952Y-104226571D01*
X135583333Y-104321809D01*
X135583333Y-104559904D01*
X135630952Y-104655142D01*
X135678571Y-104702761D01*
X135773809Y-104750380D01*
X136059523Y-104750380D01*
X136154761Y-104702761D01*
X136202380Y-104655142D01*
%TO.C,TP2*%
X138261904Y-120450380D02*
X137690476Y-120450380D01*
X137976190Y-121450380D02*
X137976190Y-120450380D01*
X137357142Y-121450380D02*
X137357142Y-120450380D01*
X136976190Y-120450380D01*
X136880952Y-120498000D01*
X136833333Y-120545619D01*
X136785714Y-120640857D01*
X136785714Y-120783714D01*
X136833333Y-120878952D01*
X136880952Y-120926571D01*
X136976190Y-120974190D01*
X137357142Y-120974190D01*
X136404761Y-120545619D02*
X136357142Y-120498000D01*
X136261904Y-120450380D01*
X136023809Y-120450380D01*
X135928571Y-120498000D01*
X135880952Y-120545619D01*
X135833333Y-120640857D01*
X135833333Y-120736095D01*
X135880952Y-120878952D01*
X136452380Y-121450380D01*
X135833333Y-121450380D01*
%TO.C,C39*%
X106092857Y-118207142D02*
X106140476Y-118254761D01*
X106283333Y-118302380D01*
X106378571Y-118302380D01*
X106521428Y-118254761D01*
X106616666Y-118159523D01*
X106664285Y-118064285D01*
X106711904Y-117873809D01*
X106711904Y-117730952D01*
X106664285Y-117540476D01*
X106616666Y-117445238D01*
X106521428Y-117350000D01*
X106378571Y-117302380D01*
X106283333Y-117302380D01*
X106140476Y-117350000D01*
X106092857Y-117397619D01*
X105759523Y-117302380D02*
X105140476Y-117302380D01*
X105473809Y-117683333D01*
X105330952Y-117683333D01*
X105235714Y-117730952D01*
X105188095Y-117778571D01*
X105140476Y-117873809D01*
X105140476Y-118111904D01*
X105188095Y-118207142D01*
X105235714Y-118254761D01*
X105330952Y-118302380D01*
X105616666Y-118302380D01*
X105711904Y-118254761D01*
X105759523Y-118207142D01*
X104664285Y-118302380D02*
X104473809Y-118302380D01*
X104378571Y-118254761D01*
X104330952Y-118207142D01*
X104235714Y-118064285D01*
X104188095Y-117873809D01*
X104188095Y-117492857D01*
X104235714Y-117397619D01*
X104283333Y-117350000D01*
X104378571Y-117302380D01*
X104569047Y-117302380D01*
X104664285Y-117350000D01*
X104711904Y-117397619D01*
X104759523Y-117492857D01*
X104759523Y-117730952D01*
X104711904Y-117826190D01*
X104664285Y-117873809D01*
X104569047Y-117921428D01*
X104378571Y-117921428D01*
X104283333Y-117873809D01*
X104235714Y-117826190D01*
X104188095Y-117730952D01*
%TO.C,C38*%
X94142857Y-115307142D02*
X94190476Y-115354761D01*
X94333333Y-115402380D01*
X94428571Y-115402380D01*
X94571428Y-115354761D01*
X94666666Y-115259523D01*
X94714285Y-115164285D01*
X94761904Y-114973809D01*
X94761904Y-114830952D01*
X94714285Y-114640476D01*
X94666666Y-114545238D01*
X94571428Y-114450000D01*
X94428571Y-114402380D01*
X94333333Y-114402380D01*
X94190476Y-114450000D01*
X94142857Y-114497619D01*
X93809523Y-114402380D02*
X93190476Y-114402380D01*
X93523809Y-114783333D01*
X93380952Y-114783333D01*
X93285714Y-114830952D01*
X93238095Y-114878571D01*
X93190476Y-114973809D01*
X93190476Y-115211904D01*
X93238095Y-115307142D01*
X93285714Y-115354761D01*
X93380952Y-115402380D01*
X93666666Y-115402380D01*
X93761904Y-115354761D01*
X93809523Y-115307142D01*
X92619047Y-114830952D02*
X92714285Y-114783333D01*
X92761904Y-114735714D01*
X92809523Y-114640476D01*
X92809523Y-114592857D01*
X92761904Y-114497619D01*
X92714285Y-114450000D01*
X92619047Y-114402380D01*
X92428571Y-114402380D01*
X92333333Y-114450000D01*
X92285714Y-114497619D01*
X92238095Y-114592857D01*
X92238095Y-114640476D01*
X92285714Y-114735714D01*
X92333333Y-114783333D01*
X92428571Y-114830952D01*
X92619047Y-114830952D01*
X92714285Y-114878571D01*
X92761904Y-114926190D01*
X92809523Y-115021428D01*
X92809523Y-115211904D01*
X92761904Y-115307142D01*
X92714285Y-115354761D01*
X92619047Y-115402380D01*
X92428571Y-115402380D01*
X92333333Y-115354761D01*
X92285714Y-115307142D01*
X92238095Y-115211904D01*
X92238095Y-115021428D01*
X92285714Y-114926190D01*
X92333333Y-114878571D01*
X92428571Y-114830952D01*
%TO.C,C37*%
X105422857Y-110117142D02*
X105470476Y-110164761D01*
X105613333Y-110212380D01*
X105708571Y-110212380D01*
X105851428Y-110164761D01*
X105946666Y-110069523D01*
X105994285Y-109974285D01*
X106041904Y-109783809D01*
X106041904Y-109640952D01*
X105994285Y-109450476D01*
X105946666Y-109355238D01*
X105851428Y-109260000D01*
X105708571Y-109212380D01*
X105613333Y-109212380D01*
X105470476Y-109260000D01*
X105422857Y-109307619D01*
X105089523Y-109212380D02*
X104470476Y-109212380D01*
X104803809Y-109593333D01*
X104660952Y-109593333D01*
X104565714Y-109640952D01*
X104518095Y-109688571D01*
X104470476Y-109783809D01*
X104470476Y-110021904D01*
X104518095Y-110117142D01*
X104565714Y-110164761D01*
X104660952Y-110212380D01*
X104946666Y-110212380D01*
X105041904Y-110164761D01*
X105089523Y-110117142D01*
X104137142Y-109212380D02*
X103470476Y-109212380D01*
X103899047Y-110212380D01*
%TO.C,C35*%
X93757142Y-100307142D02*
X93804761Y-100259523D01*
X93852380Y-100116666D01*
X93852380Y-100021428D01*
X93804761Y-99878571D01*
X93709523Y-99783333D01*
X93614285Y-99735714D01*
X93423809Y-99688095D01*
X93280952Y-99688095D01*
X93090476Y-99735714D01*
X92995238Y-99783333D01*
X92900000Y-99878571D01*
X92852380Y-100021428D01*
X92852380Y-100116666D01*
X92900000Y-100259523D01*
X92947619Y-100307142D01*
X92852380Y-100640476D02*
X92852380Y-101259523D01*
X93233333Y-100926190D01*
X93233333Y-101069047D01*
X93280952Y-101164285D01*
X93328571Y-101211904D01*
X93423809Y-101259523D01*
X93661904Y-101259523D01*
X93757142Y-101211904D01*
X93804761Y-101164285D01*
X93852380Y-101069047D01*
X93852380Y-100783333D01*
X93804761Y-100688095D01*
X93757142Y-100640476D01*
X92852380Y-102164285D02*
X92852380Y-101688095D01*
X93328571Y-101640476D01*
X93280952Y-101688095D01*
X93233333Y-101783333D01*
X93233333Y-102021428D01*
X93280952Y-102116666D01*
X93328571Y-102164285D01*
X93423809Y-102211904D01*
X93661904Y-102211904D01*
X93757142Y-102164285D01*
X93804761Y-102116666D01*
X93852380Y-102021428D01*
X93852380Y-101783333D01*
X93804761Y-101688095D01*
X93757142Y-101640476D01*
%TO.C,C33*%
X103707142Y-112407142D02*
X103754761Y-112359523D01*
X103802380Y-112216666D01*
X103802380Y-112121428D01*
X103754761Y-111978571D01*
X103659523Y-111883333D01*
X103564285Y-111835714D01*
X103373809Y-111788095D01*
X103230952Y-111788095D01*
X103040476Y-111835714D01*
X102945238Y-111883333D01*
X102850000Y-111978571D01*
X102802380Y-112121428D01*
X102802380Y-112216666D01*
X102850000Y-112359523D01*
X102897619Y-112407142D01*
X102802380Y-112740476D02*
X102802380Y-113359523D01*
X103183333Y-113026190D01*
X103183333Y-113169047D01*
X103230952Y-113264285D01*
X103278571Y-113311904D01*
X103373809Y-113359523D01*
X103611904Y-113359523D01*
X103707142Y-113311904D01*
X103754761Y-113264285D01*
X103802380Y-113169047D01*
X103802380Y-112883333D01*
X103754761Y-112788095D01*
X103707142Y-112740476D01*
X102802380Y-113692857D02*
X102802380Y-114311904D01*
X103183333Y-113978571D01*
X103183333Y-114121428D01*
X103230952Y-114216666D01*
X103278571Y-114264285D01*
X103373809Y-114311904D01*
X103611904Y-114311904D01*
X103707142Y-114264285D01*
X103754761Y-114216666D01*
X103802380Y-114121428D01*
X103802380Y-113835714D01*
X103754761Y-113740476D01*
X103707142Y-113692857D01*
%TO.C,C32*%
X103397142Y-103557142D02*
X103444761Y-103509523D01*
X103492380Y-103366666D01*
X103492380Y-103271428D01*
X103444761Y-103128571D01*
X103349523Y-103033333D01*
X103254285Y-102985714D01*
X103063809Y-102938095D01*
X102920952Y-102938095D01*
X102730476Y-102985714D01*
X102635238Y-103033333D01*
X102540000Y-103128571D01*
X102492380Y-103271428D01*
X102492380Y-103366666D01*
X102540000Y-103509523D01*
X102587619Y-103557142D01*
X102492380Y-103890476D02*
X102492380Y-104509523D01*
X102873333Y-104176190D01*
X102873333Y-104319047D01*
X102920952Y-104414285D01*
X102968571Y-104461904D01*
X103063809Y-104509523D01*
X103301904Y-104509523D01*
X103397142Y-104461904D01*
X103444761Y-104414285D01*
X103492380Y-104319047D01*
X103492380Y-104033333D01*
X103444761Y-103938095D01*
X103397142Y-103890476D01*
X102587619Y-104890476D02*
X102540000Y-104938095D01*
X102492380Y-105033333D01*
X102492380Y-105271428D01*
X102540000Y-105366666D01*
X102587619Y-105414285D01*
X102682857Y-105461904D01*
X102778095Y-105461904D01*
X102920952Y-105414285D01*
X103492380Y-104842857D01*
X103492380Y-105461904D01*
%TO.C,C31*%
X110467142Y-116007142D02*
X110514761Y-115959523D01*
X110562380Y-115816666D01*
X110562380Y-115721428D01*
X110514761Y-115578571D01*
X110419523Y-115483333D01*
X110324285Y-115435714D01*
X110133809Y-115388095D01*
X109990952Y-115388095D01*
X109800476Y-115435714D01*
X109705238Y-115483333D01*
X109610000Y-115578571D01*
X109562380Y-115721428D01*
X109562380Y-115816666D01*
X109610000Y-115959523D01*
X109657619Y-116007142D01*
X109562380Y-116340476D02*
X109562380Y-116959523D01*
X109943333Y-116626190D01*
X109943333Y-116769047D01*
X109990952Y-116864285D01*
X110038571Y-116911904D01*
X110133809Y-116959523D01*
X110371904Y-116959523D01*
X110467142Y-116911904D01*
X110514761Y-116864285D01*
X110562380Y-116769047D01*
X110562380Y-116483333D01*
X110514761Y-116388095D01*
X110467142Y-116340476D01*
X110562380Y-117911904D02*
X110562380Y-117340476D01*
X110562380Y-117626190D02*
X109562380Y-117626190D01*
X109705238Y-117530952D01*
X109800476Y-117435714D01*
X109848095Y-117340476D01*
%TO.C,C29*%
X101732857Y-113037142D02*
X101780476Y-113084761D01*
X101923333Y-113132380D01*
X102018571Y-113132380D01*
X102161428Y-113084761D01*
X102256666Y-112989523D01*
X102304285Y-112894285D01*
X102351904Y-112703809D01*
X102351904Y-112560952D01*
X102304285Y-112370476D01*
X102256666Y-112275238D01*
X102161428Y-112180000D01*
X102018571Y-112132380D01*
X101923333Y-112132380D01*
X101780476Y-112180000D01*
X101732857Y-112227619D01*
X101351904Y-112227619D02*
X101304285Y-112180000D01*
X101209047Y-112132380D01*
X100970952Y-112132380D01*
X100875714Y-112180000D01*
X100828095Y-112227619D01*
X100780476Y-112322857D01*
X100780476Y-112418095D01*
X100828095Y-112560952D01*
X101399523Y-113132380D01*
X100780476Y-113132380D01*
X100304285Y-113132380D02*
X100113809Y-113132380D01*
X100018571Y-113084761D01*
X99970952Y-113037142D01*
X99875714Y-112894285D01*
X99828095Y-112703809D01*
X99828095Y-112322857D01*
X99875714Y-112227619D01*
X99923333Y-112180000D01*
X100018571Y-112132380D01*
X100209047Y-112132380D01*
X100304285Y-112180000D01*
X100351904Y-112227619D01*
X100399523Y-112322857D01*
X100399523Y-112560952D01*
X100351904Y-112656190D01*
X100304285Y-112703809D01*
X100209047Y-112751428D01*
X100018571Y-112751428D01*
X99923333Y-112703809D01*
X99875714Y-112656190D01*
X99828095Y-112560952D01*
%TO.C,C28*%
X109142857Y-101397142D02*
X109190476Y-101444761D01*
X109333333Y-101492380D01*
X109428571Y-101492380D01*
X109571428Y-101444761D01*
X109666666Y-101349523D01*
X109714285Y-101254285D01*
X109761904Y-101063809D01*
X109761904Y-100920952D01*
X109714285Y-100730476D01*
X109666666Y-100635238D01*
X109571428Y-100540000D01*
X109428571Y-100492380D01*
X109333333Y-100492380D01*
X109190476Y-100540000D01*
X109142857Y-100587619D01*
X108761904Y-100587619D02*
X108714285Y-100540000D01*
X108619047Y-100492380D01*
X108380952Y-100492380D01*
X108285714Y-100540000D01*
X108238095Y-100587619D01*
X108190476Y-100682857D01*
X108190476Y-100778095D01*
X108238095Y-100920952D01*
X108809523Y-101492380D01*
X108190476Y-101492380D01*
X107619047Y-100920952D02*
X107714285Y-100873333D01*
X107761904Y-100825714D01*
X107809523Y-100730476D01*
X107809523Y-100682857D01*
X107761904Y-100587619D01*
X107714285Y-100540000D01*
X107619047Y-100492380D01*
X107428571Y-100492380D01*
X107333333Y-100540000D01*
X107285714Y-100587619D01*
X107238095Y-100682857D01*
X107238095Y-100730476D01*
X107285714Y-100825714D01*
X107333333Y-100873333D01*
X107428571Y-100920952D01*
X107619047Y-100920952D01*
X107714285Y-100968571D01*
X107761904Y-101016190D01*
X107809523Y-101111428D01*
X107809523Y-101301904D01*
X107761904Y-101397142D01*
X107714285Y-101444761D01*
X107619047Y-101492380D01*
X107428571Y-101492380D01*
X107333333Y-101444761D01*
X107285714Y-101397142D01*
X107238095Y-101301904D01*
X107238095Y-101111428D01*
X107285714Y-101016190D01*
X107333333Y-100968571D01*
X107428571Y-100920952D01*
%TO.C,C27*%
X99407142Y-115057142D02*
X99454761Y-115009523D01*
X99502380Y-114866666D01*
X99502380Y-114771428D01*
X99454761Y-114628571D01*
X99359523Y-114533333D01*
X99264285Y-114485714D01*
X99073809Y-114438095D01*
X98930952Y-114438095D01*
X98740476Y-114485714D01*
X98645238Y-114533333D01*
X98550000Y-114628571D01*
X98502380Y-114771428D01*
X98502380Y-114866666D01*
X98550000Y-115009523D01*
X98597619Y-115057142D01*
X98597619Y-115438095D02*
X98550000Y-115485714D01*
X98502380Y-115580952D01*
X98502380Y-115819047D01*
X98550000Y-115914285D01*
X98597619Y-115961904D01*
X98692857Y-116009523D01*
X98788095Y-116009523D01*
X98930952Y-115961904D01*
X99502380Y-115390476D01*
X99502380Y-116009523D01*
X98502380Y-116342857D02*
X98502380Y-117009523D01*
X99502380Y-116580952D01*
%TO.C,C25*%
X99542857Y-108437142D02*
X99590476Y-108484761D01*
X99733333Y-108532380D01*
X99828571Y-108532380D01*
X99971428Y-108484761D01*
X100066666Y-108389523D01*
X100114285Y-108294285D01*
X100161904Y-108103809D01*
X100161904Y-107960952D01*
X100114285Y-107770476D01*
X100066666Y-107675238D01*
X99971428Y-107580000D01*
X99828571Y-107532380D01*
X99733333Y-107532380D01*
X99590476Y-107580000D01*
X99542857Y-107627619D01*
X99161904Y-107627619D02*
X99114285Y-107580000D01*
X99019047Y-107532380D01*
X98780952Y-107532380D01*
X98685714Y-107580000D01*
X98638095Y-107627619D01*
X98590476Y-107722857D01*
X98590476Y-107818095D01*
X98638095Y-107960952D01*
X99209523Y-108532380D01*
X98590476Y-108532380D01*
X97685714Y-107532380D02*
X98161904Y-107532380D01*
X98209523Y-108008571D01*
X98161904Y-107960952D01*
X98066666Y-107913333D01*
X97828571Y-107913333D01*
X97733333Y-107960952D01*
X97685714Y-108008571D01*
X97638095Y-108103809D01*
X97638095Y-108341904D01*
X97685714Y-108437142D01*
X97733333Y-108484761D01*
X97828571Y-108532380D01*
X98066666Y-108532380D01*
X98161904Y-108484761D01*
X98209523Y-108437142D01*
%TO.C,C24*%
X106042857Y-107917142D02*
X106090476Y-107964761D01*
X106233333Y-108012380D01*
X106328571Y-108012380D01*
X106471428Y-107964761D01*
X106566666Y-107869523D01*
X106614285Y-107774285D01*
X106661904Y-107583809D01*
X106661904Y-107440952D01*
X106614285Y-107250476D01*
X106566666Y-107155238D01*
X106471428Y-107060000D01*
X106328571Y-107012380D01*
X106233333Y-107012380D01*
X106090476Y-107060000D01*
X106042857Y-107107619D01*
X105661904Y-107107619D02*
X105614285Y-107060000D01*
X105519047Y-107012380D01*
X105280952Y-107012380D01*
X105185714Y-107060000D01*
X105138095Y-107107619D01*
X105090476Y-107202857D01*
X105090476Y-107298095D01*
X105138095Y-107440952D01*
X105709523Y-108012380D01*
X105090476Y-108012380D01*
X104233333Y-107345714D02*
X104233333Y-108012380D01*
X104471428Y-106964761D02*
X104709523Y-107679047D01*
X104090476Y-107679047D01*
%TO.C,C22*%
X93692857Y-107307142D02*
X93740476Y-107354761D01*
X93883333Y-107402380D01*
X93978571Y-107402380D01*
X94121428Y-107354761D01*
X94216666Y-107259523D01*
X94264285Y-107164285D01*
X94311904Y-106973809D01*
X94311904Y-106830952D01*
X94264285Y-106640476D01*
X94216666Y-106545238D01*
X94121428Y-106450000D01*
X93978571Y-106402380D01*
X93883333Y-106402380D01*
X93740476Y-106450000D01*
X93692857Y-106497619D01*
X93311904Y-106497619D02*
X93264285Y-106450000D01*
X93169047Y-106402380D01*
X92930952Y-106402380D01*
X92835714Y-106450000D01*
X92788095Y-106497619D01*
X92740476Y-106592857D01*
X92740476Y-106688095D01*
X92788095Y-106830952D01*
X93359523Y-107402380D01*
X92740476Y-107402380D01*
X92359523Y-106497619D02*
X92311904Y-106450000D01*
X92216666Y-106402380D01*
X91978571Y-106402380D01*
X91883333Y-106450000D01*
X91835714Y-106497619D01*
X91788095Y-106592857D01*
X91788095Y-106688095D01*
X91835714Y-106830952D01*
X92407142Y-107402380D01*
X91788095Y-107402380D01*
%TO.C,C18*%
X122757142Y-109507142D02*
X122804761Y-109459523D01*
X122852380Y-109316666D01*
X122852380Y-109221428D01*
X122804761Y-109078571D01*
X122709523Y-108983333D01*
X122614285Y-108935714D01*
X122423809Y-108888095D01*
X122280952Y-108888095D01*
X122090476Y-108935714D01*
X121995238Y-108983333D01*
X121900000Y-109078571D01*
X121852380Y-109221428D01*
X121852380Y-109316666D01*
X121900000Y-109459523D01*
X121947619Y-109507142D01*
X122852380Y-110459523D02*
X122852380Y-109888095D01*
X122852380Y-110173809D02*
X121852380Y-110173809D01*
X121995238Y-110078571D01*
X122090476Y-109983333D01*
X122138095Y-109888095D01*
X122280952Y-111030952D02*
X122233333Y-110935714D01*
X122185714Y-110888095D01*
X122090476Y-110840476D01*
X122042857Y-110840476D01*
X121947619Y-110888095D01*
X121900000Y-110935714D01*
X121852380Y-111030952D01*
X121852380Y-111221428D01*
X121900000Y-111316666D01*
X121947619Y-111364285D01*
X122042857Y-111411904D01*
X122090476Y-111411904D01*
X122185714Y-111364285D01*
X122233333Y-111316666D01*
X122280952Y-111221428D01*
X122280952Y-111030952D01*
X122328571Y-110935714D01*
X122376190Y-110888095D01*
X122471428Y-110840476D01*
X122661904Y-110840476D01*
X122757142Y-110888095D01*
X122804761Y-110935714D01*
X122852380Y-111030952D01*
X122852380Y-111221428D01*
X122804761Y-111316666D01*
X122757142Y-111364285D01*
X122661904Y-111411904D01*
X122471428Y-111411904D01*
X122376190Y-111364285D01*
X122328571Y-111316666D01*
X122280952Y-111221428D01*
%TO.C,C17*%
X132542857Y-100842857D02*
X132495238Y-100890476D01*
X132447619Y-101033333D01*
X132447619Y-101128571D01*
X132495238Y-101271428D01*
X132590476Y-101366666D01*
X132685714Y-101414285D01*
X132876190Y-101461904D01*
X133019047Y-101461904D01*
X133209523Y-101414285D01*
X133304761Y-101366666D01*
X133400000Y-101271428D01*
X133447619Y-101128571D01*
X133447619Y-101033333D01*
X133400000Y-100890476D01*
X133352380Y-100842857D01*
X132447619Y-99890476D02*
X132447619Y-100461904D01*
X132447619Y-100176190D02*
X133447619Y-100176190D01*
X133304761Y-100271428D01*
X133209523Y-100366666D01*
X133161904Y-100461904D01*
X133447619Y-99557142D02*
X133447619Y-98890476D01*
X132447619Y-99319047D01*
%TO.C,C16*%
X98192857Y-104407142D02*
X98240476Y-104454761D01*
X98383333Y-104502380D01*
X98478571Y-104502380D01*
X98621428Y-104454761D01*
X98716666Y-104359523D01*
X98764285Y-104264285D01*
X98811904Y-104073809D01*
X98811904Y-103930952D01*
X98764285Y-103740476D01*
X98716666Y-103645238D01*
X98621428Y-103550000D01*
X98478571Y-103502380D01*
X98383333Y-103502380D01*
X98240476Y-103550000D01*
X98192857Y-103597619D01*
X97240476Y-104502380D02*
X97811904Y-104502380D01*
X97526190Y-104502380D02*
X97526190Y-103502380D01*
X97621428Y-103645238D01*
X97716666Y-103740476D01*
X97811904Y-103788095D01*
X96383333Y-103502380D02*
X96573809Y-103502380D01*
X96669047Y-103550000D01*
X96716666Y-103597619D01*
X96811904Y-103740476D01*
X96859523Y-103930952D01*
X96859523Y-104311904D01*
X96811904Y-104407142D01*
X96764285Y-104454761D01*
X96669047Y-104502380D01*
X96478571Y-104502380D01*
X96383333Y-104454761D01*
X96335714Y-104407142D01*
X96288095Y-104311904D01*
X96288095Y-104073809D01*
X96335714Y-103978571D01*
X96383333Y-103930952D01*
X96478571Y-103883333D01*
X96669047Y-103883333D01*
X96764285Y-103930952D01*
X96811904Y-103978571D01*
X96859523Y-104073809D01*
%TO.C,C15*%
X124027142Y-105757142D02*
X124074761Y-105709523D01*
X124122380Y-105566666D01*
X124122380Y-105471428D01*
X124074761Y-105328571D01*
X123979523Y-105233333D01*
X123884285Y-105185714D01*
X123693809Y-105138095D01*
X123550952Y-105138095D01*
X123360476Y-105185714D01*
X123265238Y-105233333D01*
X123170000Y-105328571D01*
X123122380Y-105471428D01*
X123122380Y-105566666D01*
X123170000Y-105709523D01*
X123217619Y-105757142D01*
X124122380Y-106709523D02*
X124122380Y-106138095D01*
X124122380Y-106423809D02*
X123122380Y-106423809D01*
X123265238Y-106328571D01*
X123360476Y-106233333D01*
X123408095Y-106138095D01*
X123122380Y-107614285D02*
X123122380Y-107138095D01*
X123598571Y-107090476D01*
X123550952Y-107138095D01*
X123503333Y-107233333D01*
X123503333Y-107471428D01*
X123550952Y-107566666D01*
X123598571Y-107614285D01*
X123693809Y-107661904D01*
X123931904Y-107661904D01*
X124027142Y-107614285D01*
X124074761Y-107566666D01*
X124122380Y-107471428D01*
X124122380Y-107233333D01*
X124074761Y-107138095D01*
X124027142Y-107090476D01*
%TO.C,C14*%
X123727142Y-121457142D02*
X123774761Y-121409523D01*
X123822380Y-121266666D01*
X123822380Y-121171428D01*
X123774761Y-121028571D01*
X123679523Y-120933333D01*
X123584285Y-120885714D01*
X123393809Y-120838095D01*
X123250952Y-120838095D01*
X123060476Y-120885714D01*
X122965238Y-120933333D01*
X122870000Y-121028571D01*
X122822380Y-121171428D01*
X122822380Y-121266666D01*
X122870000Y-121409523D01*
X122917619Y-121457142D01*
X123822380Y-122409523D02*
X123822380Y-121838095D01*
X123822380Y-122123809D02*
X122822380Y-122123809D01*
X122965238Y-122028571D01*
X123060476Y-121933333D01*
X123108095Y-121838095D01*
X123155714Y-123266666D02*
X123822380Y-123266666D01*
X122774761Y-123028571D02*
X123489047Y-122790476D01*
X123489047Y-123409523D01*
%TO.C,C13*%
X135542857Y-100917142D02*
X135590476Y-100964761D01*
X135733333Y-101012380D01*
X135828571Y-101012380D01*
X135971428Y-100964761D01*
X136066666Y-100869523D01*
X136114285Y-100774285D01*
X136161904Y-100583809D01*
X136161904Y-100440952D01*
X136114285Y-100250476D01*
X136066666Y-100155238D01*
X135971428Y-100060000D01*
X135828571Y-100012380D01*
X135733333Y-100012380D01*
X135590476Y-100060000D01*
X135542857Y-100107619D01*
X134590476Y-101012380D02*
X135161904Y-101012380D01*
X134876190Y-101012380D02*
X134876190Y-100012380D01*
X134971428Y-100155238D01*
X135066666Y-100250476D01*
X135161904Y-100298095D01*
X134257142Y-100012380D02*
X133638095Y-100012380D01*
X133971428Y-100393333D01*
X133828571Y-100393333D01*
X133733333Y-100440952D01*
X133685714Y-100488571D01*
X133638095Y-100583809D01*
X133638095Y-100821904D01*
X133685714Y-100917142D01*
X133733333Y-100964761D01*
X133828571Y-101012380D01*
X134114285Y-101012380D01*
X134209523Y-100964761D01*
X134257142Y-100917142D01*
%TO.C,C12*%
X98092857Y-118167142D02*
X98140476Y-118214761D01*
X98283333Y-118262380D01*
X98378571Y-118262380D01*
X98521428Y-118214761D01*
X98616666Y-118119523D01*
X98664285Y-118024285D01*
X98711904Y-117833809D01*
X98711904Y-117690952D01*
X98664285Y-117500476D01*
X98616666Y-117405238D01*
X98521428Y-117310000D01*
X98378571Y-117262380D01*
X98283333Y-117262380D01*
X98140476Y-117310000D01*
X98092857Y-117357619D01*
X97140476Y-118262380D02*
X97711904Y-118262380D01*
X97426190Y-118262380D02*
X97426190Y-117262380D01*
X97521428Y-117405238D01*
X97616666Y-117500476D01*
X97711904Y-117548095D01*
X96759523Y-117357619D02*
X96711904Y-117310000D01*
X96616666Y-117262380D01*
X96378571Y-117262380D01*
X96283333Y-117310000D01*
X96235714Y-117357619D01*
X96188095Y-117452857D01*
X96188095Y-117548095D01*
X96235714Y-117690952D01*
X96807142Y-118262380D01*
X96188095Y-118262380D01*
%TO.C,C11*%
X116522857Y-114067142D02*
X116570476Y-114114761D01*
X116713333Y-114162380D01*
X116808571Y-114162380D01*
X116951428Y-114114761D01*
X117046666Y-114019523D01*
X117094285Y-113924285D01*
X117141904Y-113733809D01*
X117141904Y-113590952D01*
X117094285Y-113400476D01*
X117046666Y-113305238D01*
X116951428Y-113210000D01*
X116808571Y-113162380D01*
X116713333Y-113162380D01*
X116570476Y-113210000D01*
X116522857Y-113257619D01*
X115570476Y-114162380D02*
X116141904Y-114162380D01*
X115856190Y-114162380D02*
X115856190Y-113162380D01*
X115951428Y-113305238D01*
X116046666Y-113400476D01*
X116141904Y-113448095D01*
X114618095Y-114162380D02*
X115189523Y-114162380D01*
X114903809Y-114162380D02*
X114903809Y-113162380D01*
X114999047Y-113305238D01*
X115094285Y-113400476D01*
X115189523Y-113448095D01*
%TO.C,C10*%
X131242857Y-100957142D02*
X131290476Y-101004761D01*
X131433333Y-101052380D01*
X131528571Y-101052380D01*
X131671428Y-101004761D01*
X131766666Y-100909523D01*
X131814285Y-100814285D01*
X131861904Y-100623809D01*
X131861904Y-100480952D01*
X131814285Y-100290476D01*
X131766666Y-100195238D01*
X131671428Y-100100000D01*
X131528571Y-100052380D01*
X131433333Y-100052380D01*
X131290476Y-100100000D01*
X131242857Y-100147619D01*
X130290476Y-101052380D02*
X130861904Y-101052380D01*
X130576190Y-101052380D02*
X130576190Y-100052380D01*
X130671428Y-100195238D01*
X130766666Y-100290476D01*
X130861904Y-100338095D01*
X129671428Y-100052380D02*
X129576190Y-100052380D01*
X129480952Y-100100000D01*
X129433333Y-100147619D01*
X129385714Y-100242857D01*
X129338095Y-100433333D01*
X129338095Y-100671428D01*
X129385714Y-100861904D01*
X129433333Y-100957142D01*
X129480952Y-101004761D01*
X129576190Y-101052380D01*
X129671428Y-101052380D01*
X129766666Y-101004761D01*
X129814285Y-100957142D01*
X129861904Y-100861904D01*
X129909523Y-100671428D01*
X129909523Y-100433333D01*
X129861904Y-100242857D01*
X129814285Y-100147619D01*
X129766666Y-100100000D01*
X129671428Y-100052380D01*
%TO.C,C9*%
X110366666Y-108407142D02*
X110414285Y-108454761D01*
X110557142Y-108502380D01*
X110652380Y-108502380D01*
X110795238Y-108454761D01*
X110890476Y-108359523D01*
X110938095Y-108264285D01*
X110985714Y-108073809D01*
X110985714Y-107930952D01*
X110938095Y-107740476D01*
X110890476Y-107645238D01*
X110795238Y-107550000D01*
X110652380Y-107502380D01*
X110557142Y-107502380D01*
X110414285Y-107550000D01*
X110366666Y-107597619D01*
X109890476Y-108502380D02*
X109700000Y-108502380D01*
X109604761Y-108454761D01*
X109557142Y-108407142D01*
X109461904Y-108264285D01*
X109414285Y-108073809D01*
X109414285Y-107692857D01*
X109461904Y-107597619D01*
X109509523Y-107550000D01*
X109604761Y-107502380D01*
X109795238Y-107502380D01*
X109890476Y-107550000D01*
X109938095Y-107597619D01*
X109985714Y-107692857D01*
X109985714Y-107930952D01*
X109938095Y-108026190D01*
X109890476Y-108073809D01*
X109795238Y-108121428D01*
X109604761Y-108121428D01*
X109509523Y-108073809D01*
X109461904Y-108026190D01*
X109414285Y-107930952D01*
%TO.C,C8*%
X123342857Y-102066666D02*
X123295238Y-102114285D01*
X123247619Y-102257142D01*
X123247619Y-102352380D01*
X123295238Y-102495238D01*
X123390476Y-102590476D01*
X123485714Y-102638095D01*
X123676190Y-102685714D01*
X123819047Y-102685714D01*
X124009523Y-102638095D01*
X124104761Y-102590476D01*
X124200000Y-102495238D01*
X124247619Y-102352380D01*
X124247619Y-102257142D01*
X124200000Y-102114285D01*
X124152380Y-102066666D01*
X123819047Y-101495238D02*
X123866666Y-101590476D01*
X123914285Y-101638095D01*
X124009523Y-101685714D01*
X124057142Y-101685714D01*
X124152380Y-101638095D01*
X124200000Y-101590476D01*
X124247619Y-101495238D01*
X124247619Y-101304761D01*
X124200000Y-101209523D01*
X124152380Y-101161904D01*
X124057142Y-101114285D01*
X124009523Y-101114285D01*
X123914285Y-101161904D01*
X123866666Y-101209523D01*
X123819047Y-101304761D01*
X123819047Y-101495238D01*
X123771428Y-101590476D01*
X123723809Y-101638095D01*
X123628571Y-101685714D01*
X123438095Y-101685714D01*
X123342857Y-101638095D01*
X123295238Y-101590476D01*
X123247619Y-101495238D01*
X123247619Y-101304761D01*
X123295238Y-101209523D01*
X123342857Y-101161904D01*
X123438095Y-101114285D01*
X123628571Y-101114285D01*
X123723809Y-101161904D01*
X123771428Y-101209523D01*
X123819047Y-101304761D01*
%TO.C,C7*%
X123557142Y-117433333D02*
X123604761Y-117385714D01*
X123652380Y-117242857D01*
X123652380Y-117147619D01*
X123604761Y-117004761D01*
X123509523Y-116909523D01*
X123414285Y-116861904D01*
X123223809Y-116814285D01*
X123080952Y-116814285D01*
X122890476Y-116861904D01*
X122795238Y-116909523D01*
X122700000Y-117004761D01*
X122652380Y-117147619D01*
X122652380Y-117242857D01*
X122700000Y-117385714D01*
X122747619Y-117433333D01*
X122652380Y-117766666D02*
X122652380Y-118433333D01*
X123652380Y-118004761D01*
%TO.C,C6*%
X94416666Y-109857142D02*
X94464285Y-109904761D01*
X94607142Y-109952380D01*
X94702380Y-109952380D01*
X94845238Y-109904761D01*
X94940476Y-109809523D01*
X94988095Y-109714285D01*
X95035714Y-109523809D01*
X95035714Y-109380952D01*
X94988095Y-109190476D01*
X94940476Y-109095238D01*
X94845238Y-109000000D01*
X94702380Y-108952380D01*
X94607142Y-108952380D01*
X94464285Y-109000000D01*
X94416666Y-109047619D01*
X93559523Y-108952380D02*
X93750000Y-108952380D01*
X93845238Y-109000000D01*
X93892857Y-109047619D01*
X93988095Y-109190476D01*
X94035714Y-109380952D01*
X94035714Y-109761904D01*
X93988095Y-109857142D01*
X93940476Y-109904761D01*
X93845238Y-109952380D01*
X93654761Y-109952380D01*
X93559523Y-109904761D01*
X93511904Y-109857142D01*
X93464285Y-109761904D01*
X93464285Y-109523809D01*
X93511904Y-109428571D01*
X93559523Y-109380952D01*
X93654761Y-109333333D01*
X93845238Y-109333333D01*
X93940476Y-109380952D01*
X93988095Y-109428571D01*
X94035714Y-109523809D01*
%TO.C,C5*%
X128042857Y-99866666D02*
X127995238Y-99914285D01*
X127947619Y-100057142D01*
X127947619Y-100152380D01*
X127995238Y-100295238D01*
X128090476Y-100390476D01*
X128185714Y-100438095D01*
X128376190Y-100485714D01*
X128519047Y-100485714D01*
X128709523Y-100438095D01*
X128804761Y-100390476D01*
X128900000Y-100295238D01*
X128947619Y-100152380D01*
X128947619Y-100057142D01*
X128900000Y-99914285D01*
X128852380Y-99866666D01*
X128947619Y-98961904D02*
X128947619Y-99438095D01*
X128471428Y-99485714D01*
X128519047Y-99438095D01*
X128566666Y-99342857D01*
X128566666Y-99104761D01*
X128519047Y-99009523D01*
X128471428Y-98961904D01*
X128376190Y-98914285D01*
X128138095Y-98914285D01*
X128042857Y-98961904D01*
X127995238Y-99009523D01*
X127947619Y-99104761D01*
X127947619Y-99342857D01*
X127995238Y-99438095D01*
X128042857Y-99485714D01*
%TO.C,C4*%
X116246666Y-107217142D02*
X116294285Y-107264761D01*
X116437142Y-107312380D01*
X116532380Y-107312380D01*
X116675238Y-107264761D01*
X116770476Y-107169523D01*
X116818095Y-107074285D01*
X116865714Y-106883809D01*
X116865714Y-106740952D01*
X116818095Y-106550476D01*
X116770476Y-106455238D01*
X116675238Y-106360000D01*
X116532380Y-106312380D01*
X116437142Y-106312380D01*
X116294285Y-106360000D01*
X116246666Y-106407619D01*
X115389523Y-106645714D02*
X115389523Y-107312380D01*
X115627619Y-106264761D02*
X115865714Y-106979047D01*
X115246666Y-106979047D01*
%TO.C,C3*%
X120866666Y-107367142D02*
X120914285Y-107414761D01*
X121057142Y-107462380D01*
X121152380Y-107462380D01*
X121295238Y-107414761D01*
X121390476Y-107319523D01*
X121438095Y-107224285D01*
X121485714Y-107033809D01*
X121485714Y-106890952D01*
X121438095Y-106700476D01*
X121390476Y-106605238D01*
X121295238Y-106510000D01*
X121152380Y-106462380D01*
X121057142Y-106462380D01*
X120914285Y-106510000D01*
X120866666Y-106557619D01*
X120533333Y-106462380D02*
X119914285Y-106462380D01*
X120247619Y-106843333D01*
X120104761Y-106843333D01*
X120009523Y-106890952D01*
X119961904Y-106938571D01*
X119914285Y-107033809D01*
X119914285Y-107271904D01*
X119961904Y-107367142D01*
X120009523Y-107414761D01*
X120104761Y-107462380D01*
X120390476Y-107462380D01*
X120485714Y-107414761D01*
X120533333Y-107367142D01*
%TO.C,C2*%
X124317142Y-113233333D02*
X124364761Y-113185714D01*
X124412380Y-113042857D01*
X124412380Y-112947619D01*
X124364761Y-112804761D01*
X124269523Y-112709523D01*
X124174285Y-112661904D01*
X123983809Y-112614285D01*
X123840952Y-112614285D01*
X123650476Y-112661904D01*
X123555238Y-112709523D01*
X123460000Y-112804761D01*
X123412380Y-112947619D01*
X123412380Y-113042857D01*
X123460000Y-113185714D01*
X123507619Y-113233333D01*
X123507619Y-113614285D02*
X123460000Y-113661904D01*
X123412380Y-113757142D01*
X123412380Y-113995238D01*
X123460000Y-114090476D01*
X123507619Y-114138095D01*
X123602857Y-114185714D01*
X123698095Y-114185714D01*
X123840952Y-114138095D01*
X124412380Y-113566666D01*
X124412380Y-114185714D01*
%TD*%
M02*
