%TF.GenerationSoftware,KiCad,Pcbnew,5.1.8-db9833491~88~ubuntu20.04.1*%
%TF.CreationDate,2021-01-24T20:19:36-05:00*%
%TF.ProjectId,julia_v2.1.1.0,6a756c69-615f-4763-922e-312e312e302e,rev?*%
%TF.SameCoordinates,Original*%
%TF.FileFunction,Soldermask,Bot*%
%TF.FilePolarity,Negative*%
%FSLAX46Y46*%
G04 Gerber Fmt 4.6, Leading zero omitted, Abs format (unit mm)*
G04 Created by KiCad (PCBNEW 5.1.8-db9833491~88~ubuntu20.04.1) date 2021-01-24 20:19:36*
%MOMM*%
%LPD*%
G01*
G04 APERTURE LIST*
%ADD10C,4.400000*%
%ADD11O,1.000000X1.000000*%
%ADD12R,1.000000X1.000000*%
%ADD13R,1.500000X2.000000*%
%ADD14R,3.800000X2.000000*%
%ADD15R,2.000000X1.500000*%
%ADD16R,2.000000X3.800000*%
%ADD17C,1.000000*%
%ADD18C,1.900000*%
%ADD19C,1.700000*%
G04 APERTURE END LIST*
D10*
%TO.C,H4*%
X138620000Y-88060000D03*
%TD*%
%TO.C,H3*%
X138620000Y-130400000D03*
%TD*%
%TO.C,H2*%
X80630000Y-130400000D03*
%TD*%
%TO.C,H1*%
X80630000Y-88060000D03*
%TD*%
D11*
%TO.C,J2*%
X86570000Y-126840000D03*
X85300000Y-126840000D03*
X86570000Y-125570000D03*
X85300000Y-125570000D03*
X86570000Y-124300000D03*
X85300000Y-124300000D03*
X86570000Y-123030000D03*
X85300000Y-123030000D03*
X86570000Y-121760000D03*
D12*
X85300000Y-121760000D03*
%TD*%
D13*
%TO.C,U4*%
X135800000Y-95050000D03*
X131200000Y-95050000D03*
X133500000Y-95050000D03*
D14*
X133500000Y-88750000D03*
%TD*%
D15*
%TO.C,U3*%
X127450000Y-107500000D03*
X127450000Y-102900000D03*
X127450000Y-105200000D03*
D16*
X133750000Y-105200000D03*
%TD*%
D15*
%TO.C,U2*%
X127150000Y-123000000D03*
X127150000Y-118400000D03*
X127150000Y-120700000D03*
D16*
X133450000Y-120700000D03*
%TD*%
D17*
%TO.C,TP14*%
X124650000Y-90000000D03*
%TD*%
%TO.C,TP13*%
X128200000Y-91300000D03*
%TD*%
%TO.C,TP12*%
X121500000Y-92900000D03*
%TD*%
%TO.C,TP11*%
X79760000Y-111520000D03*
%TD*%
%TO.C,TP10*%
X79700000Y-104800000D03*
%TD*%
%TO.C,TP9*%
X79700000Y-109200000D03*
%TD*%
%TO.C,TP8*%
X93080000Y-129130000D03*
%TD*%
%TO.C,TP7*%
X79700000Y-107000000D03*
%TD*%
%TO.C,TP6*%
X92500000Y-98300000D03*
%TD*%
%TO.C,TP5*%
X118400000Y-121400000D03*
%TD*%
%TO.C,TP4*%
X127900000Y-88300000D03*
%TD*%
%TO.C,TP3*%
X136750000Y-102850000D03*
%TD*%
%TO.C,TP2*%
X137000000Y-119550000D03*
%TD*%
%TO.C,TP1*%
X118300000Y-124900000D03*
%TD*%
D18*
%TO.C,J1*%
X125700000Y-125500000D03*
D19*
X130200000Y-125500000D03*
%TD*%
%TO.C,C39*%
G36*
G01*
X105300000Y-116480000D02*
X105300000Y-116820000D01*
G75*
G02*
X105160000Y-116960000I-140000J0D01*
G01*
X104880000Y-116960000D01*
G75*
G02*
X104740000Y-116820000I0J140000D01*
G01*
X104740000Y-116480000D01*
G75*
G02*
X104880000Y-116340000I140000J0D01*
G01*
X105160000Y-116340000D01*
G75*
G02*
X105300000Y-116480000I0J-140000D01*
G01*
G37*
G36*
G01*
X106260000Y-116480000D02*
X106260000Y-116820000D01*
G75*
G02*
X106120000Y-116960000I-140000J0D01*
G01*
X105840000Y-116960000D01*
G75*
G02*
X105700000Y-116820000I0J140000D01*
G01*
X105700000Y-116480000D01*
G75*
G02*
X105840000Y-116340000I140000J0D01*
G01*
X106120000Y-116340000D01*
G75*
G02*
X106260000Y-116480000I0J-140000D01*
G01*
G37*
%TD*%
%TO.C,C38*%
G36*
G01*
X95650000Y-114680000D02*
X95650000Y-115020000D01*
G75*
G02*
X95510000Y-115160000I-140000J0D01*
G01*
X95230000Y-115160000D01*
G75*
G02*
X95090000Y-115020000I0J140000D01*
G01*
X95090000Y-114680000D01*
G75*
G02*
X95230000Y-114540000I140000J0D01*
G01*
X95510000Y-114540000D01*
G75*
G02*
X95650000Y-114680000I0J-140000D01*
G01*
G37*
G36*
G01*
X96610000Y-114680000D02*
X96610000Y-115020000D01*
G75*
G02*
X96470000Y-115160000I-140000J0D01*
G01*
X96190000Y-115160000D01*
G75*
G02*
X96050000Y-115020000I0J140000D01*
G01*
X96050000Y-114680000D01*
G75*
G02*
X96190000Y-114540000I140000J0D01*
G01*
X96470000Y-114540000D01*
G75*
G02*
X96610000Y-114680000I0J-140000D01*
G01*
G37*
%TD*%
%TO.C,C37*%
G36*
G01*
X102080000Y-109490000D02*
X102080000Y-109830000D01*
G75*
G02*
X101940000Y-109970000I-140000J0D01*
G01*
X101660000Y-109970000D01*
G75*
G02*
X101520000Y-109830000I0J140000D01*
G01*
X101520000Y-109490000D01*
G75*
G02*
X101660000Y-109350000I140000J0D01*
G01*
X101940000Y-109350000D01*
G75*
G02*
X102080000Y-109490000I0J-140000D01*
G01*
G37*
G36*
G01*
X103040000Y-109490000D02*
X103040000Y-109830000D01*
G75*
G02*
X102900000Y-109970000I-140000J0D01*
G01*
X102620000Y-109970000D01*
G75*
G02*
X102480000Y-109830000I0J140000D01*
G01*
X102480000Y-109490000D01*
G75*
G02*
X102620000Y-109350000I140000J0D01*
G01*
X102900000Y-109350000D01*
G75*
G02*
X103040000Y-109490000I0J-140000D01*
G01*
G37*
%TD*%
%TO.C,C35*%
G36*
G01*
X93130000Y-103500000D02*
X93470000Y-103500000D01*
G75*
G02*
X93610000Y-103640000I0J-140000D01*
G01*
X93610000Y-103920000D01*
G75*
G02*
X93470000Y-104060000I-140000J0D01*
G01*
X93130000Y-104060000D01*
G75*
G02*
X92990000Y-103920000I0J140000D01*
G01*
X92990000Y-103640000D01*
G75*
G02*
X93130000Y-103500000I140000J0D01*
G01*
G37*
G36*
G01*
X93130000Y-102540000D02*
X93470000Y-102540000D01*
G75*
G02*
X93610000Y-102680000I0J-140000D01*
G01*
X93610000Y-102960000D01*
G75*
G02*
X93470000Y-103100000I-140000J0D01*
G01*
X93130000Y-103100000D01*
G75*
G02*
X92990000Y-102960000I0J140000D01*
G01*
X92990000Y-102680000D01*
G75*
G02*
X93130000Y-102540000I140000J0D01*
G01*
G37*
%TD*%
%TO.C,C33*%
G36*
G01*
X103970000Y-115250000D02*
X103630000Y-115250000D01*
G75*
G02*
X103490000Y-115110000I0J140000D01*
G01*
X103490000Y-114830000D01*
G75*
G02*
X103630000Y-114690000I140000J0D01*
G01*
X103970000Y-114690000D01*
G75*
G02*
X104110000Y-114830000I0J-140000D01*
G01*
X104110000Y-115110000D01*
G75*
G02*
X103970000Y-115250000I-140000J0D01*
G01*
G37*
G36*
G01*
X103970000Y-116210000D02*
X103630000Y-116210000D01*
G75*
G02*
X103490000Y-116070000I0J140000D01*
G01*
X103490000Y-115790000D01*
G75*
G02*
X103630000Y-115650000I140000J0D01*
G01*
X103970000Y-115650000D01*
G75*
G02*
X104110000Y-115790000I0J-140000D01*
G01*
X104110000Y-116070000D01*
G75*
G02*
X103970000Y-116210000I-140000J0D01*
G01*
G37*
%TD*%
%TO.C,C32*%
G36*
G01*
X104030000Y-104400000D02*
X104370000Y-104400000D01*
G75*
G02*
X104510000Y-104540000I0J-140000D01*
G01*
X104510000Y-104820000D01*
G75*
G02*
X104370000Y-104960000I-140000J0D01*
G01*
X104030000Y-104960000D01*
G75*
G02*
X103890000Y-104820000I0J140000D01*
G01*
X103890000Y-104540000D01*
G75*
G02*
X104030000Y-104400000I140000J0D01*
G01*
G37*
G36*
G01*
X104030000Y-103440000D02*
X104370000Y-103440000D01*
G75*
G02*
X104510000Y-103580000I0J-140000D01*
G01*
X104510000Y-103860000D01*
G75*
G02*
X104370000Y-104000000I-140000J0D01*
G01*
X104030000Y-104000000D01*
G75*
G02*
X103890000Y-103860000I0J140000D01*
G01*
X103890000Y-103580000D01*
G75*
G02*
X104030000Y-103440000I140000J0D01*
G01*
G37*
%TD*%
%TO.C,C31*%
G36*
G01*
X109120000Y-116450000D02*
X108780000Y-116450000D01*
G75*
G02*
X108640000Y-116310000I0J140000D01*
G01*
X108640000Y-116030000D01*
G75*
G02*
X108780000Y-115890000I140000J0D01*
G01*
X109120000Y-115890000D01*
G75*
G02*
X109260000Y-116030000I0J-140000D01*
G01*
X109260000Y-116310000D01*
G75*
G02*
X109120000Y-116450000I-140000J0D01*
G01*
G37*
G36*
G01*
X109120000Y-117410000D02*
X108780000Y-117410000D01*
G75*
G02*
X108640000Y-117270000I0J140000D01*
G01*
X108640000Y-116990000D01*
G75*
G02*
X108780000Y-116850000I140000J0D01*
G01*
X109120000Y-116850000D01*
G75*
G02*
X109260000Y-116990000I0J-140000D01*
G01*
X109260000Y-117270000D01*
G75*
G02*
X109120000Y-117410000I-140000J0D01*
G01*
G37*
%TD*%
%TO.C,C29*%
G36*
G01*
X101290000Y-111690000D02*
X101290000Y-111350000D01*
G75*
G02*
X101430000Y-111210000I140000J0D01*
G01*
X101710000Y-111210000D01*
G75*
G02*
X101850000Y-111350000I0J-140000D01*
G01*
X101850000Y-111690000D01*
G75*
G02*
X101710000Y-111830000I-140000J0D01*
G01*
X101430000Y-111830000D01*
G75*
G02*
X101290000Y-111690000I0J140000D01*
G01*
G37*
G36*
G01*
X100330000Y-111690000D02*
X100330000Y-111350000D01*
G75*
G02*
X100470000Y-111210000I140000J0D01*
G01*
X100750000Y-111210000D01*
G75*
G02*
X100890000Y-111350000I0J-140000D01*
G01*
X100890000Y-111690000D01*
G75*
G02*
X100750000Y-111830000I-140000J0D01*
G01*
X100470000Y-111830000D01*
G75*
G02*
X100330000Y-111690000I0J140000D01*
G01*
G37*
%TD*%
%TO.C,C28*%
G36*
G01*
X108300000Y-102030000D02*
X108300000Y-102370000D01*
G75*
G02*
X108160000Y-102510000I-140000J0D01*
G01*
X107880000Y-102510000D01*
G75*
G02*
X107740000Y-102370000I0J140000D01*
G01*
X107740000Y-102030000D01*
G75*
G02*
X107880000Y-101890000I140000J0D01*
G01*
X108160000Y-101890000D01*
G75*
G02*
X108300000Y-102030000I0J-140000D01*
G01*
G37*
G36*
G01*
X109260000Y-102030000D02*
X109260000Y-102370000D01*
G75*
G02*
X109120000Y-102510000I-140000J0D01*
G01*
X108840000Y-102510000D01*
G75*
G02*
X108700000Y-102370000I0J140000D01*
G01*
X108700000Y-102030000D01*
G75*
G02*
X108840000Y-101890000I140000J0D01*
G01*
X109120000Y-101890000D01*
G75*
G02*
X109260000Y-102030000I0J-140000D01*
G01*
G37*
%TD*%
%TO.C,C27*%
G36*
G01*
X98730000Y-113500000D02*
X99070000Y-113500000D01*
G75*
G02*
X99210000Y-113640000I0J-140000D01*
G01*
X99210000Y-113920000D01*
G75*
G02*
X99070000Y-114060000I-140000J0D01*
G01*
X98730000Y-114060000D01*
G75*
G02*
X98590000Y-113920000I0J140000D01*
G01*
X98590000Y-113640000D01*
G75*
G02*
X98730000Y-113500000I140000J0D01*
G01*
G37*
G36*
G01*
X98730000Y-112540000D02*
X99070000Y-112540000D01*
G75*
G02*
X99210000Y-112680000I0J-140000D01*
G01*
X99210000Y-112960000D01*
G75*
G02*
X99070000Y-113100000I-140000J0D01*
G01*
X98730000Y-113100000D01*
G75*
G02*
X98590000Y-112960000I0J140000D01*
G01*
X98590000Y-112680000D01*
G75*
G02*
X98730000Y-112540000I140000J0D01*
G01*
G37*
%TD*%
%TO.C,C25*%
G36*
G01*
X99100000Y-109830000D02*
X99100000Y-109490000D01*
G75*
G02*
X99240000Y-109350000I140000J0D01*
G01*
X99520000Y-109350000D01*
G75*
G02*
X99660000Y-109490000I0J-140000D01*
G01*
X99660000Y-109830000D01*
G75*
G02*
X99520000Y-109970000I-140000J0D01*
G01*
X99240000Y-109970000D01*
G75*
G02*
X99100000Y-109830000I0J140000D01*
G01*
G37*
G36*
G01*
X98140000Y-109830000D02*
X98140000Y-109490000D01*
G75*
G02*
X98280000Y-109350000I140000J0D01*
G01*
X98560000Y-109350000D01*
G75*
G02*
X98700000Y-109490000I0J-140000D01*
G01*
X98700000Y-109830000D01*
G75*
G02*
X98560000Y-109970000I-140000J0D01*
G01*
X98280000Y-109970000D01*
G75*
G02*
X98140000Y-109830000I0J140000D01*
G01*
G37*
%TD*%
%TO.C,C24*%
G36*
G01*
X105600000Y-106570000D02*
X105600000Y-106230000D01*
G75*
G02*
X105740000Y-106090000I140000J0D01*
G01*
X106020000Y-106090000D01*
G75*
G02*
X106160000Y-106230000I0J-140000D01*
G01*
X106160000Y-106570000D01*
G75*
G02*
X106020000Y-106710000I-140000J0D01*
G01*
X105740000Y-106710000D01*
G75*
G02*
X105600000Y-106570000I0J140000D01*
G01*
G37*
G36*
G01*
X104640000Y-106570000D02*
X104640000Y-106230000D01*
G75*
G02*
X104780000Y-106090000I140000J0D01*
G01*
X105060000Y-106090000D01*
G75*
G02*
X105200000Y-106230000I0J-140000D01*
G01*
X105200000Y-106570000D01*
G75*
G02*
X105060000Y-106710000I-140000J0D01*
G01*
X104780000Y-106710000D01*
G75*
G02*
X104640000Y-106570000I0J140000D01*
G01*
G37*
%TD*%
%TO.C,C22*%
G36*
G01*
X95150000Y-105980000D02*
X95150000Y-106320000D01*
G75*
G02*
X95010000Y-106460000I-140000J0D01*
G01*
X94730000Y-106460000D01*
G75*
G02*
X94590000Y-106320000I0J140000D01*
G01*
X94590000Y-105980000D01*
G75*
G02*
X94730000Y-105840000I140000J0D01*
G01*
X95010000Y-105840000D01*
G75*
G02*
X95150000Y-105980000I0J-140000D01*
G01*
G37*
G36*
G01*
X96110000Y-105980000D02*
X96110000Y-106320000D01*
G75*
G02*
X95970000Y-106460000I-140000J0D01*
G01*
X95690000Y-106460000D01*
G75*
G02*
X95550000Y-106320000I0J140000D01*
G01*
X95550000Y-105980000D01*
G75*
G02*
X95690000Y-105840000I140000J0D01*
G01*
X95970000Y-105840000D01*
G75*
G02*
X96110000Y-105980000I0J-140000D01*
G01*
G37*
%TD*%
%TO.C,C18*%
G36*
G01*
X121470000Y-108000000D02*
X121130000Y-108000000D01*
G75*
G02*
X120990000Y-107860000I0J140000D01*
G01*
X120990000Y-107580000D01*
G75*
G02*
X121130000Y-107440000I140000J0D01*
G01*
X121470000Y-107440000D01*
G75*
G02*
X121610000Y-107580000I0J-140000D01*
G01*
X121610000Y-107860000D01*
G75*
G02*
X121470000Y-108000000I-140000J0D01*
G01*
G37*
G36*
G01*
X121470000Y-108960000D02*
X121130000Y-108960000D01*
G75*
G02*
X120990000Y-108820000I0J140000D01*
G01*
X120990000Y-108540000D01*
G75*
G02*
X121130000Y-108400000I140000J0D01*
G01*
X121470000Y-108400000D01*
G75*
G02*
X121610000Y-108540000I0J-140000D01*
G01*
X121610000Y-108820000D01*
G75*
G02*
X121470000Y-108960000I-140000J0D01*
G01*
G37*
%TD*%
%TO.C,C17*%
G36*
G01*
X135012500Y-97975001D02*
X135012500Y-97424999D01*
G75*
G02*
X135262499Y-97175000I249999J0D01*
G01*
X135887501Y-97175000D01*
G75*
G02*
X136137500Y-97424999I0J-249999D01*
G01*
X136137500Y-97975001D01*
G75*
G02*
X135887501Y-98225000I-249999J0D01*
G01*
X135262499Y-98225000D01*
G75*
G02*
X135012500Y-97975001I0J249999D01*
G01*
G37*
G36*
G01*
X133237500Y-97975001D02*
X133237500Y-97424999D01*
G75*
G02*
X133487499Y-97175000I249999J0D01*
G01*
X134112501Y-97175000D01*
G75*
G02*
X134362500Y-97424999I0J-249999D01*
G01*
X134362500Y-97975001D01*
G75*
G02*
X134112501Y-98225000I-249999J0D01*
G01*
X133487499Y-98225000D01*
G75*
G02*
X133237500Y-97975001I0J249999D01*
G01*
G37*
%TD*%
%TO.C,C16*%
G36*
G01*
X97700000Y-105870000D02*
X97700000Y-105530000D01*
G75*
G02*
X97840000Y-105390000I140000J0D01*
G01*
X98120000Y-105390000D01*
G75*
G02*
X98260000Y-105530000I0J-140000D01*
G01*
X98260000Y-105870000D01*
G75*
G02*
X98120000Y-106010000I-140000J0D01*
G01*
X97840000Y-106010000D01*
G75*
G02*
X97700000Y-105870000I0J140000D01*
G01*
G37*
G36*
G01*
X96740000Y-105870000D02*
X96740000Y-105530000D01*
G75*
G02*
X96880000Y-105390000I140000J0D01*
G01*
X97160000Y-105390000D01*
G75*
G02*
X97300000Y-105530000I0J-140000D01*
G01*
X97300000Y-105870000D01*
G75*
G02*
X97160000Y-106010000I-140000J0D01*
G01*
X96880000Y-106010000D01*
G75*
G02*
X96740000Y-105870000I0J140000D01*
G01*
G37*
%TD*%
%TO.C,C15*%
G36*
G01*
X124850000Y-106725000D02*
X125350000Y-106725000D01*
G75*
G02*
X125575000Y-106950000I0J-225000D01*
G01*
X125575000Y-107400000D01*
G75*
G02*
X125350000Y-107625000I-225000J0D01*
G01*
X124850000Y-107625000D01*
G75*
G02*
X124625000Y-107400000I0J225000D01*
G01*
X124625000Y-106950000D01*
G75*
G02*
X124850000Y-106725000I225000J0D01*
G01*
G37*
G36*
G01*
X124850000Y-105175000D02*
X125350000Y-105175000D01*
G75*
G02*
X125575000Y-105400000I0J-225000D01*
G01*
X125575000Y-105850000D01*
G75*
G02*
X125350000Y-106075000I-225000J0D01*
G01*
X124850000Y-106075000D01*
G75*
G02*
X124625000Y-105850000I0J225000D01*
G01*
X124625000Y-105400000D01*
G75*
G02*
X124850000Y-105175000I225000J0D01*
G01*
G37*
%TD*%
%TO.C,C14*%
G36*
G01*
X124550000Y-122425000D02*
X125050000Y-122425000D01*
G75*
G02*
X125275000Y-122650000I0J-225000D01*
G01*
X125275000Y-123100000D01*
G75*
G02*
X125050000Y-123325000I-225000J0D01*
G01*
X124550000Y-123325000D01*
G75*
G02*
X124325000Y-123100000I0J225000D01*
G01*
X124325000Y-122650000D01*
G75*
G02*
X124550000Y-122425000I225000J0D01*
G01*
G37*
G36*
G01*
X124550000Y-120875000D02*
X125050000Y-120875000D01*
G75*
G02*
X125275000Y-121100000I0J-225000D01*
G01*
X125275000Y-121550000D01*
G75*
G02*
X125050000Y-121775000I-225000J0D01*
G01*
X124550000Y-121775000D01*
G75*
G02*
X124325000Y-121550000I0J225000D01*
G01*
X124325000Y-121100000D01*
G75*
G02*
X124550000Y-120875000I225000J0D01*
G01*
G37*
%TD*%
%TO.C,C13*%
G36*
G01*
X135100000Y-99570000D02*
X135100000Y-99230000D01*
G75*
G02*
X135240000Y-99090000I140000J0D01*
G01*
X135520000Y-99090000D01*
G75*
G02*
X135660000Y-99230000I0J-140000D01*
G01*
X135660000Y-99570000D01*
G75*
G02*
X135520000Y-99710000I-140000J0D01*
G01*
X135240000Y-99710000D01*
G75*
G02*
X135100000Y-99570000I0J140000D01*
G01*
G37*
G36*
G01*
X134140000Y-99570000D02*
X134140000Y-99230000D01*
G75*
G02*
X134280000Y-99090000I140000J0D01*
G01*
X134560000Y-99090000D01*
G75*
G02*
X134700000Y-99230000I0J-140000D01*
G01*
X134700000Y-99570000D01*
G75*
G02*
X134560000Y-99710000I-140000J0D01*
G01*
X134280000Y-99710000D01*
G75*
G02*
X134140000Y-99570000I0J140000D01*
G01*
G37*
%TD*%
%TO.C,C12*%
G36*
G01*
X97650000Y-116820000D02*
X97650000Y-116480000D01*
G75*
G02*
X97790000Y-116340000I140000J0D01*
G01*
X98070000Y-116340000D01*
G75*
G02*
X98210000Y-116480000I0J-140000D01*
G01*
X98210000Y-116820000D01*
G75*
G02*
X98070000Y-116960000I-140000J0D01*
G01*
X97790000Y-116960000D01*
G75*
G02*
X97650000Y-116820000I0J140000D01*
G01*
G37*
G36*
G01*
X96690000Y-116820000D02*
X96690000Y-116480000D01*
G75*
G02*
X96830000Y-116340000I140000J0D01*
G01*
X97110000Y-116340000D01*
G75*
G02*
X97250000Y-116480000I0J-140000D01*
G01*
X97250000Y-116820000D01*
G75*
G02*
X97110000Y-116960000I-140000J0D01*
G01*
X96830000Y-116960000D01*
G75*
G02*
X96690000Y-116820000I0J140000D01*
G01*
G37*
%TD*%
%TO.C,C11*%
G36*
G01*
X116080000Y-112720000D02*
X116080000Y-112380000D01*
G75*
G02*
X116220000Y-112240000I140000J0D01*
G01*
X116500000Y-112240000D01*
G75*
G02*
X116640000Y-112380000I0J-140000D01*
G01*
X116640000Y-112720000D01*
G75*
G02*
X116500000Y-112860000I-140000J0D01*
G01*
X116220000Y-112860000D01*
G75*
G02*
X116080000Y-112720000I0J140000D01*
G01*
G37*
G36*
G01*
X115120000Y-112720000D02*
X115120000Y-112380000D01*
G75*
G02*
X115260000Y-112240000I140000J0D01*
G01*
X115540000Y-112240000D01*
G75*
G02*
X115680000Y-112380000I0J-140000D01*
G01*
X115680000Y-112720000D01*
G75*
G02*
X115540000Y-112860000I-140000J0D01*
G01*
X115260000Y-112860000D01*
G75*
G02*
X115120000Y-112720000I0J140000D01*
G01*
G37*
%TD*%
%TO.C,C10*%
G36*
G01*
X130500000Y-99230000D02*
X130500000Y-99570000D01*
G75*
G02*
X130360000Y-99710000I-140000J0D01*
G01*
X130080000Y-99710000D01*
G75*
G02*
X129940000Y-99570000I0J140000D01*
G01*
X129940000Y-99230000D01*
G75*
G02*
X130080000Y-99090000I140000J0D01*
G01*
X130360000Y-99090000D01*
G75*
G02*
X130500000Y-99230000I0J-140000D01*
G01*
G37*
G36*
G01*
X131460000Y-99230000D02*
X131460000Y-99570000D01*
G75*
G02*
X131320000Y-99710000I-140000J0D01*
G01*
X131040000Y-99710000D01*
G75*
G02*
X130900000Y-99570000I0J140000D01*
G01*
X130900000Y-99230000D01*
G75*
G02*
X131040000Y-99090000I140000J0D01*
G01*
X131320000Y-99090000D01*
G75*
G02*
X131460000Y-99230000I0J-140000D01*
G01*
G37*
%TD*%
%TO.C,C9*%
G36*
G01*
X108550000Y-108270000D02*
X108550000Y-107930000D01*
G75*
G02*
X108690000Y-107790000I140000J0D01*
G01*
X108970000Y-107790000D01*
G75*
G02*
X109110000Y-107930000I0J-140000D01*
G01*
X109110000Y-108270000D01*
G75*
G02*
X108970000Y-108410000I-140000J0D01*
G01*
X108690000Y-108410000D01*
G75*
G02*
X108550000Y-108270000I0J140000D01*
G01*
G37*
G36*
G01*
X107590000Y-108270000D02*
X107590000Y-107930000D01*
G75*
G02*
X107730000Y-107790000I140000J0D01*
G01*
X108010000Y-107790000D01*
G75*
G02*
X108150000Y-107930000I0J-140000D01*
G01*
X108150000Y-108270000D01*
G75*
G02*
X108010000Y-108410000I-140000J0D01*
G01*
X107730000Y-108410000D01*
G75*
G02*
X107590000Y-108270000I0J140000D01*
G01*
G37*
%TD*%
%TO.C,C8*%
G36*
G01*
X125350000Y-101475000D02*
X124850000Y-101475000D01*
G75*
G02*
X124625000Y-101250000I0J225000D01*
G01*
X124625000Y-100800000D01*
G75*
G02*
X124850000Y-100575000I225000J0D01*
G01*
X125350000Y-100575000D01*
G75*
G02*
X125575000Y-100800000I0J-225000D01*
G01*
X125575000Y-101250000D01*
G75*
G02*
X125350000Y-101475000I-225000J0D01*
G01*
G37*
G36*
G01*
X125350000Y-103025000D02*
X124850000Y-103025000D01*
G75*
G02*
X124625000Y-102800000I0J225000D01*
G01*
X124625000Y-102350000D01*
G75*
G02*
X124850000Y-102125000I225000J0D01*
G01*
X125350000Y-102125000D01*
G75*
G02*
X125575000Y-102350000I0J-225000D01*
G01*
X125575000Y-102800000D01*
G75*
G02*
X125350000Y-103025000I-225000J0D01*
G01*
G37*
%TD*%
%TO.C,C7*%
G36*
G01*
X125050000Y-117175000D02*
X124550000Y-117175000D01*
G75*
G02*
X124325000Y-116950000I0J225000D01*
G01*
X124325000Y-116500000D01*
G75*
G02*
X124550000Y-116275000I225000J0D01*
G01*
X125050000Y-116275000D01*
G75*
G02*
X125275000Y-116500000I0J-225000D01*
G01*
X125275000Y-116950000D01*
G75*
G02*
X125050000Y-117175000I-225000J0D01*
G01*
G37*
G36*
G01*
X125050000Y-118725000D02*
X124550000Y-118725000D01*
G75*
G02*
X124325000Y-118500000I0J225000D01*
G01*
X124325000Y-118050000D01*
G75*
G02*
X124550000Y-117825000I225000J0D01*
G01*
X125050000Y-117825000D01*
G75*
G02*
X125275000Y-118050000I0J-225000D01*
G01*
X125275000Y-118500000D01*
G75*
G02*
X125050000Y-118725000I-225000J0D01*
G01*
G37*
%TD*%
%TO.C,C6*%
G36*
G01*
X96350000Y-109870000D02*
X96350000Y-109530000D01*
G75*
G02*
X96490000Y-109390000I140000J0D01*
G01*
X96770000Y-109390000D01*
G75*
G02*
X96910000Y-109530000I0J-140000D01*
G01*
X96910000Y-109870000D01*
G75*
G02*
X96770000Y-110010000I-140000J0D01*
G01*
X96490000Y-110010000D01*
G75*
G02*
X96350000Y-109870000I0J140000D01*
G01*
G37*
G36*
G01*
X95390000Y-109870000D02*
X95390000Y-109530000D01*
G75*
G02*
X95530000Y-109390000I140000J0D01*
G01*
X95810000Y-109390000D01*
G75*
G02*
X95950000Y-109530000I0J-140000D01*
G01*
X95950000Y-109870000D01*
G75*
G02*
X95810000Y-110010000I-140000J0D01*
G01*
X95530000Y-110010000D01*
G75*
G02*
X95390000Y-109870000I0J140000D01*
G01*
G37*
%TD*%
%TO.C,C5*%
G36*
G01*
X129575000Y-97424999D02*
X129575000Y-97975001D01*
G75*
G02*
X129325001Y-98225000I-249999J0D01*
G01*
X128699999Y-98225000D01*
G75*
G02*
X128450000Y-97975001I0J249999D01*
G01*
X128450000Y-97424999D01*
G75*
G02*
X128699999Y-97175000I249999J0D01*
G01*
X129325001Y-97175000D01*
G75*
G02*
X129575000Y-97424999I0J-249999D01*
G01*
G37*
G36*
G01*
X131350000Y-97424999D02*
X131350000Y-97975001D01*
G75*
G02*
X131100001Y-98225000I-249999J0D01*
G01*
X130474999Y-98225000D01*
G75*
G02*
X130225000Y-97975001I0J249999D01*
G01*
X130225000Y-97424999D01*
G75*
G02*
X130474999Y-97175000I249999J0D01*
G01*
X131100001Y-97175000D01*
G75*
G02*
X131350000Y-97424999I0J-249999D01*
G01*
G37*
%TD*%
%TO.C,C4*%
G36*
G01*
X116280000Y-105870000D02*
X116280000Y-105530000D01*
G75*
G02*
X116420000Y-105390000I140000J0D01*
G01*
X116700000Y-105390000D01*
G75*
G02*
X116840000Y-105530000I0J-140000D01*
G01*
X116840000Y-105870000D01*
G75*
G02*
X116700000Y-106010000I-140000J0D01*
G01*
X116420000Y-106010000D01*
G75*
G02*
X116280000Y-105870000I0J140000D01*
G01*
G37*
G36*
G01*
X115320000Y-105870000D02*
X115320000Y-105530000D01*
G75*
G02*
X115460000Y-105390000I140000J0D01*
G01*
X115740000Y-105390000D01*
G75*
G02*
X115880000Y-105530000I0J-140000D01*
G01*
X115880000Y-105870000D01*
G75*
G02*
X115740000Y-106010000I-140000J0D01*
G01*
X115460000Y-106010000D01*
G75*
G02*
X115320000Y-105870000I0J140000D01*
G01*
G37*
%TD*%
%TO.C,C3*%
G36*
G01*
X120900000Y-106020000D02*
X120900000Y-105680000D01*
G75*
G02*
X121040000Y-105540000I140000J0D01*
G01*
X121320000Y-105540000D01*
G75*
G02*
X121460000Y-105680000I0J-140000D01*
G01*
X121460000Y-106020000D01*
G75*
G02*
X121320000Y-106160000I-140000J0D01*
G01*
X121040000Y-106160000D01*
G75*
G02*
X120900000Y-106020000I0J140000D01*
G01*
G37*
G36*
G01*
X119940000Y-106020000D02*
X119940000Y-105680000D01*
G75*
G02*
X120080000Y-105540000I140000J0D01*
G01*
X120360000Y-105540000D01*
G75*
G02*
X120500000Y-105680000I0J-140000D01*
G01*
X120500000Y-106020000D01*
G75*
G02*
X120360000Y-106160000I-140000J0D01*
G01*
X120080000Y-106160000D01*
G75*
G02*
X119940000Y-106020000I0J140000D01*
G01*
G37*
%TD*%
%TO.C,C2*%
G36*
G01*
X122970000Y-113200000D02*
X122630000Y-113200000D01*
G75*
G02*
X122490000Y-113060000I0J140000D01*
G01*
X122490000Y-112780000D01*
G75*
G02*
X122630000Y-112640000I140000J0D01*
G01*
X122970000Y-112640000D01*
G75*
G02*
X123110000Y-112780000I0J-140000D01*
G01*
X123110000Y-113060000D01*
G75*
G02*
X122970000Y-113200000I-140000J0D01*
G01*
G37*
G36*
G01*
X122970000Y-114160000D02*
X122630000Y-114160000D01*
G75*
G02*
X122490000Y-114020000I0J140000D01*
G01*
X122490000Y-113740000D01*
G75*
G02*
X122630000Y-113600000I140000J0D01*
G01*
X122970000Y-113600000D01*
G75*
G02*
X123110000Y-113740000I0J-140000D01*
G01*
X123110000Y-114020000D01*
G75*
G02*
X122970000Y-114160000I-140000J0D01*
G01*
G37*
%TD*%
M02*
