G04 EAGLE Gerber RS-274X export*
G75*
%MOMM*%
%FSLAX34Y34*%
%LPD*%
%INSoldermask Bottom*%
%IPPOS*%
%AMOC8*
5,1,8,0,0,1.08239X$1,22.5*%
G01*
%ADD10C,1.803200*%
%ADD11C,2.003200*%
%ADD12C,2.082800*%
%ADD13C,1.625600*%
%ADD14C,0.965200*%


D10*
X87000Y585300D03*
D11*
X87000Y630300D03*
D12*
X828500Y245700D03*
X803100Y245700D03*
X828500Y271100D03*
X803100Y271100D03*
X828500Y296500D03*
X803100Y296500D03*
X828500Y321900D03*
X803100Y321900D03*
X828500Y347300D03*
X803100Y347300D03*
X707200Y85900D03*
X707200Y111300D03*
X732600Y85900D03*
X732600Y111300D03*
X758000Y85900D03*
X758000Y111300D03*
X783400Y85900D03*
X783400Y111300D03*
X808800Y85900D03*
X808800Y111300D03*
D13*
X532900Y75312D02*
X532900Y61088D01*
X558300Y61088D02*
X558300Y75312D01*
X583700Y75312D02*
X583700Y61088D01*
X609100Y61088D02*
X609100Y75312D01*
D14*
X281000Y594500D03*
X407000Y392000D03*
X440000Y355500D03*
X519470Y268530D03*
X462000Y340500D03*
X547500Y120000D03*
X530000Y405500D03*
X648500Y393858D03*
X814850Y282850D03*
X271500Y406000D03*
X380000Y150000D03*
X370000Y170000D03*
X450000Y180000D03*
X500000Y170000D03*
X588500Y160500D03*
X758000Y405358D03*
X609500Y396500D03*
X567500Y374500D03*
X532969Y442574D03*
X550000Y460000D03*
X524000Y485000D03*
X415957Y453607D03*
X379358Y449500D03*
X380000Y570000D03*
X418000Y598000D03*
X387000Y530000D03*
X452000Y546500D03*
X591500Y572500D03*
X603000Y306858D03*
X535000Y300500D03*
X382000Y372500D03*
X451000Y391000D03*
X421500Y352000D03*
X222000Y250000D03*
X90500Y234000D03*
X93500Y133500D03*
X234500Y167000D03*
X194500Y514500D03*
X278500Y512500D03*
X690500Y534000D03*
X671500Y80500D03*
X706500Y614000D03*
X772000Y620500D03*
X120000Y586500D03*
X121500Y639500D03*
X236000Y399000D03*
X188500Y399000D03*
X319000Y284500D03*
X631500Y274500D03*
X732000Y293500D03*
X349893Y410000D03*
X354000Y385500D03*
X321000Y370500D03*
X324500Y266000D03*
X393500Y224000D03*
X427500Y453607D03*
X470500Y451000D03*
X445000Y314500D03*
X361000Y327000D03*
X490500Y413000D03*
X513358Y235000D03*
X454000Y221500D03*
X464000Y293000D03*
X424442Y227000D03*
X733000Y336500D03*
X377000Y304000D03*
X481500Y379000D03*
X480500Y285500D03*
X168500Y235500D03*
X720500Y190000D03*
X678000Y168500D03*
X558500Y219000D03*
X535000Y192500D03*
X779000Y274500D03*
X597500Y262500D03*
X581500Y225500D03*
X579500Y249500D03*
X667142Y220500D03*
X672079Y246322D03*
X760500Y341500D03*
X535000Y325000D03*
X655000Y121500D03*
X689002Y251848D03*
X635849Y312849D03*
X655000Y290500D03*
X687500Y276000D03*
X140000Y365500D03*
X170000Y365500D03*
X142906Y271406D03*
X137500Y509500D03*
X516358Y358000D03*
X515500Y309000D03*
X645500Y255000D03*
X687000Y261500D03*
X685000Y375500D03*
X684500Y340000D03*
X698000Y359000D03*
X720000Y292000D03*
X415000Y149500D03*
X410000Y175500D03*
X714526Y125526D03*
X653500Y157000D03*
X571500Y96000D03*
X555500Y156500D03*
X493599Y218901D03*
X446500Y238000D03*
X259000Y181500D03*
X330500Y180500D03*
X305000Y327922D03*
X187500Y211500D03*
X389642Y236512D03*
X685000Y317000D03*
X414716Y226000D03*
X728500Y391642D03*
X685000Y304358D03*
X635500Y212500D03*
X595500Y243000D03*
X634000Y176000D03*
X535500Y282500D03*
X525000Y338500D03*
X698500Y256000D03*
X732500Y139500D03*
X499827Y435716D03*
X652000Y437500D03*
X634500Y395000D03*
X584500Y311500D03*
X576500Y391000D03*
X577000Y302000D03*
X628000Y424500D03*
X509500Y410500D03*
X399087Y485500D03*
X611000Y493000D03*
X389435Y488500D03*
X611000Y504000D03*
X133000Y400806D03*
X315500Y399500D03*
X140500Y393000D03*
X307500Y392500D03*
X132000Y386000D03*
X307500Y381000D03*
X140500Y377500D03*
X307000Y370500D03*
X219215Y368158D03*
X272736Y319952D03*
X226500Y375078D03*
X282388Y323858D03*
X237000Y375078D03*
X355000Y354500D03*
X273500Y367500D03*
X481000Y272000D03*
X373000Y210000D03*
X409000Y217500D03*
X405500Y268500D03*
X218693Y196193D03*
X406000Y279000D03*
X213000Y206284D03*
X420000Y277000D03*
X226000Y208284D03*
X435500Y274000D03*
X214000Y220000D03*
X140000Y410500D03*
X307000Y407500D03*
X285000Y418500D03*
X370000Y412500D03*
X287500Y357500D03*
X366500Y347000D03*
X760500Y361000D03*
X760500Y223500D03*
X752500Y368000D03*
X748358Y222792D03*
X741500Y367500D03*
X742500Y215000D03*
X570699Y277699D03*
X586500Y116000D03*
X579500Y283000D03*
X592500Y103000D03*
X469087Y485500D03*
X521500Y450000D03*
X360000Y305500D03*
X307500Y270000D03*
X173500Y114500D03*
X421729Y445729D03*
X484500Y232500D03*
X353500Y93000D03*
X525000Y173500D03*
X532500Y165500D03*
X277324Y427730D03*
X364500Y422000D03*
X385143Y497858D03*
X647000Y511500D03*
X50000Y495500D03*
X118500Y216000D03*
X435099Y284099D03*
X225000Y222000D03*
M02*
