M48
;GenerationSoftware,Autodesk,EAGLE,9.6.2*%
;CreationDate,2020-12-06T22:54:54Z*%
FMAT,2
ICI,OFF
METRIC,TZ,000.000
T6C0.356
T5C0.914
T4C1.016
T3C1.600
T2C1.800
%
G90
M71
T2
X8700Y63030
T3
X8700Y58530
T4
X82850Y27110
X80310Y27110
X82850Y29650
X80310Y29650
X82850Y32190
X80310Y32190
X82850Y34730
X80310Y34730
X70720Y8590
X70720Y11130
X73260Y8590
X73260Y11130
X75800Y8590
X75800Y11130
X78340Y8590
X78340Y11130
X80880Y8590
X80880Y11130
X80310Y24570
X82850Y24570
T5
X60910Y6820
X55830Y6820
X58370Y6820
X53290Y6820
T6
X38944Y48850
X61100Y50400
X13300Y40081
X31550Y39950
X14050Y39300
X30750Y39250
X13200Y38600
X30750Y38100
X14050Y37750
X30700Y37050
X21921Y36816
X27274Y31995
X22650Y37508
X28239Y32386
X23700Y37508
X35500Y35450
X27350Y36750
X48100Y27200
X37300Y21000
X68500Y31700
X40900Y21750
X73250Y13950
X38964Y23651
X41472Y22600
X72850Y39164
X68500Y30436
X63550Y21250
X59550Y24300
X63400Y17600
X53550Y28250
X52500Y33850
X69850Y25600
X61100Y49300
X49983Y43572
X65200Y43750
X63450Y39500
X58450Y31150
X57650Y39100
X57700Y30200
X62800Y42450
X50950Y41050
X39909Y48550
X52500Y17350
X57950Y28300
X59250Y10300
X46909Y48550
X52150Y45000
X36000Y30550
X30750Y27000
X17350Y11450
X42173Y44573
X48450Y23250
X35350Y9300
X58650Y11600
X53250Y16550
X27732Y42773
X36450Y42200
X38514Y49786
X64700Y51150
X5000Y49550
X11850Y21600
X43510Y28410
X22500Y22200
X37000Y41250
X21869Y19619
X40600Y27900
X21300Y20628
X42000Y27700
X22600Y20828
X43550Y27400
X21400Y22000
X14000Y41050
X30700Y40750
X28500Y41850
X40550Y26850
X28750Y35750
X36650Y34700
X76050Y36100
X76050Y22350
X75250Y36800
X74836Y22279
X74150Y36750
X74250Y21500
X57070Y27770
X70650Y61400
X60300Y30686
X53500Y30050
X38200Y37250
X45100Y39100
X42150Y35200
X22200Y25000
X9050Y23400
X9350Y13350
X23450Y16700
X19450Y51450
X27850Y51250
X69050Y53400
X67150Y8050
X59150Y57250
X77200Y62050
X12000Y58650
X12150Y63950
X23600Y39900
X18850Y39900
X31900Y28450
X63150Y27450
X73200Y29350
X34989Y41000
X35400Y38550
X32100Y37050
X32450Y26600
X39350Y22400
X58850Y16050
X40700Y39200
X44000Y35550
X51947Y26853
X46200Y34050
X54750Y12000
X53000Y40550
X64850Y39386
X81485Y28285
X27150Y40600
X38000Y15000
X37000Y17000
X45000Y18000
X50000Y17000
X42750Y45361
X75800Y40536
X60950Y39650
X56750Y37450
X53297Y44257
X55000Y46000
X52400Y48500
X41596Y45361
X37936Y44950
X38000Y57000
X41800Y59800
X38700Y53000
X45200Y54650
X69800Y35900
X63585Y31285
X65500Y29050
X68750Y27600
X14000Y36550
X17000Y36550
X14291Y27141
X13750Y50950
X51636Y35800
X51550Y30900
X64550Y25500
X68700Y26150
X68500Y37550
X68450Y34000
X68900Y25185
X72000Y29200
X41500Y14950
X41000Y17550
X71453Y12553
X65350Y15700
X57150Y9600
X55550Y15650
X49360Y21890
X44650Y23800
X25900Y18150
X33050Y18050
X30500Y32792
X18750Y21150
X72050Y19000
X47050Y45100
X44500Y31450
X36100Y32700
X49050Y41300
X51336Y23500
X45400Y22150
X46400Y29300
X42444Y22700
X73300Y33650
X37700Y30400
X48150Y37900
X48050Y28550
X16850Y23550
X28100Y59450
X67800Y16850
X55850Y21900
X53500Y19250
X77900Y27450
X59750Y26250
X58150Y22550
X57950Y24950
X66714Y22050
X67208Y24632
X76050Y34150
X53500Y32500
X65500Y12150
M30