G04 EAGLE Gerber RS-274X export*
G75*
%MOMM*%
%FSLAX34Y34*%
%LPD*%
%INSolderpaste Top*%
%IPPOS*%
%AMOC8*
5,1,8,0,0,1.08239X$1,22.5*%
G01*
%ADD10R,1.500000X1.300000*%
%ADD11R,1.300000X1.500000*%
%ADD12R,1.600000X1.800000*%
%ADD13R,2.000000X2.400000*%
%ADD14R,0.830000X0.630000*%
%ADD15R,1.400000X1.400000*%
%ADD16R,1.800000X1.600000*%
%ADD17R,1.000000X1.100000*%
%ADD18R,0.300000X0.800000*%
%ADD19R,2.000000X1.200000*%
%ADD20R,0.250000X1.250000*%
%ADD21R,1.650000X2.050000*%
%ADD22R,4.800000X3.800000*%
%ADD23R,1.200000X1.200000*%
%ADD24R,2.006600X1.803400*%
%ADD25R,1.270000X2.540000*%
%ADD26R,1.353300X0.279400*%
%ADD27R,0.279400X1.353300*%
%ADD28R,1.200000X0.550000*%
%ADD29R,1.549400X0.609600*%
%ADD30R,2.200000X0.600000*%
%ADD31R,2.150000X3.450000*%
%ADD32R,1.320800X0.508000*%

G36*
X100709Y84186D02*
X100709Y84186D01*
X100728Y84184D01*
X100830Y84206D01*
X100932Y84223D01*
X100949Y84232D01*
X100969Y84236D01*
X101058Y84289D01*
X101149Y84338D01*
X101163Y84352D01*
X101180Y84362D01*
X101247Y84441D01*
X101319Y84516D01*
X101327Y84534D01*
X101340Y84549D01*
X101379Y84645D01*
X101422Y84739D01*
X101424Y84759D01*
X101432Y84777D01*
X101450Y84944D01*
X101450Y117456D01*
X101447Y117476D01*
X101449Y117495D01*
X101427Y117597D01*
X101411Y117699D01*
X101401Y117716D01*
X101397Y117736D01*
X101344Y117825D01*
X101295Y117916D01*
X101281Y117930D01*
X101271Y117947D01*
X101192Y118014D01*
X101117Y118086D01*
X101099Y118094D01*
X101084Y118107D01*
X100988Y118146D01*
X100894Y118189D01*
X100874Y118191D01*
X100856Y118199D01*
X100689Y118217D01*
X85195Y118217D01*
X85175Y118214D01*
X85156Y118216D01*
X85054Y118194D01*
X84952Y118178D01*
X84935Y118168D01*
X84915Y118164D01*
X84826Y118111D01*
X84735Y118062D01*
X84721Y118048D01*
X84704Y118038D01*
X84637Y117959D01*
X84566Y117884D01*
X84557Y117866D01*
X84544Y117851D01*
X84505Y117755D01*
X84462Y117661D01*
X84460Y117641D01*
X84452Y117623D01*
X84434Y117456D01*
X84434Y84944D01*
X84437Y84924D01*
X84435Y84905D01*
X84457Y84803D01*
X84474Y84701D01*
X84483Y84684D01*
X84487Y84664D01*
X84540Y84575D01*
X84589Y84484D01*
X84603Y84470D01*
X84613Y84453D01*
X84692Y84386D01*
X84767Y84315D01*
X84785Y84306D01*
X84800Y84293D01*
X84896Y84254D01*
X84990Y84211D01*
X85010Y84209D01*
X85028Y84201D01*
X85195Y84183D01*
X100689Y84183D01*
X100709Y84186D01*
G37*
D10*
X252000Y361300D03*
X252000Y380300D03*
D11*
X190300Y149000D03*
X209300Y149000D03*
X190300Y95000D03*
X209300Y95000D03*
X286700Y277000D03*
X267700Y277000D03*
D10*
X403500Y515300D03*
X403500Y534300D03*
D11*
X462800Y54000D03*
X481800Y54000D03*
X462900Y32700D03*
X481900Y32700D03*
D10*
X451100Y514700D03*
X451100Y533700D03*
D11*
X599200Y291900D03*
X618200Y291900D03*
D10*
X390900Y203800D03*
X390900Y184800D03*
D11*
X600200Y382400D03*
X619200Y382400D03*
D10*
X283800Y645300D03*
X283800Y626300D03*
D11*
X293300Y339600D03*
X274300Y339600D03*
D10*
X495400Y206800D03*
X495400Y187800D03*
X570800Y187800D03*
X570800Y168800D03*
X531200Y514200D03*
X531200Y533200D03*
X431300Y203800D03*
X431300Y184800D03*
X361800Y553900D03*
X361800Y572900D03*
X311000Y596300D03*
X311000Y615300D03*
X48500Y369700D03*
X48500Y350700D03*
D11*
X190400Y74200D03*
X209400Y74200D03*
X190400Y128200D03*
X209400Y128200D03*
D12*
X138300Y157500D03*
X110300Y157500D03*
D11*
X125600Y249300D03*
X106600Y249300D03*
D13*
X32000Y585300D03*
X32000Y647300D03*
X142000Y647300D03*
X142000Y585300D03*
D14*
X335500Y554100D03*
X335500Y576300D03*
D15*
X344000Y529100D03*
X307000Y529100D03*
D16*
X27500Y547000D03*
X27500Y519000D03*
D17*
X419700Y99800D03*
X419700Y82800D03*
D18*
X602700Y584800D03*
X597700Y584800D03*
X592700Y584800D03*
X587700Y584800D03*
X582700Y584800D03*
X577700Y584800D03*
X572700Y584800D03*
X567700Y584800D03*
X562700Y584800D03*
X557700Y584800D03*
X552700Y584800D03*
X547700Y584800D03*
X542700Y584800D03*
X537700Y584800D03*
X532700Y584800D03*
X527700Y584800D03*
X522700Y584800D03*
X517700Y584800D03*
X512700Y584800D03*
X507700Y584800D03*
X502700Y584800D03*
X497700Y584800D03*
X492700Y584800D03*
X487700Y584800D03*
X482700Y584800D03*
X477700Y584800D03*
X472700Y584800D03*
X467700Y584800D03*
X462700Y584800D03*
X457700Y584800D03*
X452700Y584800D03*
X447700Y584800D03*
X442700Y584800D03*
X437700Y584800D03*
X432700Y584800D03*
X427700Y584800D03*
X422700Y584800D03*
X417700Y584800D03*
X412700Y584800D03*
X407700Y584800D03*
D19*
X623700Y613800D03*
X386700Y613800D03*
D20*
X798100Y417900D03*
X788100Y417900D03*
X778100Y417900D03*
X768100Y417900D03*
X758100Y417900D03*
X748100Y417900D03*
D21*
X724100Y450400D03*
X822100Y450400D03*
D22*
X211500Y546100D03*
X211500Y645100D03*
D23*
X391300Y79900D03*
X391300Y58900D03*
X365900Y80000D03*
X365900Y59000D03*
X318400Y80500D03*
X318400Y59500D03*
X340900Y80200D03*
X340900Y59200D03*
D24*
X446100Y118439D03*
X496900Y118439D03*
X446100Y78561D03*
X496900Y78561D03*
D10*
X335200Y615100D03*
X335200Y596100D03*
D11*
X701200Y375800D03*
X720200Y375800D03*
X649400Y420700D03*
X668400Y420700D03*
X650400Y377200D03*
X669400Y377200D03*
X650400Y340200D03*
X669400Y340200D03*
X721600Y274800D03*
X702600Y274800D03*
X653400Y274700D03*
X672400Y274700D03*
X650900Y315200D03*
X669900Y315200D03*
D10*
X339700Y137100D03*
X339700Y118100D03*
X365600Y137100D03*
X365600Y118100D03*
X391600Y137600D03*
X391600Y118600D03*
X315600Y136600D03*
X315600Y117600D03*
X526400Y98900D03*
X526400Y117900D03*
D11*
X655100Y235400D03*
X636100Y235400D03*
D10*
X635100Y110600D03*
X635100Y91600D03*
D11*
X700900Y311700D03*
X719900Y311700D03*
X718600Y340300D03*
X699600Y340300D03*
D25*
X67800Y518200D03*
X93200Y518200D03*
X118600Y518200D03*
D26*
X550715Y272000D03*
X550715Y277000D03*
X550715Y282000D03*
X550715Y287000D03*
X550715Y292000D03*
X550715Y297000D03*
X550715Y302000D03*
X550715Y307000D03*
X550715Y312000D03*
X550715Y317000D03*
X550715Y322000D03*
X550715Y327000D03*
X550715Y332000D03*
X550715Y337000D03*
X550715Y342000D03*
X550715Y347000D03*
X550715Y352000D03*
X550715Y357000D03*
X550715Y362000D03*
X550715Y367000D03*
X550715Y372000D03*
X550715Y377000D03*
X550715Y382000D03*
X550715Y387000D03*
X550715Y392000D03*
X550715Y397000D03*
X550715Y402000D03*
X550715Y407000D03*
X550715Y412000D03*
X550715Y417000D03*
X550715Y422000D03*
X550715Y427000D03*
X550715Y432000D03*
X550715Y437000D03*
X550715Y442000D03*
X550715Y447000D03*
D27*
X531500Y466215D03*
X526500Y466215D03*
X521500Y466215D03*
X516500Y466215D03*
X511500Y466215D03*
X506500Y466215D03*
X501500Y466215D03*
X496500Y466215D03*
X491500Y466215D03*
X486500Y466215D03*
X481500Y466215D03*
X476500Y466215D03*
X471500Y466215D03*
X466500Y466215D03*
X461500Y466215D03*
X456500Y466215D03*
X451500Y466215D03*
X446500Y466215D03*
X441500Y466215D03*
X436500Y466215D03*
X431500Y466215D03*
X426500Y466215D03*
X421500Y466215D03*
X416500Y466215D03*
X411500Y466215D03*
X406500Y466215D03*
X401500Y466215D03*
X396500Y466215D03*
X391500Y466215D03*
X386500Y466215D03*
X381500Y466215D03*
X376500Y466215D03*
X371500Y466215D03*
X366500Y466215D03*
X361500Y466215D03*
X356500Y466215D03*
D26*
X337285Y447000D03*
X337285Y442000D03*
X337285Y437000D03*
X337285Y432000D03*
X337285Y427000D03*
X337285Y422000D03*
X337285Y417000D03*
X337285Y412000D03*
X337285Y407000D03*
X337285Y402000D03*
X337285Y397000D03*
X337285Y392000D03*
X337285Y387000D03*
X337285Y382000D03*
X337285Y377000D03*
X337285Y372000D03*
X337285Y367000D03*
X337285Y362000D03*
X337285Y357000D03*
X337285Y352000D03*
X337285Y347000D03*
X337285Y342000D03*
X337285Y337000D03*
X337285Y332000D03*
X337285Y327000D03*
X337285Y322000D03*
X337285Y317000D03*
X337285Y312000D03*
X337285Y307000D03*
X337285Y302000D03*
X337285Y297000D03*
X337285Y292000D03*
X337285Y287000D03*
X337285Y282000D03*
X337285Y277000D03*
X337285Y272000D03*
D27*
X356500Y252785D03*
X361500Y252785D03*
X366500Y252785D03*
X371500Y252785D03*
X376500Y252785D03*
X381500Y252785D03*
X386500Y252785D03*
X391500Y252785D03*
X396500Y252785D03*
X401500Y252785D03*
X406500Y252785D03*
X411500Y252785D03*
X416500Y252785D03*
X421500Y252785D03*
X426500Y252785D03*
X431500Y252785D03*
X436500Y252785D03*
X441500Y252785D03*
X446500Y252785D03*
X451500Y252785D03*
X456500Y252785D03*
X461500Y252785D03*
X466500Y252785D03*
X471500Y252785D03*
X476500Y252785D03*
X481500Y252785D03*
X486500Y252785D03*
X491500Y252785D03*
X496500Y252785D03*
X501500Y252785D03*
X506500Y252785D03*
X511500Y252785D03*
X516500Y252785D03*
X521500Y252785D03*
X526500Y252785D03*
X531500Y252785D03*
D28*
X312601Y552700D03*
X312601Y562200D03*
X312601Y571700D03*
X286599Y571700D03*
X286599Y552700D03*
D29*
X157458Y78213D03*
X157458Y101200D03*
X157458Y124187D03*
D30*
X151100Y185000D03*
X151100Y197700D03*
X151100Y210400D03*
X151100Y223100D03*
D31*
X90300Y204800D03*
D30*
X601300Y199050D03*
X653300Y199050D03*
X601300Y211750D03*
X601300Y186350D03*
X601300Y173650D03*
X653300Y211750D03*
X653300Y186350D03*
X653300Y173650D03*
D32*
X93231Y450844D03*
X93231Y442716D03*
X93231Y434588D03*
X93231Y426460D03*
X93231Y418332D03*
X93231Y410204D03*
X93231Y402076D03*
X93231Y393948D03*
X93231Y385820D03*
X93231Y377692D03*
X93231Y369564D03*
X93231Y361436D03*
X93231Y353308D03*
X93231Y345180D03*
X93231Y337052D03*
X93231Y328924D03*
X93231Y320796D03*
X93231Y312668D03*
X93231Y304540D03*
X93231Y296412D03*
X93231Y288284D03*
X93231Y280156D03*
X206769Y280156D03*
X206769Y288284D03*
X206769Y296412D03*
X206769Y304540D03*
X206769Y312668D03*
X206769Y320796D03*
X206769Y328924D03*
X206769Y337052D03*
X206769Y345180D03*
X206769Y353308D03*
X206769Y361436D03*
X206769Y369564D03*
X206769Y377692D03*
X206769Y385820D03*
X206769Y393948D03*
X206769Y402076D03*
X206769Y410204D03*
X206769Y418332D03*
X206769Y426460D03*
X206769Y434588D03*
X206769Y442716D03*
X206769Y450844D03*
M02*
