G04 EAGLE Gerber RS-274X export*
G75*
%MOMM*%
%FSLAX34Y34*%
%LPD*%
%INSoldermask Top*%
%IPPOS*%
%AMOC8*
5,1,8,0,0,1.08239X$1,22.5*%
G01*
%ADD10R,1.703200X1.503200*%
%ADD11R,1.503200X1.703200*%
%ADD12R,1.803200X2.003200*%
%ADD13R,2.203200X2.603200*%
%ADD14C,1.803200*%
%ADD15C,2.003200*%
%ADD16R,1.033200X0.833200*%
%ADD17R,1.603200X1.603200*%
%ADD18R,2.003200X1.803200*%
%ADD19R,1.203200X1.303200*%
%ADD20R,0.503200X1.003200*%
%ADD21R,2.400000X1.600000*%
%ADD22R,1.600000X0.800000*%
%ADD23R,0.400000X1.400000*%
%ADD24R,1.900000X2.350000*%
%ADD25C,2.082800*%
%ADD26C,1.625600*%
%ADD27R,5.003200X4.003200*%
%ADD28R,1.403200X1.403200*%
%ADD29R,2.209800X2.006600*%
%ADD30R,1.473200X2.743200*%
%ADD31C,1.473200*%
%ADD32R,1.556500X0.482600*%
%ADD33R,0.482600X1.556500*%
%ADD34R,1.403200X0.753200*%
%ADD35R,1.752600X0.812800*%
%ADD36R,2.403200X0.803200*%
%ADD37R,2.353200X3.653200*%
%ADD38R,1.524000X0.711200*%
%ADD39C,0.965200*%

G36*
X104265Y83932D02*
X104265Y83932D01*
X104284Y83930D01*
X104386Y83952D01*
X104488Y83969D01*
X104505Y83978D01*
X104525Y83982D01*
X104614Y84035D01*
X104705Y84084D01*
X104719Y84098D01*
X104736Y84108D01*
X104803Y84187D01*
X104875Y84262D01*
X104883Y84280D01*
X104896Y84295D01*
X104935Y84391D01*
X104978Y84485D01*
X104980Y84505D01*
X104988Y84523D01*
X105006Y84690D01*
X105006Y117710D01*
X105003Y117730D01*
X105005Y117749D01*
X104983Y117851D01*
X104967Y117953D01*
X104957Y117970D01*
X104953Y117990D01*
X104900Y118079D01*
X104851Y118170D01*
X104837Y118184D01*
X104827Y118201D01*
X104748Y118268D01*
X104673Y118340D01*
X104655Y118348D01*
X104640Y118361D01*
X104544Y118400D01*
X104450Y118443D01*
X104430Y118445D01*
X104412Y118453D01*
X104245Y118471D01*
X81639Y118471D01*
X81619Y118468D01*
X81600Y118470D01*
X81498Y118448D01*
X81396Y118432D01*
X81379Y118422D01*
X81359Y118418D01*
X81270Y118365D01*
X81179Y118316D01*
X81165Y118302D01*
X81148Y118292D01*
X81081Y118213D01*
X81010Y118138D01*
X81001Y118120D01*
X80988Y118105D01*
X80949Y118009D01*
X80906Y117915D01*
X80904Y117895D01*
X80896Y117877D01*
X80878Y117710D01*
X80878Y84690D01*
X80881Y84670D01*
X80879Y84651D01*
X80901Y84549D01*
X80918Y84447D01*
X80927Y84430D01*
X80931Y84410D01*
X80984Y84321D01*
X81033Y84230D01*
X81047Y84216D01*
X81057Y84199D01*
X81136Y84132D01*
X81211Y84061D01*
X81229Y84052D01*
X81244Y84039D01*
X81340Y84000D01*
X81434Y83957D01*
X81454Y83955D01*
X81472Y83947D01*
X81639Y83929D01*
X104245Y83929D01*
X104265Y83932D01*
G37*
D10*
X252000Y361300D03*
X252000Y380300D03*
D11*
X190300Y149000D03*
X209300Y149000D03*
X190300Y95000D03*
X209300Y95000D03*
X286700Y277000D03*
X267700Y277000D03*
D10*
X403500Y515300D03*
X403500Y534300D03*
D11*
X462800Y54000D03*
X481800Y54000D03*
X462900Y32700D03*
X481900Y32700D03*
D10*
X451100Y514700D03*
X451100Y533700D03*
D11*
X599200Y291900D03*
X618200Y291900D03*
D10*
X390900Y203800D03*
X390900Y184800D03*
D11*
X600200Y382400D03*
X619200Y382400D03*
D10*
X283800Y645300D03*
X283800Y626300D03*
D11*
X293300Y339600D03*
X274300Y339600D03*
D10*
X495400Y206800D03*
X495400Y187800D03*
X570800Y187800D03*
X570800Y168800D03*
X531200Y514200D03*
X531200Y533200D03*
X431300Y203800D03*
X431300Y184800D03*
X361800Y553900D03*
X361800Y572900D03*
X311000Y596300D03*
X311000Y615300D03*
X48500Y369700D03*
X48500Y350700D03*
D11*
X190400Y74200D03*
X209400Y74200D03*
X190400Y128200D03*
X209400Y128200D03*
D12*
X138300Y157500D03*
X110300Y157500D03*
D11*
X125600Y249300D03*
X106600Y249300D03*
D13*
X32000Y585300D03*
X32000Y647300D03*
X142000Y647300D03*
X142000Y585300D03*
D14*
X87000Y585300D03*
D15*
X87000Y630300D03*
D16*
X335500Y554100D03*
X335500Y576300D03*
D17*
X344000Y529100D03*
X307000Y529100D03*
D18*
X27500Y547000D03*
X27500Y519000D03*
D19*
X419700Y99800D03*
X419700Y82800D03*
D20*
X602700Y584800D03*
X597700Y584800D03*
X592700Y584800D03*
X587700Y584800D03*
X582700Y584800D03*
X577700Y584800D03*
X572700Y584800D03*
X567700Y584800D03*
X562700Y584800D03*
X557700Y584800D03*
X552700Y584800D03*
X547700Y584800D03*
X542700Y584800D03*
X537700Y584800D03*
X532700Y584800D03*
X527700Y584800D03*
X522700Y584800D03*
X517700Y584800D03*
X512700Y584800D03*
X507700Y584800D03*
X502700Y584800D03*
X497700Y584800D03*
X492700Y584800D03*
X487700Y584800D03*
X482700Y584800D03*
X477700Y584800D03*
X472700Y584800D03*
X467700Y584800D03*
X462700Y584800D03*
X457700Y584800D03*
X452700Y584800D03*
X447700Y584800D03*
X442700Y584800D03*
X437700Y584800D03*
X432700Y584800D03*
X427700Y584800D03*
X422700Y584800D03*
X417700Y584800D03*
X412700Y584800D03*
X407700Y584800D03*
D21*
X623700Y613800D03*
D22*
X619700Y601800D03*
D21*
X386700Y613800D03*
D22*
X390700Y601800D03*
D23*
X798100Y417900D03*
X788100Y417900D03*
X778100Y417900D03*
X768100Y417900D03*
X758100Y417900D03*
X748100Y417900D03*
D24*
X724100Y450400D03*
X822100Y450400D03*
D25*
X828500Y245700D03*
X803100Y245700D03*
X828500Y271100D03*
X803100Y271100D03*
X828500Y296500D03*
X803100Y296500D03*
X828500Y321900D03*
X803100Y321900D03*
X828500Y347300D03*
X803100Y347300D03*
X707200Y85900D03*
X707200Y111300D03*
X732600Y85900D03*
X732600Y111300D03*
X758000Y85900D03*
X758000Y111300D03*
X783400Y85900D03*
X783400Y111300D03*
X808800Y85900D03*
X808800Y111300D03*
D26*
X532900Y75312D02*
X532900Y61088D01*
X558300Y61088D02*
X558300Y75312D01*
X583700Y75312D02*
X583700Y61088D01*
X609100Y61088D02*
X609100Y75312D01*
D27*
X211500Y546100D03*
X211500Y645100D03*
D28*
X391300Y79900D03*
X391300Y58900D03*
X365900Y80000D03*
X365900Y59000D03*
X318400Y80500D03*
X318400Y59500D03*
X340900Y80200D03*
X340900Y59200D03*
D29*
X446100Y118439D03*
X496900Y118439D03*
X446100Y78561D03*
X496900Y78561D03*
D10*
X335200Y615100D03*
X335200Y596100D03*
D11*
X701200Y375800D03*
X720200Y375800D03*
X649400Y420700D03*
X668400Y420700D03*
X650400Y377200D03*
X669400Y377200D03*
X650400Y340200D03*
X669400Y340200D03*
X721600Y274800D03*
X702600Y274800D03*
X653400Y274700D03*
X672400Y274700D03*
X650900Y315200D03*
X669900Y315200D03*
D10*
X339700Y137100D03*
X339700Y118100D03*
X365600Y137100D03*
X365600Y118100D03*
X391600Y137600D03*
X391600Y118600D03*
X315600Y136600D03*
X315600Y117600D03*
X526400Y98900D03*
X526400Y117900D03*
D11*
X655100Y235400D03*
X636100Y235400D03*
D10*
X635100Y110600D03*
X635100Y91600D03*
D11*
X700900Y311700D03*
X719900Y311700D03*
X718600Y340300D03*
X699600Y340300D03*
D30*
X67800Y518200D03*
X93200Y518200D03*
X118600Y518200D03*
D31*
X260200Y150200D03*
X262900Y93200D03*
X570800Y119700D03*
X670000Y455200D03*
D32*
X550715Y272000D03*
X550715Y277000D03*
X550715Y282000D03*
X550715Y287000D03*
X550715Y292000D03*
X550715Y297000D03*
X550715Y302000D03*
X550715Y307000D03*
X550715Y312000D03*
X550715Y317000D03*
X550715Y322000D03*
X550715Y327000D03*
X550715Y332000D03*
X550715Y337000D03*
X550715Y342000D03*
X550715Y347000D03*
X550715Y352000D03*
X550715Y357000D03*
X550715Y362000D03*
X550715Y367000D03*
X550715Y372000D03*
X550715Y377000D03*
X550715Y382000D03*
X550715Y387000D03*
X550715Y392000D03*
X550715Y397000D03*
X550715Y402000D03*
X550715Y407000D03*
X550715Y412000D03*
X550715Y417000D03*
X550715Y422000D03*
X550715Y427000D03*
X550715Y432000D03*
X550715Y437000D03*
X550715Y442000D03*
X550715Y447000D03*
D33*
X531500Y466215D03*
X526500Y466215D03*
X521500Y466215D03*
X516500Y466215D03*
X511500Y466215D03*
X506500Y466215D03*
X501500Y466215D03*
X496500Y466215D03*
X491500Y466215D03*
X486500Y466215D03*
X481500Y466215D03*
X476500Y466215D03*
X471500Y466215D03*
X466500Y466215D03*
X461500Y466215D03*
X456500Y466215D03*
X451500Y466215D03*
X446500Y466215D03*
X441500Y466215D03*
X436500Y466215D03*
X431500Y466215D03*
X426500Y466215D03*
X421500Y466215D03*
X416500Y466215D03*
X411500Y466215D03*
X406500Y466215D03*
X401500Y466215D03*
X396500Y466215D03*
X391500Y466215D03*
X386500Y466215D03*
X381500Y466215D03*
X376500Y466215D03*
X371500Y466215D03*
X366500Y466215D03*
X361500Y466215D03*
X356500Y466215D03*
D32*
X337285Y447000D03*
X337285Y442000D03*
X337285Y437000D03*
X337285Y432000D03*
X337285Y427000D03*
X337285Y422000D03*
X337285Y417000D03*
X337285Y412000D03*
X337285Y407000D03*
X337285Y402000D03*
X337285Y397000D03*
X337285Y392000D03*
X337285Y387000D03*
X337285Y382000D03*
X337285Y377000D03*
X337285Y372000D03*
X337285Y367000D03*
X337285Y362000D03*
X337285Y357000D03*
X337285Y352000D03*
X337285Y347000D03*
X337285Y342000D03*
X337285Y337000D03*
X337285Y332000D03*
X337285Y327000D03*
X337285Y322000D03*
X337285Y317000D03*
X337285Y312000D03*
X337285Y307000D03*
X337285Y302000D03*
X337285Y297000D03*
X337285Y292000D03*
X337285Y287000D03*
X337285Y282000D03*
X337285Y277000D03*
X337285Y272000D03*
D33*
X356500Y252785D03*
X361500Y252785D03*
X366500Y252785D03*
X371500Y252785D03*
X376500Y252785D03*
X381500Y252785D03*
X386500Y252785D03*
X391500Y252785D03*
X396500Y252785D03*
X401500Y252785D03*
X406500Y252785D03*
X411500Y252785D03*
X416500Y252785D03*
X421500Y252785D03*
X426500Y252785D03*
X431500Y252785D03*
X436500Y252785D03*
X441500Y252785D03*
X446500Y252785D03*
X451500Y252785D03*
X456500Y252785D03*
X461500Y252785D03*
X466500Y252785D03*
X471500Y252785D03*
X476500Y252785D03*
X481500Y252785D03*
X486500Y252785D03*
X491500Y252785D03*
X496500Y252785D03*
X501500Y252785D03*
X506500Y252785D03*
X511500Y252785D03*
X516500Y252785D03*
X521500Y252785D03*
X526500Y252785D03*
X531500Y252785D03*
D34*
X312601Y552700D03*
X312601Y562200D03*
X312601Y571700D03*
X286599Y571700D03*
X286599Y552700D03*
D35*
X157458Y78213D03*
X157458Y101200D03*
X157458Y124187D03*
D36*
X151100Y185000D03*
X151100Y197700D03*
X151100Y210400D03*
X151100Y223100D03*
D37*
X90300Y204800D03*
D36*
X601300Y199050D03*
X653300Y199050D03*
X601300Y211750D03*
X601300Y186350D03*
X601300Y173650D03*
X653300Y211750D03*
X653300Y186350D03*
X653300Y173650D03*
D38*
X93231Y450844D03*
X93231Y442716D03*
X93231Y434588D03*
X93231Y426460D03*
X93231Y418332D03*
X93231Y410204D03*
X93231Y402076D03*
X93231Y393948D03*
X93231Y385820D03*
X93231Y377692D03*
X93231Y369564D03*
X93231Y361436D03*
X93231Y353308D03*
X93231Y345180D03*
X93231Y337052D03*
X93231Y328924D03*
X93231Y320796D03*
X93231Y312668D03*
X93231Y304540D03*
X93231Y296412D03*
X93231Y288284D03*
X93231Y280156D03*
X206769Y280156D03*
X206769Y288284D03*
X206769Y296412D03*
X206769Y304540D03*
X206769Y312668D03*
X206769Y320796D03*
X206769Y328924D03*
X206769Y337052D03*
X206769Y345180D03*
X206769Y353308D03*
X206769Y361436D03*
X206769Y369564D03*
X206769Y377692D03*
X206769Y385820D03*
X206769Y393948D03*
X206769Y402076D03*
X206769Y410204D03*
X206769Y418332D03*
X206769Y426460D03*
X206769Y434588D03*
X206769Y442716D03*
X206769Y450844D03*
D39*
X281000Y594500D03*
X407000Y392000D03*
X440000Y355500D03*
X519470Y268530D03*
X462000Y340500D03*
X547500Y120000D03*
X530000Y405500D03*
X648500Y393858D03*
X814850Y282850D03*
X271500Y406000D03*
X380000Y150000D03*
X370000Y170000D03*
X450000Y180000D03*
X500000Y170000D03*
X588500Y160500D03*
X758000Y405358D03*
X609500Y396500D03*
X567500Y374500D03*
X532969Y442574D03*
X550000Y460000D03*
X524000Y485000D03*
X415957Y453607D03*
X379358Y449500D03*
X380000Y570000D03*
X418000Y598000D03*
X387000Y530000D03*
X452000Y546500D03*
X591500Y572500D03*
X603000Y306858D03*
X535000Y300500D03*
X382000Y372500D03*
X451000Y391000D03*
X421500Y352000D03*
X222000Y250000D03*
X90500Y234000D03*
X93500Y133500D03*
X234500Y167000D03*
X194500Y514500D03*
X278500Y512500D03*
X690500Y534000D03*
X671500Y80500D03*
X706500Y614000D03*
X772000Y620500D03*
X120000Y586500D03*
X121500Y639500D03*
X236000Y399000D03*
X188500Y399000D03*
X319000Y284500D03*
X631500Y274500D03*
X732000Y293500D03*
X349893Y410000D03*
X354000Y385500D03*
X321000Y370500D03*
X324500Y266000D03*
X393500Y224000D03*
X427500Y453607D03*
X470500Y451000D03*
X445000Y314500D03*
X361000Y327000D03*
X490500Y413000D03*
X513358Y235000D03*
X454000Y221500D03*
X464000Y293000D03*
X424442Y227000D03*
X733000Y336500D03*
X377000Y304000D03*
X481500Y379000D03*
X480500Y285500D03*
X168500Y235500D03*
X720500Y190000D03*
X678000Y168500D03*
X558500Y219000D03*
X535000Y192500D03*
X779000Y274500D03*
X597500Y262500D03*
X581500Y225500D03*
X579500Y249500D03*
X667142Y220500D03*
X672079Y246322D03*
X760500Y341500D03*
X535000Y325000D03*
X655000Y121500D03*
X689002Y251848D03*
X635849Y312849D03*
X655000Y290500D03*
X687500Y276000D03*
X140000Y365500D03*
X170000Y365500D03*
X142906Y271406D03*
X137500Y509500D03*
X516358Y358000D03*
X515500Y309000D03*
X645500Y255000D03*
X687000Y261500D03*
X685000Y375500D03*
X684500Y340000D03*
X698000Y359000D03*
X720000Y292000D03*
X415000Y149500D03*
X410000Y175500D03*
X714526Y125526D03*
X653500Y157000D03*
X571500Y96000D03*
X555500Y156500D03*
X493599Y218901D03*
X446500Y238000D03*
X259000Y181500D03*
X330500Y180500D03*
X305000Y327922D03*
X187500Y211500D03*
X389642Y236512D03*
X685000Y317000D03*
X414716Y226000D03*
X728500Y391642D03*
X685000Y304358D03*
X635500Y212500D03*
X595500Y243000D03*
X634000Y176000D03*
X535500Y282500D03*
X525000Y338500D03*
X698500Y256000D03*
X732500Y139500D03*
X499827Y435716D03*
X652000Y437500D03*
X634500Y395000D03*
X584500Y311500D03*
X576500Y391000D03*
X577000Y302000D03*
X628000Y424500D03*
X509500Y410500D03*
X399087Y485500D03*
X611000Y493000D03*
X389435Y488500D03*
X611000Y504000D03*
X133000Y400806D03*
X315500Y399500D03*
X140500Y393000D03*
X307500Y392500D03*
X132000Y386000D03*
X307500Y381000D03*
X140500Y377500D03*
X307000Y370500D03*
X219215Y368158D03*
X272736Y319952D03*
X226500Y375078D03*
X282388Y323858D03*
X237000Y375078D03*
X355000Y354500D03*
X273500Y367500D03*
X481000Y272000D03*
X373000Y210000D03*
X409000Y217500D03*
X405500Y268500D03*
X218693Y196193D03*
X406000Y279000D03*
X213000Y206284D03*
X420000Y277000D03*
X226000Y208284D03*
X435500Y274000D03*
X214000Y220000D03*
X140000Y410500D03*
X307000Y407500D03*
X285000Y418500D03*
X370000Y412500D03*
X287500Y357500D03*
X366500Y347000D03*
X760500Y361000D03*
X760500Y223500D03*
X752500Y368000D03*
X748358Y222792D03*
X741500Y367500D03*
X742500Y215000D03*
X570699Y277699D03*
X586500Y116000D03*
X579500Y283000D03*
X592500Y103000D03*
X469087Y485500D03*
X521500Y450000D03*
X360000Y305500D03*
X307500Y270000D03*
X173500Y114500D03*
X421729Y445729D03*
X484500Y232500D03*
X353500Y93000D03*
X525000Y173500D03*
X532500Y165500D03*
X277324Y427730D03*
X364500Y422000D03*
X385143Y497858D03*
X647000Y511500D03*
X50000Y495500D03*
X118500Y216000D03*
X435099Y284099D03*
X225000Y222000D03*
M02*
